<?xml version="1.0" encoding="UTF-8"?>
<svg width="35px" height="52px" viewBox="0 0 35 52" version="1.1" xmlns="http://www.w3.org/2000/svg" xmlns:xlink="http://www.w3.org/1999/xlink">
    <title>Conti gioco + BG</title>
    <defs>
        <filter id="filter-1">
            <feColorMatrix in="SourceGraphic" type="matrix" values="0 0 0 0 1.000000 0 0 0 0 1.000000 0 0 0 0 1.000000 0 0 0 1.000000 0"></feColorMatrix>
        </filter>
    </defs>
    <g id="Symbols" stroke="none" stroke-width="1" fill="none" fill-rule="evenodd">
        <g id="Conti-gioco-+-BG">
            <path d="M11.1337733,7.35825027 L35,8.15686275 L35,8.15686275 L16.9701653,52 L7,44.4404578 L7,11.3560127 C7,9.14687373 8.790861,7.35601273 11,7.35601273 C11.0446004,7.35601273 11.0891978,7.35675868 11.1337733,7.35825027 Z" id="Rectangle-5" fill="#0F90E7" transform="translate(21.000000, 29.609963) scale(-1, 1) translate(-21.000000, -29.609963) "></path>
            <path d="M4,0 L35,0 L35,0 L28,41.2941176 L0,28.5490196 L0,4 C-2.705415e-16,1.790861 1.790861,4.05812251e-16 4,0 Z" id="Rectangle-5-Copy-3" fill="#00528A" transform="translate(17.500000, 20.647059) scale(-1, 1) translate(-17.500000, -20.647059) "></path>
            <g id="Group" transform="translate(11.898592, 10.000000)">
                <g id="Voucher_conti_gioco" transform="translate(6.618592, 6.805882) scale(-1, 1) translate(-6.618592, -6.805882) ">
                    <rect id="bg" fill="#FFFFFF" opacity="0" x="0" y="0" width="13.2371831" height="13.6117647"></rect>
                    <g filter="url(#filter-1)" id="voucher">
                        <g transform="translate(0.000000, 2.722353)">
                            <path d="M12.8553472,2.88962877 C13.0662373,2.88962877 13.2371831,2.713819 13.2371831,2.49698784 L13.2371831,0.402876333 C13.2371831,0.186018589 13.0662114,0.010235409 12.8553472,0.010235409 L0.381835854,0.010235409 C0.170971664,0.010235409 0,0.186018589 0,0.402876333 L0,2.49698784 C0,2.71384559 0.170971664,2.88962877 0.381835854,2.88962877 C1.01347183,2.88962877 1.52736927,3.41804173 1.52736927,4.06757813 C1.52736927,4.71711452 1.01349768,5.24552748 0.381835854,5.24552748 C0.170971664,5.24552748 0,5.42131066 0,5.63816841 L0,7.73227992 C0,7.94913766 0.170971664,8.12492084 0.381835854,8.12492084 L12.8553472,8.12492084 C13.0662373,8.12492084 13.2371831,7.94911108 13.2371831,7.73227992 L13.2371831,5.63816841 C13.2371831,5.42131066 13.0662114,5.24552748 12.8553472,5.24552748 C12.2237113,5.24552748 11.7098138,4.71711452 11.7098138,4.06757813 C11.7098138,3.41804173 12.2236854,2.88962877 12.8553472,2.88962877 Z M12.4735114,5.99135648 L12.4735114,7.33963899 L4.45482919,7.33963899 L4.45482919,6.16168964 C4.45482919,5.94483189 4.28385753,5.76904871 4.07299334,5.76904871 C3.86212915,5.76904871 3.69115748,5.94485848 3.69115748,6.16168964 L3.69115748,7.33963899 L0.763671708,7.33963899 L0.763671708,5.99135648 C1.63404235,5.80892693 2.29104098,5.01564285 2.29104098,4.06757812 C2.29104098,3.1195134 1.63404235,2.32620273 0.763671708,2.14379977 L0.763671708,0.795517256 L3.69113163,0.795517256 L3.69113163,1.97346661 C3.69113163,2.19032436 3.86210329,2.36610754 4.07296748,2.36610754 C4.28383167,2.36610754 4.45480334,2.19029777 4.45480334,1.97346661 L4.45480334,0.795517256 L12.4735114,0.795517256 L12.4735114,2.14379977 C11.6031149,2.32622932 10.9461163,3.1195134 10.9461163,4.06757812 C10.9461163,5.01564285 11.6031407,5.80895352 12.4735114,5.99135648 Z" id="Shape" fill="#FFFFFF"></path>
                            <path d="M4.07296748,3.15138938 C3.86207744,3.15138938 3.69113163,3.32719915 3.69113163,3.54403031 L3.69113163,4.59109936 C3.69113163,4.8079571 3.86210329,4.98374028 4.07296748,4.98374028 C4.28383167,4.98374028 4.45480334,4.80793051 4.45480334,4.59109936 L4.45480334,3.54403031 C4.45482919,3.32719915 4.28385753,3.15138938 4.07296748,3.15138938 Z" id="Path" fill="#FFFFFF"></path>
                        </g>
                    </g>
                </g>
            </g>
        </g>
    </g>
</svg>