<?xml version="1.0" encoding="UTF-8"?>
<svg width="40px" height="40px" viewBox="0 0 40 40" version="1.1" xmlns="http://www.w3.org/2000/svg" xmlns:xlink="http://www.w3.org/1999/xlink">
    <title>Bordero@1,5x</title>
    <defs>
        <filter id="filter-1">
            <feColorMatrix in="SourceGraphic" type="matrix" values="0 0 0 0 1.000000 0 0 0 0 1.000000 0 0 0 0 1.000000 0 0 0 1.000000 0"></feColorMatrix>
        </filter>
        <filter id="filter-2">
            <feColorMatrix in="SourceGraphic" type="matrix" values="0 0 0 0 1.000000 0 0 0 0 1.000000 0 0 0 0 1.000000 0 0 0 1.000000 0"></feColorMatrix>
        </filter>
    </defs>
    <g id="Symbols" stroke="none" stroke-width="1" fill="#aac21f" fill-rule="evenodd">
        <g id="Bordero">
            <g id="icon-/-Options" stroke="#aac21f" stroke-width="2">
                <path d="M20,1 C25.2467728,1 29.9967748,3.12661026 33.4350823,6.56491775 C36.8733897,10.0032252 39,14.7532272 39,20 C39,25.2467728 36.8733897,29.9967748 33.4350823,33.4350823 C29.9967748,36.8733897 25.2467728,39 20,39 C14.7532272,39 10.0032252,36.8733897 6.56491775,33.4350823 C3.12661026,29.9967748 1,25.2467728 1,20 C1,14.7532272 3.12661026,10.0032252 6.56491775,6.56491775 C10.0032252,3.12661026 14.7532272,1 20,1 Z" id="Path"></path>
            </g>
            <g filter="url(#filter-1)" id="receipt-2">
                <g transform="translate(9.000000, 8.000000)" filter="url(#filter-2)" id="receipt">
                    <g>
                        <path d="M16.82735,1.82114063 L14.3611292,0.405375 L11.8948614,1.82114063 L9.42864067,0.405375 L6.96237286,1.82109375 L3.78976988,2.13162821e-14 L3.78976988,18.8722969 L0,18.8722969 L0,21.4087031 C0,22.8375938 1.16690468,24 2.60126718,24 L17.3987328,24 C18.8330483,24 20,22.8375938 20,21.4087031 L20,2.13162821e-14 L16.82735,1.82114063 Z M2.60126718,22.5927188 C1.94589202,22.5927188 1.41267037,22.061625 1.41267037,21.4087031 L1.41267037,20.2795781 L14.7974656,20.2795781 L14.7974656,21.4087031 C14.7974656,21.8349844 14.901409,22.2376406 15.0852039,22.5927188 L2.60126718,22.5927188 Z M17.3986858,22.5927188 C16.7433577,22.5927188 16.210136,22.061625 16.210136,21.4087031 L16.210136,18.8722969 L5.20244025,18.8722969 L5.20244025,2.4350625 L6.96232581,3.44526563 L9.42859361,2.02959375 L11.8948614,3.44526563 L14.3611292,2.02959375 L16.827397,3.44526563 L18.5873296,2.4350625 L18.5873296,21.4087031 L18.5873296,21.4087031 C18.5873296,22.061625 18.054108,22.5927188 17.3986858,22.5927188 Z" id="Shape" fill="#FFFFFF"></path>
                        <g id="Group" transform="translate(7.000000, 7.000000)" fill="#000000" fill-rule="nonzero">
                            <rect id="Rectangle" x="0" y="2.13162821e-14" width="10" height="1"></rect>
                        </g>
                        <g id="Group-2" transform="translate(7.000000, 12.000000)" fill="#000000" fill-rule="nonzero">
                            <rect id="Rectangle" x="0" y="2.13162821e-14" width="10" height="1"></rect>
                        </g>
                    </g>
                </g>
            </g>
        </g>
    </g>
</svg>