<?xml version="1.0" encoding="UTF-8"?>
<svg width="35px" height="52px" viewBox="0 0 35 52" version="1.1" xmlns="http://www.w3.org/2000/svg" xmlns:xlink="http://www.w3.org/1999/xlink">
    <title>Icon Sport + BG</title>
    <g id="Symbols" stroke="none" stroke-width="1" fill="none" fill-rule="evenodd">
        <g id="Icon-Sport-+-BG">
            <rect id="Rectangle" fill="#FFFFFF" opacity="0" x="0" y="0" width="35" height="52"></rect>
            <g id="Sport">
                <path d="M11.1337733,7.35825027 L35,8.15686275 L35,8.15686275 L16.9701653,52 L7,44.4404578 L7,11.3560127 C7,9.14687373 8.790861,7.35601273 11,7.35601273 C11.0446004,7.35601273 11.0891978,7.35675868 11.1337733,7.35825027 Z" id="Rectangle-5" fill="#AAC21F" transform="translate(21.000000, 29.609963) scale(-1, 1) translate(-21.000000, -29.609963) "></path>
                <path d="M4,-1.77635684e-14 L35,-1.77635684e-14 L35,-1.77635684e-14 L28,41.2941176 L0,28.5490196 L0,4 C-2.705415e-16,1.790861 1.790861,-1.73577561e-14 4,-1.77635684e-14 Z" id="Rectangle-5-Copy-3" fill="#005936" transform="translate(17.500000, 20.647059) scale(-1, 1) translate(-17.500000, -20.647059) "></path>
                <g id="Group" transform="translate(12.000000, 10.000000)" fill="#FFFFFF">
                    <g id="Sport" transform="translate(6.675000, 6.805882) scale(-1, 1) translate(-6.675000, -6.805882) ">
                        <rect id="bg" opacity="0" x="0" y="0" width="13.35" height="13.6117647"></rect>
                        <path d="M6.65364001,0.000167594281 C10.3226074,0.000167594281 13.30728,3.04332559 13.30728,6.78418731 C13.30728,10.525049 10.3226074,13.5682071 6.65364001,13.5682071 C2.9846726,13.5682071 3.79429821e-15,10.525049 3.79429821e-15,6.78418731 C3.79429821e-15,3.05104483 2.97236762,0.0127296302 6.63093611,0.000206447187 L6.63124462,1.93434811e-14 L6.65364001,0.000167594281 L6.65364001,0.000167594281 Z M12.4411891,7.53767116 L12.2765302,7.54217502 C8.8010607,7.68898987 6.99675795,9.39145437 6.77420539,12.7303179 L6.65364001,12.7326337 C9.62071293,12.7326337 12.0769246,10.4629685 12.4411891,7.53767116 Z M7.0107438,0.84675405 L7.00376714,0.949552708 C6.72362579,4.55940257 4.6493079,6.6346759 0.830934809,7.12426923 C0.98910313,10.0090295 3.17497552,12.3511452 5.95628353,12.6903869 C6.20589938,8.80402649 8.40076783,6.79082644 12.4858973,6.69945863 L12.4877653,6.78418731 C12.4877653,3.62678412 10.0624549,1.03550756 7.0107438,0.84675405 Z M6.18850777,0.85514997 L6.03236997,0.869223987 C3.26851626,1.16883358 1.07538613,3.4441208 0.840377859,6.27877582 C4.19569178,5.81632121 5.95021965,4.03615229 6.18850777,0.85514997 Z" id="path-1" fill-rule="nonzero"></path>
                    </g>
                </g>
            </g>
        </g>
    </g>
</svg>