<?xml version="1.0" encoding="UTF-8"?>
<svg width="35px" height="52px" viewBox="0 0 35 52" version="1.1" xmlns="http://www.w3.org/2000/svg" xmlns:xlink="http://www.w3.org/1999/xlink">
    <title>Virtual + BG</title>
    <g id="Symbols" stroke="none" stroke-width="1" fill="none" fill-rule="evenodd">
        <g id="Virtual-+-BG">
            <path d="M11.1337733,7.35825027 L35,8.15686275 L35,8.15686275 L16.9701653,52 L7,44.4404578 L7,11.3560127 C7,9.14687373 8.790861,7.35601273 11,7.35601273 C11.0446004,7.35601273 11.0891978,7.35675868 11.1337733,7.35825027 Z" id="Rectangle-5" fill="#AAC21F" transform="translate(21.000000, 29.609963) scale(-1, 1) translate(-21.000000, -29.609963) "></path>
            <path d="M4,-1.77635684e-14 L35,-1.77635684e-14 L35,-1.77635684e-14 L28,41.2941176 L0,28.5490196 L0,4 C-2.705415e-16,1.790861 1.790861,-1.73577561e-14 4,-1.77635684e-14 Z" id="Rectangle-5-Copy-3" fill="#005936" transform="translate(17.500000, 20.647059) scale(-1, 1) translate(-17.500000, -20.647059) "></path>
            <g id="Group" transform="translate(12.000000, 10.000000)" fill="#FFFFFF">
                <g id="icona_sport-copy" transform="translate(6.675000, 6.805882) scale(-1, 1) translate(-6.675000, -6.805882) ">
                    <path d="M8.78115559,2.42289412 L10.8993779,2.46814274 L10.9798443,2.47867224 C11.6499534,2.64169226 12.1816843,3.17560032 12.3649042,3.87168858 L12.3649042,3.87168858 L12.9645836,6.17611345 C13.2587269,7.30922442 13.3648479,8.48406208 13.2778021,9.65063441 C13.2194091,10.457339 12.696619,11.1433773 11.9591799,11.3808464 C10.9691916,11.7003908 9.91972132,11.1175335 9.61396508,10.0784849 L9.61396508,10.0784849 L9.17426557,8.57831539 L4.13233279,8.57831539 L3.6940728,10.0770189 C3.46769858,10.8600859 2.80323747,11.4084316 2.03461644,11.4634428 L2.03461644,11.4634428 L1.89796416,11.4679768 C0.920466018,11.4638296 0.108243438,10.6749161 0.029074181,9.65128924 C-0.0572623441,8.4832924 0.0490542936,7.30856924 0.343091947,6.17586575 L0.343091947,6.17586575 L0.943153659,3.86998656 C1.12705745,3.17506308 1.65808188,2.64158909 2.32776689,2.47867224 L2.32776689,2.47867224 L2.40823615,2.46814268 L4.53519186,2.42289412 L8.78115559,2.42289412 Z M8.76524857,3.24397012 L8.52063937,3.24323375 L8.35707989,4.6776622 C8.32853751,4.97066171 8.11103819,5.19931533 7.84053282,5.23846722 L7.757927,5.24440259 L5.54968415,5.24440259 C5.24249059,5.24440259 4.98427248,5.00103709 4.94988631,4.67040492 L4.94988631,4.67040492 L4.83449415,3.24323375 L4.54314243,3.24397012 L2.47517214,3.28757643 L2.40020754,3.30977337 C2.09358508,3.41878328 1.84860289,3.66481921 1.73191501,3.9803013 L1.73191501,3.9803013 L1.69786212,4.08794137 L1.09831145,6.39187085 C0.827900227,7.43355997 0.730131999,8.5138293 0.809408091,9.58634357 C0.855588492,10.1834188 1.33019021,10.6444004 1.9014243,10.6468242 C2.38104879,10.6492372 2.80574128,10.3203408 2.94540033,9.83724615 L2.94540033,9.83724615 L3.55481977,7.75715461 L9.75279138,7.75715461 L10.3620686,9.83676166 C10.5402968,10.4424323 11.1520794,10.7822056 11.72922,10.5959186 C12.1590352,10.4575101 12.463253,10.0582963 12.4973318,9.58750768 C12.5774139,8.51424876 12.4798434,7.43406999 12.2093641,6.39211855 L12.2093641,6.39211855 L11.6100509,4.08909485 C11.5036193,3.68474425 11.1938242,3.37368067 10.8030046,3.27860448 L10.8030046,3.27860448 L10.832209,3.28757643 L8.76524857,3.24397012 Z M7.73237142,3.24405491 L5.62041138,3.24405491 L5.71512864,4.4232418 L7.59773201,4.4232418 L7.73237142,3.24405491 Z" id="path-1"></path>
                </g>
            </g>
        </g>
    </g>
</svg>