<?xml version="1.0" encoding="UTF-8"?>
<svg width="40px" height="40px" viewBox="0 0 40 40" version="1.1" xmlns="http://www.w3.org/2000/svg" xmlns:xlink="http://www.w3.org/1999/xlink" >
    <title>Icon / Button / Header / scontrino@1,5x</title>
    <g id="Icon-/-Button-/-Header-/-scontrino" stroke="none" stroke-width="1" fill="none" fill-rule="evenodd">
       
        <rect id="bg" fill="#FFFFFF" opacity="0" x="0" y="0" width="40" height="40"></rect>
        <g id="Bordero" fill="#FFFFFF">
            <path d="M20,0 C31.0458374,0 40,8.95416258 40,20 C40,31.0458374 31.0458374,40 20,40 C8.95416258,40 0,31.0458374 0,20 C0,8.95416258 8.95416258,0 20,0 Z M20,2 C10.0587321,2 2,10.0587321 2,20 C2,29.9412679 10.0587321,38 20,38 C29.9412679,38 38,29.9412679 38,20 C38,10.0587321 29.9412679,2 20,2 Z" id="Circle"></path>
            <rect id="Rectangle" x="16" y="15" width="10" height="1"></rect>
            <rect id="Rectangle" x="16" y="20" width="10" height="1"></rect>
            <path d="M25.82735,9.82114062 L23.3611292,8.405375 L20.8948614,9.82114062 L18.4286407,8.405375 L15.9623729,9.82109375 L12.7897699,8 L12.7897699,26.8722969 L9,26.8722969 L9,29.4087031 C9,30.8375937 10.1669047,32 11.6012672,32 L26.3987328,32 C27.8330483,32 29,30.8375937 29,29.4087031 L29,8 L25.82735,9.82114062 Z M11.6012672,30.5927187 C10.945892,30.5927187 10.4126704,30.061625 10.4126704,29.4087031 L10.4126704,28.2795781 L23.7974656,28.2795781 L23.7974656,29.4087031 C23.7974656,29.8349844 23.901409,30.2376406 24.0852039,30.5927187 L11.6012672,30.5927187 Z M26.3986858,30.5927187 C25.7433577,30.5927187 25.210136,30.061625 25.210136,29.4087031 L25.210136,26.8722969 L14.2024402,26.8722969 L14.2024402,10.4350625 L15.9623258,11.4452656 L18.4285936,10.0295938 L20.8948614,11.4452656 L23.3611292,10.0295938 L25.827397,11.4452656 L27.5873296,10.4350625 L27.5873296,29.4087031 L27.5873296,29.4087031 C27.5873296,30.061625 27.054108,30.5927187 26.3986858,30.5927187 Z" id="Shape"></path>
        </g>
    </g>
</svg> 