<?xml version="1.0" encoding="UTF-8"?>
<svg width="35px" height="52px" viewBox="0 0 35 52" version="1.1" xmlns="http://www.w3.org/2000/svg" xmlns:xlink="http://www.w3.org/1999/xlink">
    <title>Movimenti cassa + BG</title>
    <defs>
        <filter id="filter-1">
            <feColorMatrix in="SourceGraphic" type="matrix" values="0 0 0 0 1.000000 0 0 0 0 1.000000 0 0 0 0 1.000000 0 0 0 1.000000 0"></feColorMatrix>
        </filter>
        <filter id="filter-2">
            <feColorMatrix in="SourceGraphic" type="matrix" values="0 0 0 0 1.000000 0 0 0 0 1.000000 0 0 0 0 1.000000 0 0 0 1.000000 0"></feColorMatrix>
        </filter>
    </defs>
    <g id="Symbols" stroke="none" stroke-width="1" fill="none" fill-rule="evenodd">
        <g id="Movimenti-cassa-+-BG">
            <path d="M11.1337733,7.35825027 L35,8.15686275 L35,8.15686275 L16.9701653,52 L7,44.4404578 L7,11.3560127 C7,9.14687373 8.790861,7.35601273 11,7.35601273 C11.0446004,7.35601273 11.0891978,7.35675868 11.1337733,7.35825027 Z" id="Rectangle-5" fill="#FFB800" transform="translate(21.000000, 29.609963) scale(-1, 1) translate(-21.000000, -29.609963) "></path>
            <path d="M4,0 L35,0 L35,0 L28,41.2941176 L-3.63797881e-12,28.5490196 L-3.63797881e-12,4 C-3.63824935e-12,1.790861 1.790861,4.05812251e-16 4,0 Z" id="Rectangle-5-Copy-3" fill="#FF8B01" transform="translate(17.500000, 20.647059) scale(-1, 1) translate(-17.500000, -20.647059) "></path>
            <g id="euro" transform="translate(11.898592, 10.000000)" filter="url(#filter-1)">
                <g>
                    <rect id="bg" fill="#FFFFFF" opacity="0" x="0" y="0" width="13.2371831" height="13.6117647"></rect>
                    <g filter="url(#filter-2)" id="euro-(1)">
                        <g>
                            <path d="M6.61859155,0 C2.96926563,0 0,3.05328897 0,6.80588235 C0,10.5584757 2.96926563,13.6117647 6.61859155,13.6117647 C10.2679175,13.6117647 13.2371831,10.5584757 13.2371831,6.80588235 C13.2371831,3.05328897 10.2679175,0 6.61859155,0 Z M6.61859155,12.7610294 C3.42512113,12.7610294 0.827323944,10.0897206 0.827323944,6.80588235 C0.827323944,3.52204412 3.42512113,0.850735294 6.61859155,0.850735294 C9.81206197,0.850735294 12.4098592,3.52204412 12.4098592,6.80588235 C12.4098592,10.0897206 9.81206197,12.7610294 6.61859155,12.7610294 Z" id="Shape" fill="#FFFFFF" fill-rule="nonzero"></path>
                            <path d="M8.03993408,9.03225662 C7.73216958,9.24834338 7.39296676,9.35808824 7.03225352,9.35808824 C6.27028817,9.35808824 5.61008366,8.84084118 5.25185239,8.08198529 L6.61859155,8.08198529 C6.84693296,8.08198529 7.03225352,7.89142059 7.03225352,7.65661765 C7.03225352,7.42181471 6.84693296,7.23125 6.61859155,7.23125 L4.99869127,7.23125 C4.97966282,7.09258015 4.96394366,6.95135809 4.96394366,6.80588235 C4.96394366,6.66040662 4.97966282,6.51918456 4.99869127,6.38051471 L7.03225352,6.38051471 C7.26059493,6.38051471 7.44591549,6.18995 7.44591549,5.95514706 C7.44591549,5.72034412 7.26059493,5.52977941 7.03225352,5.52977941 L5.25185239,5.52977941 C5.61008366,4.77092353 6.27028817,4.25367647 7.03225352,4.25367647 C7.39296676,4.25367647 7.73216958,4.36342132 8.03993408,4.57950809 C8.22856394,4.71137206 8.48668901,4.66288015 8.61492423,4.46806176 C8.74398676,4.27409412 8.69517465,4.00951544 8.50654479,3.87680074 C8.0647538,3.56713309 7.55512225,3.40294118 7.03225352,3.40294118 C5.82022394,3.40294118 4.78275972,4.28515368 4.35172394,5.52977941 L3.72295775,5.52977941 C3.49461634,5.52977941 3.30929577,5.72034412 3.30929577,5.95514706 C3.30929577,6.18995 3.49461634,6.38051471 3.72295775,6.38051471 L4.17302197,6.38051471 C4.15813014,6.52173676 4.13661972,6.66040662 4.13661972,6.80588235 C4.13661972,6.95135809 4.15813014,7.09002794 4.17302197,7.23125 L3.72295775,7.23125 C3.49461634,7.23125 3.30929577,7.42181471 3.30929577,7.65661765 C3.30929577,7.89142059 3.49461634,8.08198529 3.72295775,8.08198529 L4.35172394,8.08198529 C4.78275972,9.32661103 5.82022394,10.2088235 7.03225352,10.2088235 C7.55512225,10.2088235 8.0647538,10.0446316 8.50654479,9.73496397 C8.69517465,9.60224926 8.74398676,9.33767059 8.61492423,9.14370294 C8.48668901,8.94973529 8.22856394,8.90039265 8.03993408,9.03225662 Z" id="Path" fill="#FFFFFF" fill-rule="nonzero"></path>
                        </g>
                    </g>
                </g>
            </g>
        </g>
    </g>
</svg>