<?xml version="1.0" encoding="UTF-8"?>
<svg width="41px" height="41px" viewBox="0 0 41 41" version="1.1" xmlns="http://www.w3.org/2000/svg" xmlns:xlink="http://www.w3.org/1999/xlink">
    <title>header/bt_logout</title>
    <g id="Symbols" stroke="#aac21f" stroke-width="1" fill="none" fill-rule="evenodd">
        <g id="Artboard" transform="translate(-335.000000, -16.000000)" fill-rule="nonzero">
            <path d="M375,36.5 C375,47.2696915 366.269691,56 355.5,56 C344.730309,56 336,47.2696915 336,36.5 C336,25.7303085 344.730309,17 355.5,17 C366.269691,17 375,25.7303085 375,36.5 Z" id="Path" stroke="#FFFFFF"></path>
            <path d="M360.263121,40.5137766 C359.856302,40.5137766 359.526242,40.8253073 359.526242,41.2092871 L359.526242,42.4474405 C359.526242,43.0878897 358.97435,43.6089791 358.295615,43.6089791 L351.704385,43.6089791 C351.025842,43.6089791 350.473758,43.0878897 350.473758,42.4474405 L350.473758,31.5525595 C350.473758,30.9121103 351.025842,30.3910209 351.704385,30.3910209 L358.295615,30.3910209 C358.97435,30.3910209 359.526242,30.9121103 359.526242,31.5525595 L359.526242,32.7907129 C359.526242,33.1746927 359.856302,33.4862234 360.263121,33.4862234 C360.670131,33.4862234 361,33.1746927 361,32.7907129 L361,31.5525595 C361,30.1450565 359.787028,29 358.295615,29 L351.704385,29 C350.213164,29 349,30.1450565 349,31.5525595 L349,42.4474405 C349,43.8549435 350.213164,45 351.704385,45 L358.295615,45 C359.786836,45 361,43.8549435 361,42.4474405 L361,41.2092871 C361,40.8253073 360.670131,40.5137766 360.263121,40.5137766 L360.263121,40.5137766 Z" id="Path" fill="#FFFFFF"></path>
            <path d="M364.521882,35.7419323 L363.126368,34.2230931 C362.852845,33.9256356 362.409555,33.9256356 362.136032,34.2230931 C361.862509,34.5207491 361.862509,35.0031502 362.136032,35.3008061 L362.997265,36.2380256 L355.700219,36.2380256 C355.313457,36.2380256 355,36.5791392 355,37.0000248 C355,37.4209103 355.313457,37.7620241 355.700219,37.7620241 L362.997265,37.7620241 L362.136032,38.6992435 C361.862509,38.9968994 361.862509,39.4793005 362.136032,39.7769565 C362.272794,39.9257845 362.45186,40 362.631109,40 C362.810357,40 362.989606,39.925586 363.126185,39.7769565 L364.521882,38.2581173 C365.159373,37.5643805 365.159373,36.4356691 364.521882,35.7419323 L364.521882,35.7419323 Z" id="Path" fill="#FFFFFF"></path>
        </g>
    </g>
</svg>