<?xml version="1.0" encoding="UTF-8"?>
<svg width="20px" height="23px" viewBox="0 0 17 18" version="1.1" xmlns="http://www.w3.org/2000/svg" xmlns:xlink="http://www.w3.org/1999/xlink">
    <title>Exit Icon@1,5x</title>
    <g id="Symbols" stroke="none" stroke-width="1" fill="none" fill-rule="evenodd">
        <g id="01.Basics/06.Header/Login-Logout" transform="translate(-204.000000, -12.000000)" fill="#FFFFFF" fill-rule="nonzero">
            <g id="Component-/-Header-/-Saldo-Cassa" transform="translate(0.000000, 1.000000)">
                <g id="bg" transform="translate(192.000000, 0.000000)">
                    <g id="Exit-Icon" transform="translate(12.000000, 11.400000)">
                        <path d="M10.8178037,11.7163077 C10.4270697,11.7163077 10.1100591,12.0333183 10.1100591,12.4240524 L10.1100591,13.6839854 C10.1100591,14.3357003 9.57998779,14.8659558 8.92808855,14.8659558 L2.59745988,14.8659558 C1.94574498,14.8659558 1.41548936,14.3357003 1.41548936,13.6839854 L1.41548936,2.59745983 C1.41548936,1.94574494 1.94574498,1.41548936 2.59745988,1.41548936 L8.92808855,1.41548936 C9.57998779,1.41548936 10.1100591,1.94574494 10.1100591,2.59745983 L10.1100591,3.85739281 C10.1100591,4.24812685 10.4270697,4.56513749 10.8178037,4.56513749 C11.2087221,4.56513749 11.5255484,4.24812685 11.5255484,3.85739281 L11.5255484,2.59745983 C11.5255484,1.16519838 10.3605343,-3.55271368e-15 8.92808855,-3.55271368e-15 L2.59745988,-3.55271368e-15 C1.16519843,-3.55271368e-15 -4.37871961e-13,1.16519838 -4.37871961e-13,2.59745983 L-4.37871961e-13,13.6839854 C-4.37871961e-13,15.1162468 1.16519843,16.2814452 2.59745988,16.2814452 L8.92808855,16.2814452 C10.36035,16.2814452 11.5255484,15.1162468 11.5255484,13.6839854 L11.5255484,12.4240524 C11.5255484,12.0333183 11.2087221,11.7163077 10.8178037,11.7163077 L10.8178037,11.7163077 Z" id="Path"></path>
                        <path d="M15.7974511,7.0037234 L14.386938,5.59302604 C14.1104753,5.31674762 13.6624213,5.31674762 13.3859585,5.59302604 C13.1094957,5.86948881 13.1094957,6.31754281 13.3859585,6.59400557 L14.2564476,7.46449468 L6.88097396,7.46449468 C6.49005562,7.46449468 6.17322928,7.78132098 6.17322928,8.17223936 C6.17322928,8.5631577 6.49005562,8.87998404 6.88097396,8.87998404 L14.2564476,8.87998404 L13.3859585,9.75047315 C13.1094957,10.0269359 13.1094957,10.4749899 13.3859585,10.7514526 C13.5241899,10.889684 13.7051809,10.9586154 13.8863561,10.9586154 C14.0675314,10.9586154 14.2487067,10.8894997 14.3867537,10.7514526 L15.7974511,9.34075532 C16.4417936,8.69641277 16.4417936,7.64806596 15.7974511,7.0037234 L15.7974511,7.0037234 Z" id="Path"></path>
                    </g>
                </g>
            </g>
        </g>
    </g>
</svg>