<?xml version="1.0" encoding="UTF-8"?>
<svg width="18px" height="15px" viewBox="0 0 18 15" version="1.1" xmlns="http://www.w3.org/2000/svg" xmlns:xlink="http://www.w3.org/1999/xlink">
    <title>bt_refresh</title>
    <g id="bt_refresh" stroke="none" stroke-width="1" fill="none" fill-rule="evenodd">
        <g id="Group-13" fill="#333333" fill-rule="nonzero" stroke="#FFFFFF" stroke-width="0.5">
            <path d="M13.3352853,2.83982759 L10.7392976,5.33800125 C10.2659228,5.79353976 10.2659228,6.53181599 10.7392976,6.98735458 C11.2123568,7.44258949 11.9798553,7.44258949 12.4529145,6.98735458 L12.9802542,6.47988465 L12.9802542,7.41161283 C12.9802542,10.2125678 10.6124331,12.4911718 7.70212453,12.4911718 C4.79150031,12.4911718 2.42367926,10.2125678 2.42367926,7.41161283 C2.42367926,4.61096162 4.79150031,2.33235758 7.70212453,2.33235758 C8.37116099,2.33235758 8.91396416,1.81031041 8.91396416,1.16617879 C8.91396416,0.522350916 8.37116099,0 7.70212453,0 C3.45532093,0 0,3.32482432 0,7.41161283 C0,11.4987051 3.45532093,14.8235294 7.70212453,14.8235294 C11.9489281,14.8235294 15.4039334,11.4987051 15.4039334,7.41191658 L15.4039334,6.47988465 L15.931273,6.98735458 C16.4043323,7.44258949 17.1715151,7.44289317 17.6452055,6.98735458 C18.1182648,6.53181599 18.1182648,5.79353976 17.6452055,5.33800125 L15.0489023,2.83982759 C14.5774209,2.38611119 13.8099225,2.38307423 13.3352853,2.83982759 Z" id="Path"></path>
        </g>
    </g>
</svg>