<?xml version="1.0" encoding="UTF-8"?>
<svg width="24px" height="24px" viewBox="0 0 24 24" version="1.1" xmlns="http://www.w3.org/2000/svg" xmlns:xlink="http://www.w3.org/1999/xlink">
    <title>ic / eye close</title>
    <g id="ic-/-eye-close" stroke="none" stroke-width="1" fill="none" fill-rule="evenodd">
        <g id="ic_eye_blind">
            <rect id="BG" fill="#FFFFFF" opacity="0" x="0" y="0" width="24" height="24"></rect>
            <g id="Occhio" transform="translate(1.000000, 3.166603)">
                <polygon id="Path" fill="#F4F4F4" fill-rule="nonzero" points="20.1273793 0 20.8726207 0.666794859 3.87262066 19.6667949 3.12737934 19"></polygon>
                <path d="M11,3.33339743 C13.4263692,3.33339743 15.6615272,4.08033153 17.4484531,5.05501841 C18.6315878,5.70036461 19.6185936,6.44588684 20.3326002,7.14419724 C21.026368,7.82271386 21.5,8.43679913 21.5,8.83339743 C21.5,9.22999573 21.026368,9.844081 20.3326002,10.5225976 C19.6185936,11.220908 18.6315878,11.9664302 17.4484531,12.6117764 C15.6615272,13.5864633 13.4263692,14.3333974 11,14.3333974 C8.5736308,14.3333974 6.33847283,13.5864633 4.55154688,12.6117764 C3.36841217,11.9664302 2.38140636,11.220908 1.66739985,10.5225976 C0.973632021,9.844081 0.5,9.22999573 0.5,8.83339743 C0.5,8.43679913 0.973632021,7.82271386 1.66739985,7.14419724 C2.38140636,6.44588684 3.36841217,5.70036461 4.55154688,5.05501841 C6.33847283,4.08033153 8.5736308,3.33339743 11,3.33339743 Z M11,4.33339743 C9.75735931,4.33339743 8.63235931,4.83707709 7.81801948,5.65141691 C7.00367966,6.46575674 6.5,7.59075674 6.5,8.83339743 C6.5,10.0760381 7.00367966,11.2010381 7.81801948,12.0153779 C8.63235931,12.8297178 9.75735931,13.3333974 11,13.3333974 C12.2426407,13.3333974 13.3676407,12.8297178 14.1819805,12.0153779 C14.9963203,11.2010381 15.5,10.0760381 15.5,8.83339743 C15.5,7.59075674 14.9963203,6.46575674 14.1819805,5.65141691 C13.3676407,4.83707709 12.2426407,4.33339743 11,4.33339743 Z" id="Combined-Shape" stroke="#FFFFFF"></path>
            </g>
        </g>
    </g>
</svg>