<?xml version="1.0" encoding="UTF-8"?>
<svg width="24px" height="24px" viewBox="0 0 24 24" version="1.1" xmlns="http://www.w3.org/2000/svg" xmlns:xlink="http://www.w3.org/1999/xlink">
    <title>ic/ eye open</title>
    <g id="ic/-eye-open" stroke="none" stroke-width="1" fill="none" fill-rule="evenodd">
        <g id="Group">
            <rect id="BG" x="0" y="0" width="24" height="24"></rect>
            <path d="M12,6.5 C14.4263692,6.5 16.6615272,7.2469341 18.4484531,8.22162098 C19.6315878,8.86696718 20.6185936,9.61248941 21.3326002,10.3107998 C22.026368,10.9893164 22.5,11.6034017 22.5,12 C22.5,12.3965983 22.026368,13.0106836 21.3326002,13.6892002 C20.6185936,14.3875106 19.6315878,15.1330328 18.4484531,15.778379 C16.6615272,16.7530659 14.4263692,17.5 12,17.5 C9.5736308,17.5 7.33847283,16.7530659 5.55154688,15.778379 C4.36841217,15.1330328 3.38140636,14.3875106 2.66739985,13.6892002 C1.97363202,13.0106836 1.5,12.3965983 1.5,12 C1.5,11.6034017 1.97363202,10.9893164 2.66739985,10.3107998 C3.38140636,9.61248941 4.36841217,8.86696718 5.55154688,8.22162098 C7.23335954,7.30426862 9.31222201,6.58866267 11.5738544,6.50764797 L12,6.5 L12,6.5 Z M12,7.5 C10.7573593,7.5 9.63235931,8.00367966 8.81801948,8.81801948 C8.00367966,9.63235931 7.5,10.7573593 7.5,12 C7.5,13.2426407 8.00367966,14.3676407 8.81801948,15.1819805 C9.63235931,15.9963203 10.7573593,16.5 12,16.5 C13.2426407,16.5 14.3676407,15.9963203 15.1819805,15.1819805 C15.9963203,14.3676407 16.5,13.2426407 16.5,12 C16.5,10.7573593 15.9963203,9.63235931 15.1819805,8.81801948 C14.3676407,8.00367966 13.2426407,7.5 12,7.5 Z" id="Combined-Shape" stroke="#FFFFFF"></path>
        </g>
    </g>
</svg>