<?xml version="1.0" encoding="UTF-8"?>
<svg width="49px" height="43px" viewBox="0 0 49 43" version="1.1" xmlns="http://www.w3.org/2000/svg" xmlns:xlink="http://www.w3.org/1999/xlink">
    <title>ico_tg@1,5x</title>
    <g id="ico_tg" stroke="none" stroke-width="1" fill="none" fill-rule="evenodd">
        <rect id="Rectangle" fill="#FFFFFF" opacity="0" x="0" y="0" width="49" height="43"></rect>
        <path d="M45.1787744,0 L3.82122556,0 C1.7142867,0 0,1.74293757 0,3.88508969 L0,33.2921106 C0,35.4342627 1.7142867,37.1772002 3.82122556,37.1772002 L23.0564259,37.1772002 L23.0564259,40.0645989 L18.0006897,40.0645989 L18.0006897,43 L30.9991404,43 L30.9991404,40.0645989 L25.9435741,40.0645989 L25.9435741,37.1772002 L45.1787744,37.1772002 C47.2857133,37.1772002 49,35.4342627 49,33.2921106 L49,3.88508969 C49,1.7427649 47.2857133,0 45.1787744,0 Z M3.82122556,2.9354011 L45.1787744,2.9354011 C45.6938756,2.9354011 46.1128518,3.3613796 46.1128518,3.88508969 L46.1128518,27.2867979 L2.8871482,27.2867979 L2.8871482,3.88508969 C2.8871482,3.36120693 3.30612436,2.9354011 3.82122556,2.9354011 Z M45.1787744,34.2416265 L3.82122556,34.2416265 C3.30612436,34.2416265 2.8871482,33.815648 2.8871482,33.2919379 L2.8871482,30.222199 L46.1128518,30.222199 L46.1128518,33.2919379 C46.1128518,33.815648 45.6938756,34.2416265 45.1787744,34.2416265 Z" fill="#333333" fill-rule="nonzero"></path>
    </g>
</svg>