<?xml version="1.0" encoding="UTF-8"?>
<svg width="36px" height="36px" viewBox="0 0 36 36" version="1.1" xmlns="http://www.w3.org/2000/svg" xmlns:xlink="http://www.w3.org/1999/xlink">
    <title>ico_impostazioni</title>
    <g id="Symbols" stroke="none" stroke-width="1" fill="none" fill-rule="evenodd">
        <g id="asset" transform="translate(-68.000000, -11.000000)" fill="#FFFFFF">
            <g id="Group" transform="translate(68.000000, 11.000000)">
                <circle id="Oval" opacity="0.2" cx="18.3375325" cy="18.4415349" r="17.5"></circle>
                <path d="M10.8529302,20.2620542 L10.8529302,16.8574005 C10.8529302,16.1306531 10.2631062,15.5408291 9.53635877,15.5408291 C8.80961134,15.5408291 8.21978734,16.1306531 8.21978734,16.8574005 L8.21978734,23.4402576 C8.21978734,24.1670051 8.80961134,24.7568291 9.53635877,24.7568291 L16.1192159,24.7568291 C16.8459633,24.7568291 17.4357873,24.1670051 17.4357873,23.4402576 C17.4357873,22.7135102 16.8459633,22.1236862 16.1192159,22.1236862 L12.7145622,22.1236862 L19.7707332,15.0675152 C20.2848544,14.553394 20.2848544,13.7200043 19.7707332,13.2058832 C19.2572704,12.691762 18.4225641,12.691762 17.9091012,13.2058832 L10.8529302,20.2620542 Z" id="Path" fill-rule="nonzero" transform="translate(14.188056, 18.788561) rotate(-45.000000) translate(-14.188056, -18.788561) "></path>
                <path d="M27.8657826,11.7683242 L21.2829255,11.7683242 C20.5561781,11.7683242 19.9663541,12.3581482 19.9663541,13.0848956 C19.9663541,13.811643 20.5561781,14.401467 21.2829255,14.401467 L24.6875792,14.401467 L18.2374997,20.8515465 C17.7233786,21.3656676 17.7233786,22.1990574 18.2374997,22.7131785 C18.4948894,22.9705682 18.8312734,23.0989339 19.1683157,23.0989339 C19.505358,23.0989339 19.841742,22.9705682 20.0991317,22.7131785 L26.5492112,16.263099 L26.5492112,19.6677527 C26.5492112,20.3945002 27.1390352,20.9843242 27.8657826,20.9843242 C28.5925301,20.9843242 29.1823541,20.3945002 29.1823541,19.6677527 L29.1823541,13.0848956 C29.1823541,12.3581482 28.5925301,11.7683242 27.8657826,11.7683242 Z" id="Path" fill-rule="nonzero" transform="translate(23.517131, 17.433629) rotate(-45.000000) translate(-23.517131, -17.433629) "></path>
            </g>
        </g>
    </g>
</svg>