<?xml version="1.0" encoding="UTF-8"?>
<svg width="28px" height="28px" viewBox="0 0 28 28" version="1.1" xmlns="http://www.w3.org/2000/svg" xmlns:xlink="http://www.w3.org/1999/xlink">
    <title>01.Basics/02.Icon/Virtual/Automobilismo@1,5x</title>
    <defs>
        <filter id="filter-1">
            <feColorMatrix in="SourceGraphic" type="matrix" values="0 0 0 0 0.200000 0 0 0 0 0.200000 0 0 0 0 0.200000 0 0 0 1.000000 0"></feColorMatrix>
        </filter>
        <filter id="filter-2">
            <feColorMatrix in="SourceGraphic" type="matrix" values="0 0 0 0 0.200000 0 0 0 0 0.200000 0 0 0 0 0.200000 0 0 0 1.000000 0"></feColorMatrix>
        </filter>
    </defs>
    <g id="Symbols" stroke="none" stroke-width="1" fill="none" fill-rule="evenodd">
        <g id="01.Basics/02.Icon/Virtual/Automobilismo" filter="url(#filter-1)">
            <g>
                <rect id="Rectangle-Copy-9" fill="#FFFFFF" opacity="0" x="0" y="0" width="28" height="28"></rect>
                <g filter="url(#filter-2)">
                    <g transform="translate(0.000000, 10.000000)">
                        <path d="M13.9025806,2.74322581 C12.0277419,2.81935484 8.48322581,3.43741935 6.9883871,4.62193548 C9.60709677,3.19677419 13.6709677,3.30580645 15.7722581,3.3683871 C16.703871,3.39677419 18.2606452,3.53225806 19.2606452,3.63548387 C19.4032258,3.65032258 19.5348387,3.66387097 19.6477419,3.67741935 C17.7619355,3.16129032 16.5670968,2.63612903 13.9025806,2.74322581 Z" id="Path" fill="#222222" fill-rule="nonzero"></path>
                        <path d="M12.7096774,1.85354839 C12.4677419,1.72451613 12.2380645,1.66 12.2580645,1.32451613 C12.4193548,0.608387097 12.6541935,0.366451613 12.5883871,0.227741935 C12.3683871,-0.231612903 11.1412903,0.130967742 10.7896774,0.222580645 C9.74645161,0.525806452 8.76064516,1.09677419 7.55290323,1.83096774 C7.14193548,2.1083871 6.71419355,2.3683871 6.40451613,2.54064516 C6.66903226,2.52903226 7.12516129,2.3716129 7.70322581,2.02451613 C8.78903226,1.40967742 10.3129032,0.490967742 11.5522581,0.580645161 C11.9832258,0.697419355 11.0045161,1.58645161 11.0283871,1.87096774 C11.0580645,2.02258065 11.2625806,2.03612903 11.5690323,2.05612903 C12.0690323,2.07935484 13.0322581,2.56774194 12.9883871,2.96387097 C13.1554839,2.8916129 13.6696774,2.91548387 13.9174194,2.90774194 C13.9470968,2.64516129 13.0051613,2.01419355 12.7096774,1.85354839 Z" id="Path" fill="#222222" fill-rule="nonzero"></path>
                        <path d="M0,0.760643594 C0,1.71096774 0.0380645161,1.92516129 0.163870968,2.0716129 C1.59032258,2.92709677 1.23032258,3.8516129 1.5883871,3.8516129 C1.82516129,3.04451613 1.16580645,2.27225806 1.16580645,2.02 C1.07935484,1.48387097 1.07935484,1.19483871 1.59612903,1.23677419 C2.77806452,1.2316129 2.89032258,1.24645161 4.14645161,1.24645161 C4.62774194,1.24645161 4.47741935,1.83096774 4.66258065,1.81225806 C5.0083871,1.77677419 5.14258065,0.958709677 4.57419355,0.958709677 C4.00580645,0.958709677 0.967741935,0.76 0,0.760643594 Z" id="Path" fill="#222222" fill-rule="nonzero"></path>
                        <path d="M19.8929032,6.62709677 C19.5896774,6.43354839 19.0954839,5.83870968 19.2354839,5.07870968 C18.9129032,5.17290323 18.6154839,5.38129032 18.2909677,5.82516129 C15.6987097,5.66387097 12.9619355,6.26709677 7.76903226,6.4 C7.1516129,6.55096774 19.6193548,6.54903226 19.8929032,6.62709677 Z" id="Path" fill="#222222" fill-rule="nonzero"></path>
                        <path d="M19.1741935,4.77419355 C16.9090323,4.08967742 14.0987097,5.75677419 11.8135484,5.80645161 C10.2567742,5.84193548 9.23677419,5.34516129 7.65290323,4.9516129 C8.42709677,5.36516129 9.92258065,5.92709677 10.7877419,6.02387097 C11.6825806,6.12387097 12.6541935,5.99870968 13.54,5.83548387 C13.9748387,5.76193548 19.2780645,4.83870968 19.1741935,4.77419355 Z" id="Path" fill="#222222" fill-rule="nonzero"></path>
                        <path d="M17.1554839,2.94193548 C17.6245161,2.83806452 19.8425806,2.0883871 24.2522581,3.33870968 C25.0451613,3.56451613 27.2845161,4.44 27.3187097,4.77548387 C27.3993548,6.18774194 25.6219355,5.54322581 24.4251613,5.61419355 C24.4625806,5.75741935 24.2212903,6.39483871 23.7941935,6.58193548 C25.1245161,6.58193548 26.3103226,6.58645161 27.536129,6.59032258 C27.8677419,6.59032258 28.156129,4.51548387 27.7490323,4.28064516 C25.7070968,3.10129032 20.5103226,1.39870968 17.1554839,2.94193548 Z" id="Path" fill="#222222" fill-rule="nonzero"></path>
                        <path d="M16.7780645,1.8916129 C16.4219355,1.84451613 16.0432258,1.76258065 15.8812903,1.94193548 C15.5141935,2.47225806 16.4470968,2.31548387 16.743871,2.23612903 C16.7522581,2.42967742 16.6696774,2.54064516 16.6290323,2.71354839 C16.8709677,2.59290323 16.9883871,1.96193548 16.7780645,1.8916129 Z" id="Path" fill="#222222" fill-rule="nonzero"></path>
                        <path d="M15.0690331,1.41935484 C15.0695543,1.80853842 14.8355175,2.15969082 14.4761085,2.30898679 C14.1166995,2.45828277 13.7027424,2.37630246 13.4273632,2.10129262 C13.151984,1.82628278 13.0694481,1.41243613 13.2182615,1.05282703 C13.3670749,0.693217942 13.7179128,0.45870946 14.1070968,0.45870946 L14.1070968,0.45870946 C14.3620468,0.458538513 14.6066228,0.559652906 14.7870207,0.739808833 C14.9674186,0.91996476 15.0688612,1.16440478 15.0690331,1.41935484 Z" id="Path" fill="#222222" fill-rule="nonzero"></path>
                        <path d="M6.87290323,4.76709677 C6.87290323,6.14495815 5.75592589,7.26193548 4.37806452,7.26193548 C3.00020314,7.26193548 1.88322581,6.14495815 1.88322581,4.76709677 C1.88322581,3.3892354 3.00020314,2.27225806 4.37806452,2.27225806 C5.75592589,2.27225806 6.87290323,3.3892354 6.87290323,4.76709677 Z M4.32258065,2.83870872 C3.22601897,2.83764235 2.33614823,3.72558962 2.3348413,4.82215103 C2.33353725,5.91871245 3.22129123,6.80877602 4.31785233,6.81032168 C5.41441344,6.81186332 6.3046698,5.92430268 6.30645424,4.82774194 L6.30645424,4.82774194 C6.30730776,4.30084983 6.09873315,3.79521653 5.726648,3.42216336 C5.35456286,3.04911019 4.8494732,2.83922252 4.32258065,2.83870872 Z" id="Shape" fill="#222222" fill-rule="nonzero"></path>
                        <path d="M24.2780646,4.85483871 C24.2780646,6.18424155 23.2003706,7.26193548 21.8709677,7.26193548 C20.5415649,7.26193548 19.463871,6.18424155 19.463871,4.85483871 C19.463871,3.52543587 20.5415649,2.44774185 21.8709677,2.44774185 L21.8709677,2.44774185 C22.509422,2.44757075 23.1217759,2.70111988 23.5732312,3.15257521 C24.0246866,3.60403053 24.2782357,4.21638449 24.2780646,4.85483871 L24.2780646,4.85483871 Z M21.7922581,3.04129032 C20.7828241,3.04129032 19.9645161,3.85959826 19.9645161,4.86903226 C19.9645161,5.87846626 20.7828241,6.69677419 21.7922581,6.69677419 C22.8016921,6.69677419 23.62,5.87846626 23.62,4.86903226 L23.62,4.86903226 C23.62,4.38428496 23.4274349,3.91939164 23.0846668,3.57662354 C22.7418987,3.23385544 22.2770054,3.04129032 21.7922581,3.04129032 Z" id="Shape" fill="#222222"></path>
                    </g>
                </g>
            </g>
        </g>
    </g>
</svg>