<?xml version="1.0" encoding="UTF-8"?>
<svg width="18px" height="18px" viewBox="0 0 18 18" version="1.1" xmlns="http://www.w3.org/2000/svg" xmlns:xlink="http://www.w3.org/1999/xlink">
    <title>Monoquota OnDemand</title>
    <g id="Symbols" stroke="none" stroke-width="1" fill="none" fill-rule="evenodd">
        <g id="Group-57-Copy-3">
            <g>
                <path d="M5.90228571,9.15685714 C5.90228571,9.804 5.37685714,10.3285714 4.72885714,10.3285714 C4.08257143,10.3285714 3.558,9.804 3.558,9.15685714 C3.558,8.50971429 4.08257143,7.98514286 4.72885714,7.98514286 C5.37685714,7.98514286 5.90228571,8.50971429 5.90228571,9.15685714" id="Fill-17" fill="#0095d7"></path>
                <path d="M10.0645714,9.15685714 C10.0645714,9.93428571 9.43457143,10.5642857 8.658,10.5642857 C7.88142857,10.5642857 7.25142857,9.93428571 7.25142857,9.15685714 C7.25142857,8.38114286 7.88142857,7.75114286 8.658,7.75114286 C9.43457143,7.75114286 10.0645714,8.38114286 10.0645714,9.15685714" id="Fill-18" fill="#0095d7"></path>
                <path d="M14.2277143,9.15685714 C14.2277143,10.0637143 13.4931429,10.7974286 12.5862857,10.7974286 C11.6802857,10.7974286 10.9457143,10.0637143 10.9457143,9.15685714 C10.9457143,8.25171429 11.6802857,7.51542857 12.5862857,7.51542857 C13.4931429,7.51542857 14.2277143,8.25171429 14.2277143,9.15685714" id="Fill-19" fill="#0095d7"></path>
                <path d="M-6.02184969e-13,8.93018177 C-6.02184969e-13,10.9179174 0.655554485,12.7533459 1.76201946,14.2368334 C1.76115233,14.2394149 1.76115233,14.2402754 1.76028519,14.2411359 L1.52442432,15.3451466 C1.45765488,15.6575051 1.3483958,16.1686371 1.28075923,16.481856 L1.04489835,17.5832853 C0.978128914,17.8973647 1.17410155,18.071184 1.4802004,17.9722275 L2.55978418,17.6237284 C2.86675017,17.5256323 3.36708739,17.3638599 3.67405338,17.2649034 L4.75537142,16.9164043 C4.7987282,16.9026364 4.83601503,16.8845661 4.86983332,16.8639143 C6.10723576,17.4998176 7.5102611,17.861224 9,17.861224 C13.970421,17.861224 18,13.8625196 18,8.93018177 C18,3.99784395 13.970421,-2.48689958e-14 9,-2.48689958e-14 C4.02957896,-2.48689958e-14 -6.02184969e-13,3.99784395 -6.02184969e-13,8.93018177 Z M9,15.3460071 C5.42913575,15.3460071 2.53463725,12.4736862 2.53463725,8.93018177 C2.53463725,5.38753788 5.42913575,2.51435644 9,2.51435644 C12.5708642,2.51435644 15.4653628,5.38753788 15.4653628,8.93018177 C15.4653628,12.4736862 12.5708642,15.3460071 9,15.3460071" id="Fill-20" fill="#0095d7"></path>
            </g>
        </g>
    </g>
</svg>