<?xml version="1.0" encoding="UTF-8"?>
<svg width="20px" height="20px" viewBox="0 0 20 20" version="1.1" xmlns="http://www.w3.org/2000/svg" xmlns:xlink="http://www.w3.org/1999/xlink">
    <title>bt/arrow ricerca</title>
    <g id="bt/arrow-ricerca" stroke="none" stroke-width="1" fill="none" fill-rule="evenodd" stroke-linejoin="round">
        <g id="search" transform="translate(3.000000, 3.000000)" fill="#CBCBCB" fill-rule="nonzero" stroke="#CBCBCB" stroke-width="0.5">
            <path d="M13.9145574,13.0897038 L9.84765685,9.02280328 C10.6190259,8.07050017 11.0833513,6.85982534 11.0833513,5.54168931 C11.0833513,2.48601779 8.59733349,0 5.54166197,0 C2.48599044,0 0,2.48601779 0,5.54168931 C0,8.59736083 2.48601779,11.0833786 5.54168931,11.0833786 C6.85982534,11.0833786 8.07050017,10.6190259 9.02280328,9.8476842 L13.0897038,13.9145848 C13.2036455,14.0284717 13.388271,14.0284717 13.5022127,13.9145848 L13.9145848,13.5021853 C14.0284717,13.388271 14.0284717,13.2035908 13.9145574,13.0897038 Z M5.54168931,9.91669999 C3.1291717,9.91669999 1.16667863,7.95420692 1.16667863,5.54168931 C1.16667863,3.1291717 3.1291717,1.16667863 5.54168931,1.16667863 C7.95420692,1.16667863 9.91669999,3.1291717 9.91669999,5.54168931 C9.91669999,7.95420692 7.95420692,9.91669999 5.54168931,9.91669999 Z" id="Shape"></path>
        </g>
    </g>
</svg>