<?xml version="1.0" encoding="UTF-8"?>
<svg width="19px" height="25px" viewBox="0 0 19 25" version="1.1" xmlns="http://www.w3.org/2000/svg" xmlns:xlink="http://www.w3.org/1999/xlink" style="background: #333333;">
    <title>bt_Carrello/cestino W@2x</title>
    <g id="bt_Carrello/cestino-W" stroke="none" stroke-width="1" fill="none" fill-rule="evenodd">
        <rect fill="#333333" x="0" y="0" width="19" height="25"></rect>
        <g id="bt_carrello/elimina" fill="#FFFFFF" fill-rule="nonzero">
            <g id="004-delete">
                <path d="M5.42794436,2.2515213 C5.42794436,1.51321631 6.00413604,0.973630832 6.74244103,0.973630832 L12.1461397,0.973630832 C12.884207,0.973630832 13.4603987,1.51321631 13.4603987,2.2515213 L13.4603987,3.65111562 L14.4340296,3.65111562 L14.4340296,2.2515213 C14.4340296,0.976483266 13.4211778,0 12.1461397,0 L6.74244103,0 C5.467403,0 4.45431353,0.976483266 4.45431353,2.2515213 L4.45431353,3.65111562 L5.42794436,3.65111562 L5.42794436,2.2515213 Z" id="Path"></path>
                <path d="M3.68772183,25.0456389 L15.2008589,25.0456389 C16.3109312,25.0456389 17.1723663,24.053341 17.1723663,22.8194905 L17.1723663,7.54563895 L1.71597682,7.54563895 L1.71597682,22.8194905 C1.71597682,24.053341 2.57741191,25.0456389 3.68772183,25.0456389 Z M12.5476198,9.90778146 C12.5476198,9.6345855 12.7655933,9.41308182 13.0344352,9.41308182 C13.3032772,9.41308182 13.5212506,9.6345855 13.5212506,9.90778146 L13.5212506,21.5950606 C13.5212506,21.8682566 13.3032772,22.0897603 13.0344352,22.0897603 C12.7655933,22.0897603 12.5476198,21.8682566 12.5476198,21.5950606 L12.5476198,9.90778146 Z M8.95735613,9.90778146 C8.95735613,9.6345855 9.17532961,9.41308182 9.44417154,9.41308182 C9.71301347,9.41308182 9.93098696,9.6345855 9.93098696,9.90778146 L9.93098696,21.5950606 C9.93098696,21.8682566 9.71301347,22.0897603 9.44417154,22.0897603 C9.17532961,22.0897603 8.95735613,21.8682566 8.95735613,21.5950606 L8.95735613,9.90778146 Z M5.36709243,9.90778146 C5.36709243,9.6345855 5.58506592,9.41308182 5.85390785,9.41308182 C6.12274978,9.41308182 6.34072327,9.6345855 6.34072327,9.90778146 L6.34072327,21.5950606 C6.34072327,21.8682566 6.12274978,22.0897603 5.85390785,22.0897603 C5.58506592,22.0897603 5.36709243,21.8682566 5.36709243,21.5950606 L5.36709243,9.90778146 Z" id="Shape"></path>
                <path d="M1.20812464,6.57200811 L17.5418754,6.57200811 C18.2091754,6.57200811 18.75,6.0271932 18.75,5.35496957 C18.75,4.68274594 18.2091754,4.13793103 17.5418754,4.13793103 L1.20812464,4.13793103 C0.540824544,4.13793103 0,4.68274594 0,5.35496957 C0,6.0271932 0.540824544,6.57200811 1.20812464,6.57200811 Z" id="Path"></path>
            </g>
        </g>
    </g>
</svg>