<?xml version="1.0" encoding="UTF-8"?>
<svg width="28px" height="28px" viewBox="0 0 28 28" version="1.1" xmlns="http://www.w3.org/2000/svg" xmlns:xlink="http://www.w3.org/1999/xlink">
    <title>01.Basics/02.Icon/Virtual/Football@1,5x</title>
    <defs>
        <filter id="filter-1">
            <feColorMatrix in="SourceGraphic" type="matrix" values="0 0 0 0 0.200000 0 0 0 0 0.200000 0 0 0 0 0.200000 0 0 0 1.000000 0"></feColorMatrix>
        </filter>
        <filter id="filter-2">
            <feColorMatrix in="SourceGraphic" type="matrix" values="0 0 0 0 0.200000 0 0 0 0 0.200000 0 0 0 0 0.200000 0 0 0 1.000000 0"></feColorMatrix>
        </filter>
    </defs>
    <g id="Symbols" stroke="none" stroke-width="1" fill="none" fill-rule="evenodd">
        <g id="01.Basics/02.Icon/Virtual/Football" filter="url(#filter-1)">
            <g>
                <rect id="Rectangle" fill="#FFFFFF" opacity="0" x="0" y="0" width="28" height="28"></rect>
                <g filter="url(#filter-2)">
                    <g transform="translate(4.000000, 2.000000)">
                        <path d="M4.19693281,17.8341014 C4.36698606,17.9585253 4.57955263,17.9170507 4.70709256,17.7511521 C4.8346325,17.5852535 4.79211919,17.3778802 4.62206594,17.2534562 C3.85682631,16.7142857 3.21912662,16.0921659 2.66645355,15.4285714 L3.00656006,15.3870968 C3.43169318,15.8847926 3.98436625,16.2995392 4.53703931,16.5483871 C4.57955263,16.5898618 4.62206594,16.5898618 4.66457925,16.6313364 C4.66457925,16.6313364 4.66457925,16.6313364 4.70709256,16.6313364 C4.74960588,16.6313364 4.79211919,16.6728111 4.8346325,16.6728111 L4.87714582,16.7142857 L4.96217244,16.7557604 L5.08971238,16.797235 C5.13222569,16.797235 5.174739,16.8387097 5.21725232,16.8387097 L5.25976563,16.8387097 C5.42981888,16.921659 5.59987213,16.9631336 5.76992538,17.0046083 L6.02500526,17.0875576 C6.11003188,17.1290323 6.1525452,17.1290323 6.23757182,17.1290323 C6.23757182,17.1290323 6.28008514,17.1290323 6.28008514,17.1290323 C6.40762507,17.0875576 6.74773158,16.797235 7.1728647,16.4239631 C7.47045789,16.0921659 7.76805108,15.7603687 8.02313096,15.3870968 L8.06564427,15.3041475 L8.06564427,15.3041475 L8.10815758,15.2211982 L8.10815758,15.2211982 L8.1506709,15.1797235 C8.1506709,15.1797235 8.1506709,15.1797235 8.1506709,15.1797235 L8.19318421,15.1382488 L8.19318421,15.1382488 L8.23569752,15.0967742 L8.23569752,15.0967742 L8.27821083,15.0552995 C8.27821083,15.0552995 8.36323746,14.9308756 8.36323746,14.9308756 L8.36323746,14.8894009 C7.89559102,14.3917051 7.59799783,13.8940092 7.21537802,13.3548387 C7.1728647,13.3133641 7.1728647,13.2718894 7.13035139,13.2304147 L7.08783808,13.1889401 C7.08783808,13.1474654 7.04532477,13.1474654 7.04532477,13.1059908 L6.96029814,12.9815668 C6.74773158,12.6497696 6.57767832,12.359447 6.4926517,12.1935484 C6.45013839,12.1105991 6.40762507,12.0276498 6.36511176,11.9447005 C6.36511176,11.9447005 6.36511176,11.9447005 6.36511176,11.9032258 L6.36511176,11.9032258 C6.36511176,11.9032258 6.36511176,11.8617512 6.36511176,11.8617512 C6.53516501,11.4470046 7.25789133,9.78801843 8.02313096,8.5437788 L12.0618957,8.29493088 L12.1469223,8.37788018 L12.1469223,8.37788018 L12.1469223,8.41935484 L12.1469223,8.41935484 L12.1894356,8.46082949 L12.1894356,8.46082949 L12.2319489,8.50230415 L12.2319489,8.50230415 L12.2744622,8.5437788 L12.2744622,8.58525346 L12.3169755,8.62672811 L12.3169755,8.66820276 L12.3594889,8.70967742 L12.3594889,8.75115207 L12.4020022,8.79262673 L12.4020022,8.83410138 L12.4445155,8.87557604 L12.4445155,8.91705069 L12.4870288,8.95852535 L12.4870288,8.95852535 C12.4870288,9 12.5295421,9 12.5295421,9.04147465 L12.5295421,9.04147465 C12.657082,9.20737327 12.8271353,9.41474654 12.9971885,9.62211982 L13.0822152,9.74654378 L13.0822152,9.74654378 L13.1672418,9.87096774 L13.1672418,9.87096774 L13.2522684,9.99539171 L13.2522684,9.99539171 C13.2947817,10.0368664 13.2947817,10.078341 13.337295,10.1198157 L13.337295,10.1612903 C13.3798084,10.202765 13.3798084,10.2442396 13.4223217,10.2857143 C13.4223217,10.2857143 13.4223217,10.2857143 13.4223217,10.2857143 C13.464835,10.3271889 13.464835,10.3686636 13.5073483,10.4101382 L13.5073483,10.4101382 C13.5498616,10.4516129 13.5498616,10.4930876 13.5923749,10.5345622 C13.7624282,10.8248848 13.9324814,11.156682 14.1025347,11.4884793 C13.8899681,12.1520737 13.5073483,12.8571429 13.1672418,13.4792627 L13.1672418,13.4792627 C13.1247285,13.5207373 13.1247285,13.562212 13.0822152,13.6036866 C13.0397019,13.6451613 13.0822152,13.6866359 13.0822152,13.7281106 C12.8696486,14.0599078 12.6995954,14.3502304 12.5720554,14.5576037 L12.4445155,14.7235023 C12.4020022,14.764977 12.3594889,14.8479263 12.3169755,14.9308756 C12.3169755,14.9308756 12.3169755,14.9308756 12.3169755,14.9723502 C12.3169755,14.9723502 12.3169755,14.9723502 12.3169755,14.9723502 C12.3594889,15.0552995 12.4020022,15.1382488 12.4870288,15.1797235 C12.5295421,15.2626728 12.6145687,15.3456221 12.657082,15.3870968 L12.7421087,15.4700461 C12.784622,15.5115207 12.784622,15.5115207 12.8271353,15.5529954 L12.9121619,15.6359447 L12.9971885,15.718894 L12.9971885,15.718894 L13.0822152,15.8018433 L13.0822152,15.8018433 L13.1672418,15.8847926 L13.1672418,15.8847926 C13.1672418,15.9262673 13.2097551,15.9262673 13.2097551,15.9262673 L13.2097551,15.9262673 L13.2522684,15.9677419 L13.2522684,15.9677419 L13.2947817,16.0092166 L13.337295,16.0506912 L13.3798084,16.0921659 L13.464835,16.1751152 C13.5073483,16.2165899 13.5073483,16.2165899 13.5498616,16.2165899 L13.5923749,16.2580645 L13.6348882,16.2995392 L13.6774016,16.3410138 L13.7199149,16.3824885 L13.7199149,16.3824885 L13.7624282,16.4239631 L13.7624282,16.4239631 L13.8049415,16.4654378 L13.8049415,16.4654378 L13.8474548,16.5069124 L13.8474548,16.5069124 L13.9324814,16.5898618 L13.9749947,16.6313364 L13.9749947,16.6313364 C13.9749947,16.6313364 14.0175081,16.6728111 14.0175081,16.6728111 C14.0600214,16.7142857 14.1025347,16.7557604 14.1875613,16.797235 C14.1875613,16.797235 14.1875613,16.797235 14.1875613,16.797235 C14.1875613,16.797235 14.1875613,16.797235 14.1875613,16.797235 C14.5276678,16.7142857 14.825261,16.6313364 15.1653675,16.4654378 C15.4629607,16.3410138 15.7180406,16.1751152 15.9731204,15.9677419 C16.0156338,15.9677419 16.0156338,15.9262673 16.0581471,15.9262673 L16.0581471,15.9262673 C16.1006604,15.8847926 16.1431737,15.8847926 16.185687,15.843318 L16.2282003,15.843318 C16.2707136,15.8018433 16.2707136,15.8018433 16.3132269,15.7603687 C16.3557403,15.718894 16.3557403,15.718894 16.3557403,15.718894 L16.3982536,15.6774194 L16.4832802,15.59447 L16.5683068,15.5115207 L16.6108201,15.4700461 C16.6108201,15.4700461 16.6533334,15.4285714 16.6533334,15.4285714 L16.6958468,15.3870968 C16.6958468,15.3870968 16.7383601,15.3456221 16.7383601,15.3456221 L16.7808734,15.3041475 C16.7808734,15.2626728 16.8233867,15.2626728 16.8233867,15.2211982 L16.8233867,15.2211982 L16.9084133,15.1382488 L16.9084133,15.1382488 L16.9509266,15.0967742 L16.9509266,15.0552995 L16.9934399,15.0138249 L16.9934399,14.9723502 L17.0359533,14.9308756 L17.0359533,14.9308756 C17.0359533,14.9308756 17.0784666,14.8894009 17.0784666,14.8894009 L17.0784666,14.8894009 C17.0784666,14.8894009 17.1209799,14.8479263 17.1209799,14.8479263 L17.1209799,14.8479263 L17.1209799,14.8064516 L17.1209799,14.8064516 C17.1209799,14.8064516 17.1209799,14.8064516 17.1209799,14.764977 L17.1209799,14.764977 L17.1209799,14.764977 L17.1209799,14.764977 L17.8437062,14.764977 C17.2060065,15.7603687 16.3982536,16.6313364 15.3779341,17.3364055 C15.2078808,17.4608295 15.1653675,17.6682028 15.2929074,17.8341014 C15.3779341,17.9170507 15.4629607,18 15.5905006,18 C15.6755272,18 15.7180406,17.9585253 15.8030672,17.9170507 C19.3741855,15.4285714 20.8621514,10.9907834 19.5017254,6.88479263 C18.353866,2.73732719 14.4851545,0 10.1062833,0 C5.68489876,0 1.8161873,2.73732719 0.498274604,6.80184332 C-0.862151403,10.9078341 0.625814542,15.3456221 4.19693281,17.8341014 Z M6.62019164,10.6589862 C6.36511176,11.1981567 6.1525452,11.6543779 6.11003188,11.7788018 L6.02500526,11.7788018 C5.68489876,11.8202765 5.21725232,11.8617512 4.79211919,11.8617512 L4.66457925,11.8617512 L4.66457925,11.8617512 L4.53703931,11.8617512 L4.494526,11.8617512 L4.36698606,11.8617512 L4.32447275,11.8617512 L4.23944612,11.8617512 L4.1544195,11.8617512 C3.814313,11.8617512 3.51671981,11.8617512 3.26163993,11.8617512 L3.00656006,11.8617512 L2.96404674,11.8617512 C2.45388699,11.3225806 2.07126718,10.6175115 1.77367399,9.87096774 C1.68864736,9.62211982 1.60362074,9.37327189 1.51859411,9.12442396 C1.4760808,9.04147465 1.4760808,8.95852535 1.4760808,8.91705069 C1.4760808,8.87557604 1.4760808,8.87557604 1.4760808,8.87557604 C1.64613405,8.0875576 1.90121392,7.38248848 2.32634705,6.67741935 C2.32634705,6.6359447 2.36886036,6.55299539 2.41137368,6.55299539 C2.45388699,6.55299539 2.45388699,6.47004608 2.45388699,6.42857143 C2.66645355,6.09677419 2.8365068,5.84792627 2.96404674,5.68202765 C3.04907337,5.59907834 3.09158668,5.51612903 3.13409999,5.47465438 L3.17661331,5.43317972 L3.17661331,5.43317972 C3.814313,5.30875576 4.45201269,5.22580645 5.13222569,5.22580645 C5.25976563,5.22580645 5.38730557,5.22580645 5.51484551,5.22580645 C5.8124387,5.22580645 6.06751857,5.22580645 6.23757182,5.22580645 L6.45013839,5.22580645 C6.45013839,5.26728111 6.45013839,5.30875576 6.45013839,5.35023041 L6.45013839,5.35023041 C6.45013839,5.39170507 6.45013839,5.43317972 6.45013839,5.47465438 C6.45013839,5.47465438 6.45013839,5.47465438 6.45013839,5.47465438 C6.45013839,5.51612903 6.45013839,5.55760369 6.4926517,5.59907834 C6.4926517,5.59907834 6.4926517,5.59907834 6.4926517,5.59907834 C6.4926517,5.640553 6.4926517,5.68202765 6.53516501,5.7235023 C6.53516501,5.7235023 6.53516501,5.7235023 6.53516501,5.76497696 C6.53516501,5.80645161 6.53516501,5.84792627 6.57767832,5.84792627 C6.57767832,5.84792627 6.57767832,5.88940092 6.57767832,5.88940092 C6.57767832,5.93087558 6.57767832,5.93087558 6.62019164,5.97235023 C6.66270495,6.01382488 6.62019164,6.01382488 6.66270495,6.05529954 L6.70521826,6.13824885 C6.70521826,6.1797235 6.74773158,6.22119816 6.74773158,6.26267281 C6.74773158,6.30414747 6.79024489,6.34562212 6.79024489,6.34562212 C6.79024489,6.34562212 6.79024489,6.38709677 6.79024489,6.38709677 L6.8327582,6.47004608 C6.8327582,6.47004608 6.8327582,6.51152074 6.8327582,6.51152074 C6.8327582,6.51152074 6.8327582,6.55299539 6.87527151,6.55299539 L6.87527151,6.59447005 C6.87527151,6.59447005 6.87527151,6.6359447 6.91778483,6.6359447 L6.91778483,6.67741935 L6.96029814,6.71889401 L6.96029814,6.76036866 C6.96029814,6.80184332 6.96029814,6.80184332 7.00281145,6.84331797 C7.00281145,6.88479263 7.00281145,6.88479263 7.00281145,6.88479263 C7.00281145,6.92626728 7.04532477,6.92626728 7.04532477,6.96774194 L7.04532477,6.96774194 L7.08783808,7.05069124 L7.08783808,7.0921659 L7.13035139,7.17511521 L7.13035139,7.21658986 L7.1728647,7.25806452 C7.1728647,7.25806452 7.1728647,7.29953917 7.1728647,7.29953917 C7.1728647,7.29953917 7.1728647,7.34101382 7.21537802,7.34101382 C7.25789133,7.34101382 7.21537802,7.38248848 7.21537802,7.38248848 C7.21537802,7.38248848 7.21537802,7.42396313 7.25789133,7.42396313 L7.25789133,7.46543779 L7.30040464,7.50691244 L7.30040464,7.5483871 L7.34291795,7.63133641 L7.34291795,7.63133641 L7.38543127,7.71428571 L7.38543127,7.71428571 L7.42794458,7.75576037 L7.42794458,7.79723502 C7.42794458,7.79723502 7.42794458,7.83870968 7.47045789,7.83870968 L7.47045789,7.88018433 C7.47045789,7.88018433 7.47045789,7.92165899 7.51297121,7.92165899 C7.55548452,7.92165899 7.51297121,7.92165899 7.51297121,7.96313364 L7.55548452,8.00460829 L7.55548452,8.04608295 L7.59799783,8.0875576 L7.59799783,8.12903226 L7.64051114,8.17050691 C7.64051114,8.17050691 7.64051114,8.17050691 7.64051114,8.17050691 L7.68302446,8.21198157 C7.68302446,8.21198157 7.68302446,8.21198157 7.68302446,8.25345622 C7.68302446,8.25345622 7.68302446,8.25345622 7.68302446,8.29493088 L7.68302446,8.33640553 L7.68302446,8.37788018 L7.68302446,8.41935484 L7.68302446,8.41935484 C7.68302446,8.41935484 7.68302446,8.41935484 7.68302446,8.46082949 L7.68302446,8.46082949 C7.68302446,8.46082949 7.68302446,8.46082949 7.68302446,8.50230415 L7.68302446,8.50230415 L7.72553777,8.5437788 C7.38543127,9.16589862 6.96029814,9.99539171 6.62019164,10.6589862 Z M11.1266028,3.48387097 L11.1266028,3.48387097 L10.9990628,3.44239631 L10.9565495,3.44239631 L10.8715229,3.40092166 L10.743983,3.359447 L10.616443,3.31797235 L10.5739297,3.31797235 L10.4889031,3.23502304 L10.4463898,3.23502304 L10.3613632,3.19354839 L10.3188498,3.19354839 L10.2338232,3.19354839 L10.2338232,3.19354839 L10.1062833,3.11059908 L10.06377,3.11059908 L9.97874334,3.06912442 L9.93623003,3.06912442 L9.85120341,3.02764977 L9.85120341,3.02764977 L9.76617678,2.98617512 L9.76617678,2.98617512 L9.72366347,2.98617512 L9.72366347,2.98617512 L9.68115015,2.98617512 L9.68115015,2.98617512 L9.63863684,2.98617512 L9.63863684,2.98617512 L9.59612353,2.98617512 L9.59612353,2.98617512 L9.59612353,2.98617512 L9.59612353,2.61290323 C9.59612353,2.15668203 9.59612353,1.32718894 9.59612353,1.32718894 L9.63863684,1.32718894 L9.68115015,1.32718894 L9.72366347,1.32718894 L9.76617678,1.32718894 L9.80869009,1.32718894 L9.85120341,1.32718894 L9.89371672,1.32718894 L9.93623003,1.32718894 L9.97874334,1.32718894 L10.0212567,1.32718894 L10.06377,1.32718894 L10.1487966,1.32718894 L10.1913099,1.32718894 L10.2763365,1.32718894 C10.7014697,1.24423963 11.2116294,1.20276498 11.5942492,1.16129032 C11.6792759,1.16129032 12.0193824,1.11981567 12.2319489,1.07834101 C13.5073483,1.36866359 14.6977211,1.9078341 15.7180406,2.65437788 C15.7605539,2.86175115 15.8455805,3.11059908 15.8455805,3.15207373 C15.8455805,3.15207373 15.8455805,3.15207373 15.8455805,3.15207373 C15.8455805,3.15207373 15.8455805,3.19354839 15.8455805,3.23502304 L15.8455805,3.23502304 C15.8455805,3.2764977 15.8455805,3.2764977 15.8455805,3.31797235 C15.8455805,3.31797235 15.8455805,3.31797235 15.8455805,3.31797235 L15.8455805,3.40092166 C15.8455805,3.40092166 15.8455805,3.40092166 15.8455805,3.44239631 C15.8455805,3.48387097 15.8455805,3.48387097 15.8455805,3.52534562 C15.8455805,3.52534562 15.8455805,3.52534562 15.8455805,3.56682028 C15.8455805,3.60829493 15.8455805,3.64976959 15.8455805,3.64976959 L15.8455805,3.64976959 C15.8455805,3.69124424 15.8455805,3.73271889 15.8455805,3.77419355 C15.8455805,3.77419355 15.8455805,3.77419355 15.8455805,3.77419355 C15.8455805,3.8156682 15.8455805,3.85714286 15.8455805,3.89861751 C15.8455805,3.89861751 15.8455805,3.89861751 15.8455805,3.89861751 C15.8455805,3.94009217 15.8455805,3.98156682 15.8455805,4.02304147 L15.8455805,4.06451613 C15.8455805,4.10599078 15.8455805,4.14746544 15.8455805,4.18894009 C15.8455805,4.18894009 15.8455805,4.18894009 15.8455805,4.23041475 C15.8455805,4.2718894 15.8455805,4.31336406 15.8455805,4.35483871 C15.8455805,4.35483871 15.8455805,4.35483871 15.8455805,4.35483871 C15.8455805,4.39631336 15.8455805,4.43778802 15.8455805,4.47926267 C15.8455805,4.52073733 15.8455805,4.60368664 15.8455805,4.64516129 C15.8455805,4.68663594 15.8455805,4.76958525 15.8455805,4.81105991 C15.505474,4.7281106 15.1228542,4.68663594 14.7402344,4.68663594 L14.7402344,4.68663594 C14.6552077,4.68663594 14.6126944,4.68663594 14.5276678,4.68663594 L14.4851545,4.68663594 L14.3151012,4.68663594 L13.9324814,4.68663594 L13.8474548,4.68663594 L13.8049415,4.68663594 L13.7199149,4.68663594 L13.6774016,4.68663594 L13.5923749,4.68663594 L13.5498616,4.68663594 L13.464835,4.68663594 L13.3798084,4.68663594 L13.3798084,4.68663594 L13.2947817,4.68663594 L13.2522684,4.68663594 L13.2097551,4.68663594 L13.1672418,4.68663594 L13.1247285,4.68663594 L13.1247285,4.68663594 L13.0822152,4.68663594 L13.0822152,4.68663594 L13.0397019,4.68663594 L13.0397019,4.68663594 L13.0822152,4.68663594 L13.0397019,4.68663594 L13.0397019,4.68663594 L12.9971885,4.68663594 C12.4020022,4.10599078 11.8068158,3.77419355 11.1266028,3.48387097 Z M17.1634932,11.1981567 L17.1634932,11.1981567 L17.1209799,11.1981567 L17.1209799,11.1981567 L17.0359533,11.1981567 L17.0359533,11.1981567 L16.9509266,11.1981567 L16.9509266,11.1981567 L16.8659,11.1981567 L16.8233867,11.1981567 L16.7383601,11.1981567 L16.6958468,11.1981567 L16.6533334,11.1981567 L16.6108201,11.1981567 L16.5683068,11.1981567 L16.4407669,11.1981567 C15.9731204,11.2396313 15.4204474,11.2396313 14.9953142,11.281106 L14.4851545,11.281106 L14.3576146,11.281106 L14.3576146,11.281106 C14.0175081,10.5760369 13.6348882,9.9124424 13.1672418,9.29032258 L13.1672418,9.29032258 L13.0822152,9.24884793 C13.0822152,9.24884793 13.0822152,9.24884793 13.0822152,9.24884793 C13.0397019,9.20737327 13.0397019,9.16589862 12.9971885,9.16589862 L12.9971885,9.16589862 C12.8696486,9 12.7421087,8.87557604 12.657082,8.75115207 L12.657082,8.75115207 L12.6145687,8.70967742 L12.6145687,8.66820276 L12.5720554,8.62672811 L12.5720554,8.58525346 L12.5295421,8.5437788 L12.5295421,8.50230415 L12.4870288,8.46082949 C12.4870288,8.46082949 12.4870288,8.46082949 12.4870288,8.41935484 L12.4445155,8.37788018 L12.4445155,8.37788018 L12.3594889,8.29493088 L12.3594889,8.29493088 L12.3169755,8.25345622 L12.3169755,8.25345622 L12.3169755,8.21198157 L12.3169755,8.21198157 L12.3169755,8.21198157 L12.3169755,8.21198157 L12.3169755,8.21198157 C12.4870288,7.79723502 12.6145687,7.34101382 12.7421087,6.88479263 C12.7421087,6.84331797 12.784622,6.80184332 12.784622,6.76036866 L12.784622,6.76036866 C12.784622,6.71889401 12.8271353,6.67741935 12.8271353,6.6359447 C12.8271353,6.6359447 12.8271353,6.6359447 12.8271353,6.6359447 C12.8271353,6.59447005 12.8271353,6.55299539 12.8696486,6.51152074 L12.8696486,6.47004608 C12.8696486,6.42857143 12.8696486,6.38709677 12.9121619,6.38709677 L12.9121619,6.30414747 C12.9121619,6.30414747 12.9121619,6.26267281 12.9121619,6.26267281 C12.9121619,6.22119816 12.9546752,6.1797235 12.9546752,6.13824885 C12.9546752,6.09677419 12.9546752,6.05529954 12.9971885,6.01382488 L12.9971885,5.97235023 C12.9971885,5.93087558 12.9971885,5.93087558 12.9971885,5.88940092 L12.9971885,5.84792627 C12.9971885,5.80645161 12.9971885,5.80645161 12.9971885,5.76497696 L12.9971885,5.7235023 C12.9971885,5.640553 13.0397019,5.55760369 13.0397019,5.51612903 C13.0397019,5.51612903 13.0397019,5.51612903 13.0397019,5.51612903 C13.0397019,5.47465438 13.0397019,5.47465438 13.0397019,5.43317972 C13.0397019,5.43317972 13.0397019,5.43317972 13.0397019,5.43317972 C13.0397019,5.39170507 13.0397019,5.39170507 13.0397019,5.35023041 L13.0397019,5.35023041 C13.0397019,5.26728111 13.0822152,5.22580645 13.0822152,5.1843318 C13.0822152,5.1843318 13.0822152,5.1843318 13.0822152,5.1843318 C13.0822152,5.14285714 13.0822152,5.14285714 13.0822152,5.10138249 C13.0822152,5.10138249 13.0822152,5.10138249 13.0822152,5.10138249 C13.0822152,5.05990783 13.0822152,5.05990783 13.0822152,5.05990783 C13.0822152,5.01843318 13.0822152,4.97695853 13.0822152,4.97695853 L13.0822152,4.97695853 L13.0822152,4.97695853 L13.1247285,4.97695853 L13.1672418,4.97695853 L13.2097551,4.97695853 L13.2522684,4.97695853 L13.337295,4.97695853 L13.337295,4.97695853 L13.3798084,4.97695853 L13.4223217,4.97695853 L13.464835,4.97695853 L13.5073483,4.97695853 L13.5923749,4.97695853 L13.5923749,4.97695853 L13.8049415,4.97695853 L13.8049415,4.97695853 L13.8899681,4.97695853 L13.9324814,4.97695853 L14.0175081,4.97695853 L14.0600214,4.97695853 L14.145048,4.97695853 L14.2725879,4.97695853 L14.4851545,4.97695853 L14.6126944,4.97695853 L14.6977211,4.97695853 C15.1653675,4.97695853 15.5905006,5.05990783 16.0156338,5.14285714 L16.0581471,5.1843318 L16.1006604,5.22580645 L16.1431737,5.26728111 L16.1431737,5.26728111 L16.185687,5.26728111 L16.185687,5.26728111 C16.185687,5.26728111 16.185687,5.26728111 16.2282003,5.30875576 L16.2282003,5.30875576 L16.2707136,5.35023041 L16.2707136,5.35023041 L16.3132269,5.39170507 L16.3132269,5.43317972 C16.3132269,5.43317972 16.3557403,5.47465438 16.3557403,5.47465438 L16.3982536,5.51612903 C16.3982536,5.51612903 16.4407669,5.55760369 16.4407669,5.55760369 L16.4832802,5.59907834 L16.5257935,5.640553 L16.5683068,5.68202765 L16.6108201,5.7235023 L16.6533334,5.76497696 L16.6958468,5.80645161 L16.7383601,5.84792627 L16.7808734,5.88940092 C16.7808734,5.88940092 16.7808734,5.88940092 16.8233867,5.93087558 C16.8659,5.97235023 16.8659,5.97235023 16.9084133,6.01382488 L16.9934399,6.09677419 L17.0359533,6.1797235 L17.0784666,6.22119816 C17.1209799,6.26267281 17.1209799,6.30414747 17.1634932,6.30414747 L17.1634932,6.30414747 C17.2060065,6.34562212 17.2060065,6.38709677 17.2485198,6.42857143 C17.5886263,6.92626728 17.8862195,7.46543779 18.0562728,8.00460829 C18.0562728,8.04608295 18.0987861,8.12903226 18.0987861,8.17050691 C18.0987861,8.17050691 18.0987861,8.17050691 18.0987861,8.17050691 C18.0987861,8.17050691 18.0987861,8.17050691 18.0987861,8.17050691 L18.0987861,8.17050691 C18.0987861,8.17050691 18.0987861,8.17050691 18.0987861,8.21198157 C18.0987861,8.21198157 18.0987861,8.21198157 18.0987861,8.25345622 C18.0987861,8.29493088 18.0987861,8.25345622 18.0987861,8.25345622 L18.0987861,8.29493088 C18.0562728,8.41935484 17.9712461,9.49769585 17.1634932,11.1981567 Z M18.1412994,14.516129 L17.3335464,14.516129 C17.3760598,14.2258065 17.4610864,13.9354839 17.4610864,13.6451613 C17.4610864,13.6451613 17.4610864,13.6451613 17.4610864,13.6451613 C17.4610864,13.562212 17.4610864,13.5207373 17.4610864,13.437788 C17.4610864,13.437788 17.4610864,13.437788 17.4610864,13.3963134 L17.4610864,13.2304147 C17.4610864,13.1889401 17.4610864,13.1889401 17.4610864,13.1474654 C17.4610864,13.1059908 17.4610864,13.0645161 17.4610864,13.0230415 C17.4610864,12.9400922 17.4610864,12.8986175 17.4610864,12.8571429 C17.4610864,12.8156682 17.4610864,12.7327189 17.4610864,12.6912442 C17.4610864,12.6912442 17.4610864,12.6497696 17.4610864,12.6497696 C17.4610864,12.6082949 17.4610864,12.5668203 17.4610864,12.5253456 L17.4610864,12.483871 C17.4610864,12.4423963 17.4610864,12.4009217 17.4610864,12.4009217 C17.4610864,12.4009217 17.4610864,12.359447 17.4610864,12.359447 L17.4610864,12.2764977 C17.4610864,12.2764977 17.4610864,12.235023 17.4610864,12.235023 L17.4610864,12.1520737 C17.4610864,12.1520737 17.4610864,12.1105991 17.4610864,12.1105991 C17.4610864,12.0691244 17.4610864,12.0276498 17.4610864,11.9861751 C17.4610864,11.9861751 17.4610864,11.9861751 17.4610864,11.9861751 C17.4610864,11.9447005 17.4610864,11.9032258 17.4610864,11.8617512 L17.4610864,11.8617512 C17.4610864,11.8202765 17.4610864,11.8202765 17.4610864,11.7788018 L17.4610864,11.7373272 C17.4610864,11.6958525 17.4610864,11.6958525 17.4610864,11.6543779 C17.4610864,11.6129032 17.4610864,11.6543779 17.4610864,11.6129032 C17.4610864,11.6129032 17.4610864,11.5714286 17.4610864,11.5714286 C17.4610864,11.5714286 17.4610864,11.5714286 17.4610864,11.5299539 L17.4610864,11.4884793 C17.4610864,11.4884793 17.4610864,11.4884793 17.4610864,11.4470046 C17.4610864,11.4470046 17.4610864,11.40553 17.4610864,11.40553 C17.4610864,11.40553 17.4610864,11.40553 17.4610864,11.3640553 C17.4610864,11.3640553 17.4610864,11.3640553 17.4610864,11.3640553 C17.4610864,11.3225806 17.4610864,11.3225806 17.4610864,11.281106 C18.2688393,9.53917051 18.353866,8.41935484 18.353866,8.04608295 C18.353866,8.04608295 18.353866,8.00460829 18.353866,8.00460829 L19.3316721,8.00460829 C19.7568053,10.2857143 19.3316721,12.5668203 18.1412994,14.516129 Z M7.42794458,1.07834101 C7.89559102,1.11981567 8.32072415,1.16129032 8.66083065,1.24423963 C8.87339721,1.28571429 9.08596378,1.28571429 9.21350371,1.32718894 L9.25601703,1.32718894 L9.25601703,1.32718894 L9.29853034,1.32718894 L9.29853034,2.94470046 C8.57580402,3.2764977 7.85307771,3.73271889 7.25789133,4.2718894 C7.08783808,4.43778802 6.91778483,4.56221198 6.8327582,4.68663594 L6.79024489,4.7281106 L6.79024489,4.7281106 L6.74773158,4.76958525 L6.74773158,4.76958525 C6.74773158,4.76958525 6.70521826,4.81105991 6.70521826,4.81105991 C6.70521826,4.81105991 6.70521826,4.81105991 6.70521826,4.81105991 L6.66270495,4.85253456 L6.66270495,4.85253456 L6.62019164,4.89400922 L6.62019164,4.89400922 L6.57767832,4.93548387 C6.57767832,4.93548387 6.57767832,4.93548387 6.57767832,4.93548387 L6.53516501,4.97695853 L6.53516501,4.97695853 L6.53516501,4.97695853 L6.53516501,4.97695853 C6.40762507,4.97695853 6.06751857,4.93548387 5.59987213,4.93548387 L5.47233219,4.93548387 C4.74960588,4.93548387 4.02687956,5.01843318 3.30415324,5.14285714 L3.21912662,3.64976959 C4.32447275,2.40552995 5.8124387,1.53456221 7.42794458,1.07834101 Z M0.753354481,9 L1.30602755,8.95852535 C1.39105417,9.29032258 1.4760808,9.66359447 1.60362074,9.99539171 C1.85870061,10.7419355 2.28383374,11.4884793 2.79399349,12.1105991 C2.75148018,12.483871 2.70896687,12.8156682 2.70896687,13.1474654 C2.70896687,13.1889401 2.70896687,13.2718894 2.70896687,13.3133641 C2.70896687,13.3133641 2.70896687,13.3548387 2.70896687,13.3548387 C2.70896687,13.3963134 2.70896687,13.437788 2.70896687,13.4792627 C2.70896687,13.5207373 2.70896687,13.6036866 2.70896687,13.6451613 C2.70896687,13.6866359 2.70896687,13.7281106 2.70896687,13.7695853 C2.70896687,13.7695853 2.70896687,13.8110599 2.70896687,13.8110599 C2.70896687,13.8525346 2.70896687,13.8940092 2.70896687,13.9354839 C2.70896687,13.9354839 2.70896687,13.9354839 2.70896687,13.9354839 C2.70896687,13.9769585 2.70896687,14.0184332 2.70896687,14.0599078 C2.70896687,14.0599078 2.70896687,14.1013825 2.70896687,14.1013825 C2.70896687,14.1428571 2.70896687,14.1843318 2.70896687,14.1843318 C2.70896687,14.1843318 2.70896687,14.1843318 2.70896687,14.2258065 C2.70896687,14.2672811 2.70896687,14.3087558 2.70896687,14.3502304 C2.70896687,14.3502304 2.70896687,14.3502304 2.70896687,14.3917051 C2.70896687,14.4331797 2.70896687,14.4331797 2.70896687,14.4746544 L2.70896687,14.4331797 C2.70896687,14.4746544 2.70896687,14.516129 2.70896687,14.516129 C2.70896687,14.516129 2.70896687,14.516129 2.70896687,14.5576037 L2.70896687,14.640553 C2.70896687,14.640553 2.70896687,14.640553 2.70896687,14.6820276 C2.70896687,14.7235023 2.70896687,14.7235023 2.70896687,14.764977 L2.70896687,14.764977 C2.70896687,14.8064516 2.70896687,14.8064516 2.70896687,14.8479263 C2.70896687,14.8479263 2.70896687,14.8479263 2.70896687,14.8479263 L2.70896687,14.9308756 C2.70896687,14.9723502 2.70896687,14.9723502 2.70896687,15.0138249 C2.70896687,15.0138249 2.70896687,15.0138249 2.70896687,15.0138249 L2.70896687,15.0552995 C2.70896687,15.0552995 2.70896687,15.0967742 2.70896687,15.0967742 C2.70896687,15.0967742 2.70896687,15.0967742 2.70896687,15.0967742 C2.70896687,15.1382488 2.70896687,15.1797235 2.75148018,15.1797235 L2.53891362,15.2626728 C1.17848761,13.437788 0.540787917,11.2396313 0.753354481,9 Z" id="Shape" fill="#000000" fill-rule="nonzero"></path>
                        <path d="M15.9289121,18.6537266 C16.0147228,18.573425 16.0147228,18.4931233 15.9718174,18.4128216 C15.9289121,18.3325199 15.8860067,18.2522182 15.7572906,18.2522182 L12.5822933,17.810559 L11.1664162,15.1204525 C11.1235108,15.0401508 11.0377001,15 10.9518893,15 C10.8660786,15 10.7802679,15.0401508 10.7373625,15.1204525 L9.32148534,17.810559 L6.23229883,18.2923691 C6.14648809,18.2923691 6.06067735,18.3726707 6.01777199,18.4529724 C5.97486662,18.5332741 6.01777199,18.6135758 6.06067735,18.6938775 L8.33466187,20.7817213 L7.81979745,23.7127327 C7.81979745,23.7930344 7.86270282,23.8733361 7.90560819,23.9536378 C7.94851356,24.0339395 8.07722966,23.9937886 8.1630404,23.9536378 L10.9947947,22.5483583 L13.826549,23.9536378 C13.9123597,23.9937886 13.9981705,23.9937886 14.0839812,23.9536378 C14.169792,23.913487 14.2126973,23.8331853 14.169792,23.7127327 L13.6120222,20.7415704 L15.9289121,18.6537266 Z" id="Path" fill="#000000" fill-rule="nonzero"></path>
                        <path d="M20.9816968,21.2782324 C20.9816968,21.2389525 20.8933208,21.1996727 20.8491329,21.1603928 L18.6397352,20.8854337 L17.6234122,19.0785597 L17.6234122,19.0785597 C17.5792243,19.0392799 17.5350363,19 17.4908484,19 C17.4466604,19 17.3582845,19.0392799 17.3582845,19.0785597 L16.3419616,20.8854337 L14.1325639,21.1603928 C14.0883759,21.1603928 14,21.1996727 14,21.2782324 C14,21.3175123 14,21.396072 14.044188,21.4353519 L15.6349543,22.8494272 L15.2372627,24.8134206 C15.2372627,24.8527005 15.2372627,24.9312602 15.3256386,24.9705401 C15.3698266,25.00982 15.4582025,25.00982 15.5023904,24.9705401 L17.4908484,24.0278232 L19.4793063,24.9705401 C19.5234943,25.00982 19.6118702,25.00982 19.6560581,24.9705401 C19.7002461,24.9312602 19.744434,24.8919804 19.744434,24.8134206 L19.3467424,22.8494272 L20.9375088,21.4353519 C20.9816968,21.396072 21.0258847,21.3567921 20.9816968,21.2782324 Z" id="Path" fill="#000000" fill-rule="nonzero"></path>
                        <path d="M6.86708861,21.1603928 L4.65189873,20.8854337 L3.63291139,19.0785597 L3.63291139,19.0785597 C3.58860759,19.0392799 3.5443038,19 3.5,19 C3.4556962,19 3.36708861,19.0392799 3.36708861,19.0785597 L2.34810127,20.8854337 L0.132911392,21.1603928 C0.0886075949,21.1603928 0,21.1996727 0,21.2782324 C0,21.3175123 0,21.396072 0.0443037975,21.4353519 L1.63924051,22.8494272 L1.24050633,24.8134206 C1.24050633,24.8527005 1.24050633,24.9312602 1.32911392,24.9705401 C1.37341772,25.00982 1.46202532,25.00982 1.50632911,24.9705401 L3.5,24.0278232 L5.49367089,24.9705401 C5.53797468,25.00982 5.62658228,25.00982 5.67088608,24.9705401 C5.71518987,24.9312602 5.75949367,24.8919804 5.75949367,24.8134206 L5.36075949,22.8494272 L6.9556962,21.4353519 C7,21.396072 7,21.3175123 7,21.2782324 C7,21.2389525 6.9556962,21.1603928 6.86708861,21.1603928 Z" id="Path" fill="#000000" fill-rule="nonzero"></path>
                    </g>
                </g>
            </g>
        </g>
    </g>
</svg>