<?xml version="1.0" encoding="UTF-8"?>
<svg width="28px" height="28px" viewBox="0 0 28 28" version="1.1" xmlns="http://www.w3.org/2000/svg" xmlns:xlink="http://www.w3.org/1999/xlink">
    <title>01.Basics/02.Icon/Virtual/Tennis@1,5x</title>
    <defs>
        <filter id="filter-1">
            <feColorMatrix in="SourceGraphic" type="matrix" values="0 0 0 0 0.200000 0 0 0 0 0.200000 0 0 0 0 0.200000 0 0 0 1.000000 0"></feColorMatrix>
        </filter>
        <filter id="filter-2">
            <feColorMatrix in="SourceGraphic" type="matrix" values="0 0 0 0 0.200000 0 0 0 0 0.200000 0 0 0 0 0.200000 0 0 0 1.000000 0"></feColorMatrix>
        </filter>
    </defs>
    <g id="Symbols" stroke="none" stroke-width="1" fill="none" fill-rule="evenodd">
        <g id="01.Basics/02.Icon/Virtual/Tennis" filter="url(#filter-1)">
            <g>
                <rect id="Rectangle-Copy-3" fill="#FFFFFF" opacity="0" x="0" y="0" width="28" height="28"></rect>
                <g filter="url(#filter-2)">
                    <g transform="translate(0.000000, 3.000000)">
                        <path d="M9.40478469,9.5722488 C9.44286286,9.64496441 9.43421434,9.73333519 9.38276086,9.79728866 C9.33130739,9.86124213 9.24683778,9.8886114 9.1676555,9.86698565 C8.64248804,9.79196172 6.33282297,8.40133971 5.45129187,8.39330144 C4.30717703,8.38392344 3.27157895,8.79521531 1.98679426,8.19502392 C0.0482296651,7.28803828 -0.34430622,5.94966507 0.267942584,4.86181818 C0.825263158,3.85301435 2.1877512,3.75119617 3.72440191,4.6354067 C5.6,5.71789474 5.32133971,6.94373206 6.09167464,7.7261244 C6.67712919,8.31961722 8.82870813,9.17837321 9.40478469,9.5722488 Z M3.62660287,4.82296651 C2.25875598,4.01913876 1.03157895,4.11961722 0.52784689,5.02258373 C-0.016076555,5.99655502 0.596172249,7.21703349 2.07119617,8.00746411 C3.14296651,8.57952153 4.60191388,8.35444976 5.09492823,7.73952153 C5.49282297,7.23444976 5.19674641,5.74736842 3.62660287,4.82296651 Z" id="Shape" fill="#000000" fill-rule="nonzero"></path>
                        <path d="M19.2690909,1.7630622 C19.2690909,1.04984823 18.8393893,0.406887186 18.1804136,0.13407734 C17.5214379,-0.138732506 16.7630084,0.0123533229 16.2588817,0.516863402 C15.754755,1.02137348 15.6042458,1.7799176 15.8775565,2.43868571 C16.1508672,3.09745382 16.7941547,3.52666636 17.5073684,3.52612491 C18.4805576,3.5253849 19.2690909,2.73625162 19.2690909,1.7630622 Z M24.0116746,9.87100478 C24.495311,9.87100478 25.0512919,7.01205742 24.1791388,6.024689 C23.375311,5.12172249 22.7563636,4.8537799 21.4072727,4.51617225 C20.1037321,4.1892823 19.049378,3.82755981 17.5756938,4.0338756 C16.2480383,4.22009569 15.4911005,4.80555024 14.8962679,5.12172249 C14.5345455,5.31196172 12.5383732,7.05894737 10.9307177,8.30086124 C9.88172249,9.104689 9.00956938,9.43425837 8.92114833,9.7169378 C8.83272727,9.99961722 9.78258373,9.88172249 10.8409569,9.46507177 C12.8036364,8.69473684 15.5607656,7.15942584 15.6317703,7.41799043 C15.7657416,7.90832536 15.91311,9.73837321 15.941244,10.0009569 C16.0752153,11.2401914 15.6210526,12.4017225 14.6551196,14.1460287 C14.2639234,14.849378 13.48689,16.5347368 12.6361722,17.8382775 C11.7854545,19.1418182 10.3908134,20.5043062 10.5261244,20.5779904 C10.6614354,20.6516746 11.9502392,20.6717703 13.6422967,19.1043062 C14.8172249,18.0124402 15.5942584,16.9607656 16.5709091,15.2017225 C16.8991388,14.60689 17.4551196,13.3756938 18.3018182,13.3756938 C19.8130144,13.4065072 21.0723445,15.931866 21.1594258,16.5615311 C21.261244,17.3064115 22.3196172,21.3389474 23.0711962,21.3389474 C23.2641148,21.0401914 22.9278469,16.3820096 22.834067,15.6733014 C22.6451675,14.2210526 21.9525359,12.483445 21.5157895,11.3862201 C21.0964593,10.0478469 20.6315789,7.71004785 20.6315789,6.54583732 C20.6315789,6.54583732 22.507177,6.46947368 22.9372249,6.69454545 C23.9098565,7.19827751 23.8214354,9.87100478 24.0116746,9.87100478 L24.0116746,9.87100478 Z" id="Shape" fill="#000000" fill-rule="nonzero"></path>
                        <path d="M27.9356938,12.3025837 C27.9772488,12.1376606 27.951056,11.9629657 27.8629601,11.8174817 C27.7748643,11.6719977 27.6321971,11.5678323 27.4667943,11.5282297 C27.11793,11.4542394 26.7751386,11.6770688 26.7011483,12.025933 C26.627158,12.3747973 26.8499874,12.7175886 27.1988517,12.7915789 C27.3619484,12.8306412 27.5339434,12.8001578 27.6736811,12.7074227 C27.8134188,12.6146877 27.9083263,12.468045 27.9356938,12.3025837 Z" id="Path" fill="#000000" fill-rule="nonzero"></path>
                    </g>
                </g>
            </g>
        </g>
    </g>
</svg>