<?xml version="1.0" encoding="UTF-8"?>
<svg width="28px" height="28px" viewBox="0 0 28 28" version="1.1" xmlns="http://www.w3.org/2000/svg" xmlns:xlink="http://www.w3.org/1999/xlink">
    <title>01.Basics/02.Icon/Virtual/Football League@1,5x</title>
    <defs>
        <filter id="filter-1">
            <feColorMatrix in="SourceGraphic" type="matrix" values="0 0 0 0 0.200000 0 0 0 0 0.200000 0 0 0 0 0.200000 0 0 0 1.000000 0"></feColorMatrix>
        </filter>
        <filter id="filter-2">
            <feColorMatrix in="SourceGraphic" type="matrix" values="0 0 0 0 0.200000 0 0 0 0 0.200000 0 0 0 0 0.200000 0 0 0 1.000000 0"></feColorMatrix>
        </filter>
    </defs>
    <g id="Symbols" stroke="none" stroke-width="1" fill="none" fill-rule="evenodd">
        <g id="01.Basics/02.Icon/Virtual/Football-League" filter="url(#filter-1)">
            <g>
                <rect id="BG" fill="#FFFFFF" opacity="0" x="0" y="0" width="28" height="28"></rect>
                <g filter="url(#filter-2)" id="Group-2">
                    <g transform="translate(4.000000, 1.000000)">
                        <path d="M15.3657008,18.8654402 C15.5272393,18.7419108 15.4464701,18.494852 15.244547,18.4536755 L12.1349316,18.0007343 L10.7618547,15.1595579 C10.6810855,14.994852 10.4387778,14.994852 10.3176239,15.1595579 L8.94454699,18.0007343 L5.83493161,18.4536755 C5.63300853,18.494852 5.5522393,18.7419108 5.71377776,18.8654402 L7.93493161,21.0889696 L7.40993161,24.2183814 C7.36954699,24.4242637 7.57147007,24.5477932 7.77339315,24.4654402 L10.5599316,22.9830873 L13.3464701,24.4654402 C13.5080085,24.5477932 13.7099316,24.4242637 13.7099316,24.2183814 L13.1849316,21.0889696 L15.3657008,18.8654402 Z" id="Path" fill="#000000"></path>
                        <path d="M20.7772393,21.294852 L18.6772393,21.0066167 L17.7483931,19.0713226 C17.7080085,18.9477932 17.5060855,18.9477932 17.4657008,19.0713226 L16.4560855,21.0066167 L14.3560855,21.3360285 C14.2349316,21.3360285 14.1541624,21.5419108 14.2753162,21.6242637 L15.8099316,23.1477932 L15.4464701,25.2889696 C15.4060855,25.412499 15.5676239,25.5360285 15.6887778,25.4536755 L17.5868547,24.4654402 L19.4849316,25.4536755 C19.6060855,25.5360285 19.7272393,25.412499 19.7272393,25.2889696 L19.3637778,23.1477932 L20.8983931,21.6242637 C20.9791624,21.5007343 20.8983931,21.3360285 20.7772393,21.294852 Z" id="Path" fill="#000000"></path>
                        <path d="M6.52147007,21.294852 L4.42147007,21.0066167 L3.49262392,19.0713226 C3.4522393,18.9477932 3.25031623,18.9477932 3.20993161,19.0713226 L2.24070084,21.0066167 L0.140700841,21.3360285 C0.0195469948,21.3360285 -0.061222236,21.5419108 0.0599316101,21.6242637 L1.59454699,23.1477932 L1.19070084,25.2477932 C1.15031623,25.3713226 1.31185469,25.494852 1.43300853,25.412499 L3.33108546,24.4242637 L5.22916238,25.412499 C5.35031623,25.494852 5.47147007,25.3713226 5.47147007,25.2477932 L5.10800853,23.1066167 L6.64262392,21.5830873 C6.72339315,21.5007343 6.68300853,21.3360285 6.52147007,21.294852 Z" id="Path" fill="#000000"></path>
                        <path d="M5.75416238,17.5889696 L8.21762392,17.2183814 L10.1964701,13.1419108 C10.3176239,12.894852 10.6810855,12.894852 10.8022393,13.1419108 L12.7810855,17.2183814 L15.0830085,17.5477932 C16.294547,15.0360285 17.2637778,11.7007343 17.2637778,11.7007343 C18.4349316,7.99485198 18.3137778,4.28896963 18.3137778,4.28896963 C18.394547,-0.281618608 16.1733931,0.00661668645 16.1733931,0.00661668645 C14.5983931,-0.116912725 14.6387778,1.5301461 14.6387778,1.5301461 C14.5580085,2.47720492 15.3657008,4.00073433 15.3657008,4.00073433 C14.7599316,4.24779316 14.9214701,4.65955786 14.9214701,4.65955786 L10.4387778,4.65955786 L5.91570084,4.65955786 C5.91570084,4.65955786 6.0772393,4.24779316 5.47147007,4.00073433 C5.47147007,4.00073433 6.31954699,2.47720492 6.19839315,1.5301461 C6.19839315,1.5301461 6.23877776,-0.0757362547 4.66377776,0.00661668645 C4.66377776,0.00661668645 2.44262392,-0.281618608 2.48300853,4.28896963 C2.48300853,4.28896963 2.36185469,7.99485198 3.53300853,11.7007343 C3.57339315,11.7007343 4.54262392,15.0772049 5.75416238,17.5889696 Z M14.0330085,5.64779316 C14.0330085,5.64779316 14.2349316,5.23602845 14.7599316,4.94779316 L15.0426239,4.90661669 C15.0426239,4.90661669 15.769547,5.35955786 15.9310855,4.28896963 C15.9310855,4.28896963 15.9310855,3.87720492 15.8099316,3.6301461 C15.8099316,3.6301461 15.2041624,2.31249904 15.2849316,1.61249904 C15.2849316,1.61249904 15.244547,0.541910804 16.0926239,0.500734334 C16.0926239,0.500734334 17.5464701,0.212499039 17.6272393,4.24779316 C17.6272393,4.24779316 17.7080085,7.50073433 17.0214701,9.9301461 C17.0214701,9.9301461 15.9714701,14.0066167 15.1233931,15.8183814 C15.1233931,15.8183814 16.6983931,11.7007343 16.2137778,8.20073433 C16.2137778,8.20073433 14.6791624,7.33602845 13.9926239,6.22426375 L13.9926239,5.64779316 L14.0330085,5.64779316 Z M3.25031623,4.28896963 C3.33108546,0.25367551 4.78493161,0.541910804 4.78493161,0.541910804 C5.63300853,0.541910804 5.59262392,1.65367551 5.59262392,1.65367551 C5.67339315,2.35367551 5.06762392,3.67132257 5.06762392,3.67132257 C4.98685469,3.95955786 4.94647007,4.3301461 4.94647007,4.3301461 C5.10800853,5.40073433 5.83493161,4.94779316 5.83493161,4.94779316 L6.11762392,4.98896963 C6.64262392,5.27720492 6.84454699,5.68896963 6.84454699,5.68896963 L6.84454699,6.30661669 C6.15800853,7.41838139 4.62339315,8.28308727 4.62339315,8.28308727 C4.13877776,11.7419108 5.71377776,15.9007343 5.71377776,15.9007343 C4.86570084,14.0477932 3.81570084,10.012499 3.81570084,10.012499 C3.16954699,7.5419108 3.25031623,4.28896963 3.25031623,4.28896963 Z" id="Shape" fill="#000000"></path>
                    </g>
                </g>
            </g>
        </g>
    </g>
</svg>