<?xml version="1.0" encoding="UTF-8"?>
<svg width="28px" height="28px" viewBox="0 0 28 28" version="1.1" xmlns="http://www.w3.org/2000/svg" xmlns:xlink="http://www.w3.org/1999/xlink">
    <title>01.Basics/02.Icon/Virtual/Corsa_cavalli@1,5x</title>
    <defs>
        <filter id="filter-1">
            <feColorMatrix in="SourceGraphic" type="matrix" values="0 0 0 0 0.200000 0 0 0 0 0.200000 0 0 0 0 0.200000 0 0 0 1.000000 0"></feColorMatrix>
        </filter>
        <filter id="filter-2">
            <feColorMatrix in="SourceGraphic" type="matrix" values="0 0 0 0 0.200000 0 0 0 0 0.200000 0 0 0 0 0.200000 0 0 0 1.000000 0"></feColorMatrix>
        </filter>
    </defs>
    <g id="Symbols" stroke="none" stroke-width="1" fill="none" fill-rule="evenodd">
        <g id="01.Basics/02.Icon/Virtual/Corsa_cavalli" filter="url(#filter-1)">
            <g>
                <rect id="Rectangle-Copy-8" fill="#FFFFFF" opacity="0" x="0" y="0" width="28" height="28"></rect>
                <g filter="url(#filter-2)">
                    <g transform="translate(0.000000, 6.000000)">
                        <path d="M12.9120705,0.0814096916 C13.0465198,0.0542731278 13.1809692,0.0259030837 13.3215859,0 C13.5189427,0.041938326 13.7187665,0.0530396476 13.8778855,0.151718062 C14.8005286,0.731453744 14.5229956,2.88264317 13.1809692,3.09726872 C11.4232599,3.37603524 11.3961233,0.600704846 12.9120705,0.0814096916 Z M22.2495154,3.67577093 C19.1497797,2.51629956 21.5748018,3.96317181 20.0872247,4.88088106 C19.4236123,5.29039648 17.9138326,6.49180617 17.2946256,6.81991189 C16.8222026,7.06660793 16.1326872,7.60810573 15.0299559,7.40951542 C14.3207048,7.22449339 12.9848458,6.73603524 12.099207,6.40176211 C11.482467,6.17110132 11.0310132,5.96511013 11.1346256,5.15718062 C11.2579736,4.18889868 12.258326,2.55330396 11.2505727,2.09444934 C10.6338326,1.82555066 9.59030837,2.01674009 8.62325991,2.18325991 C7.82967064,2.32178707 7.05168701,2.53828384 6.30061674,2.82960352 C4.95365639,3.3723348 3.89779736,4.36651982 4.03594714,5.9922467 C4.14696035,7.27753304 5.37797357,7.80792952 6.31911894,8.35559471 C6.61885463,8.53198238 7.0061674,8.74537445 7.40828194,9.01180617 C7.70801762,9.21286344 8.27911894,9.63594714 8.29638767,9.87524229 C8.30872247,10.0639648 7.82026432,10.7732159 7.62784141,10.9631718 C6.16740088,12.4038767 4.32828194,13.9444934 4.14696035,15.7342731 C5.67400881,13.1896035 11.3615859,10.7954185 11.2493392,9.33991189 C11.169163,8.30378855 8.94273128,6.75823789 7.74502203,6.05885463 C8.07436123,5.18061674 8.39013216,5.38907489 9.24123348,5.44211454 C9.1277533,6.53744493 10.4488106,6.91365639 11.3689868,7.18132159 C12.3113656,7.4477533 13.9148899,7.95348018 13.7964758,7.99171806 C12.8405286,8.30008811 12.4926872,8.14590308 11.2456388,8.34572687 C11.4195595,8.62819383 11.7390308,9.16969163 11.5577093,9.70255507 C11.2530396,10.6227313 9.67911894,11.4713656 9.13638767,11.8796476 C11.8253744,12.3335683 12.6912775,11.2530396 14.2442291,12.664141 C15.5628194,13.8630837 14.313304,14.775859 12.2163877,15.6392952 C18.6304846,14.714185 19.3952423,11.1987665 21.3651101,9.53356828 C22.8255507,9.54096916 24.0614978,9.68281938 25.6822907,9.42378855 C26.0362996,10.0602643 26.1362115,10.1515419 27.0563877,10.1330396 C27.5584141,9.87894273 27.8717181,9.80986784 27.9333921,9.59894273 C27.9333921,9.23876652 27.7767401,8.60352423 27.7755066,8.24211454 C26.9342731,7.9830837 25.482467,5.15718062 22.2495154,3.67577093 Z M22.2692511,8.48634361 C23.4077533,9.00810573 24.3970044,8.60969163 25.3837885,9.13268722 C24.5746256,9.35348018 22.8859912,9.24 21.6068722,9.24493392 C21.8325991,8.83665198 21.9843172,8.72563877 22.2692511,8.48634361 L22.2692511,8.48634361 Z M6.90748899,11.2172687 C7.29726872,10.8706608 7.65991189,10.2909251 7.9460793,9.84440529 C7.38484581,9.0660793 6.52634361,8.90325991 5.68757709,8.40493392 C2.63348018,7.86713656 1.25444934,9.70378855 0,11.4874009 C2.17215859,10.0676652 3.82378855,10.5573568 6.90748899,11.2172687 Z" id="cavallo_da_corsa" fill="#222222"></path>
                    </g>
                </g>
            </g>
        </g>
    </g>
</svg>