<?xml version="1.0" encoding="UTF-8"?>
<svg width="34px" height="34px" viewBox="0 0 34 34" version="1.1" xmlns="http://www.w3.org/2000/svg" xmlns:xlink="http://www.w3.org/1999/xlink">
    <title>bt_storico</title>
    <g id="bt_storico" stroke="none" stroke-width="1" fill="none" fill-rule="evenodd">
        <g id="Group-29" transform="translate(2.000000, 2.000000)">
            <g id="002-calendar-1" fill="#444444" fill-rule="nonzero">
                <path d="M26.438324,29.995844 L3.42151595,29.995844 C1.5340894,29.995844 0,28.4617546 0,26.5743281 L0,6.0456881 C0,4.15826155 1.5340894,2.6244 3.42151595,2.6244 L26.438324,2.6244 C28.3257506,2.6244 29.85984,4.15826155 29.85984,6.0456881 L29.85984,26.5743281 C29.85984,28.4617546 28.3257506,29.995844 26.438324,29.995844 Z M3.42151595,4.49064 C2.5642575,4.49064 1.86624,5.18842964 1.86624,6.0456881 L1.86624,26.5743281 C1.86624,27.4315865 2.5642575,28.129604 3.42151595,28.129604 L26.438324,28.129604 C27.2955825,28.129604 27.9936,27.4315865 27.9936,26.5743281 L27.9936,6.0456881 C27.9936,5.18842964 27.2955825,4.49064 26.438324,4.49064 L3.42151595,4.49064 Z" id="Shape"></path>
                <path d="M28.92672,11.819596 L0.93312,11.819596 C0.418035952,11.819596 0,11.40156 0,10.886476 C0,10.3713919 0.418035952,9.95335595 0.93312,9.95335595 L28.92672,9.95335595 C29.441804,9.95335595 29.85984,10.3713919 29.85984,10.886476 C29.85984,11.40156 29.441804,11.819596 28.92672,11.819596 Z" id="Path"></path>
                <path d="M7.15399595,7.46496 C6.6389119,7.46496 6.22087595,7.04692405 6.22087595,6.53184 L6.22087595,0.93312 C6.22087595,0.418035952 6.6389119,0 7.15399595,0 C7.66908,0 8.08711595,0.418035952 8.08711595,0.93312 L8.08711595,6.53184 C8.08711595,7.04692405 7.66908,7.46496 7.15399595,7.46496 Z" id="Path"></path>
                <path d="M22.705844,7.46496 C22.19076,7.46496 21.772724,7.04692405 21.772724,6.53184 L21.772724,0.93312 C21.772724,0.418035952 22.19076,0 22.705844,0 C23.2209281,0 23.638964,0.418035952 23.638964,0.93312 L23.638964,6.53184 C23.638964,7.04692405 23.2209281,7.46496 22.705844,7.46496 Z" id="Path"></path>
            </g>
            <g id="Group-28" transform="translate(9.914400, 14.580000)" stroke="#444444">
                <circle id="Oval" stroke-width="1.458" cx="4.9572" cy="4.9572" r="4.9572"></circle>
                <g id="Group-27" transform="translate(4.665600, 3.499200)" stroke-linecap="round" stroke-linejoin="round" stroke-width="1.1664">
                    <line x1="0.1458" y1="2.4786" x2="0.1458" y2="0.1458" id="Line-3"></line>
                    <line x1="0.1458" y1="2.4786" x2="1.458" y2="3.7908" id="Line-3"></line>
                </g>
            </g>
        </g>
    </g>
</svg>