<?xml version="1.0" encoding="UTF-8"?>
<svg width="40px" height="40px" viewBox="0 0 40 40" version="1.1" xmlns="http://www.w3.org/2000/svg" xmlns:xlink="http://www.w3.org/1999/xlink">
    <title>smart/home</title>
    <g id="smart/home" stroke="none" stroke-width="1" fill="none" fill-rule="evenodd">
        <g id="header/bt_messaggi_on-copy-2" transform="translate(9.000000, 10.000000)" fill="#FFFFFF" fill-rule="nonzero">
            <path d="M9.05559543,1.25759295 L1.40242072,8.05113393 C0.505707805,8.84722019 0.460870647,10.2145851 1.30635981,11.0656338 L1.49735141,11.2582544 L1.62557985,11.3776084 C1.93386534,11.6424916 2.30351096,11.8117863 2.6874679,11.8787392 L2.84,11.899 L2.84098232,17.1937852 C2.84098232,18.3667746 3.80495211,19.3 4.97352666,19.3 L7.95677807,19.3 L8.10797809,19.2947646 C9.20735383,19.2183967 10.0893224,18.315775 10.0893224,17.1937852 L10.089,13.413 L11.294,13.413 L11.2944923,17.1937852 C11.277261,18.3429132 12.1884802,19.2996768 13.3765777,19.2996768 L16.5380765,19.2996768 L16.6892765,19.2944414 C17.7886523,19.2180735 18.6706208,18.3154518 18.6706208,17.1934619 L18.67,11.571 L18.7544271,11.5354002 C19.0588656,11.3947657 19.3434343,11.1833015 19.5841919,10.9266382 L19.8003576,10.6965214 C20.6200979,9.82348107 20.5394457,8.46003232 19.6262634,7.68671157 L11.999239,1.22408778 C11.1593433,0.512829159 9.87843502,0.527090155 9.05559543,1.25759295 Z M9.91866754,2.22975885 C10.2267719,1.9562291 10.7134988,1.92628709 11.0595555,2.14337326 L11.1588331,2.21591339 L18.7861409,8.67877725 C19.1034934,8.94752451 19.1550426,9.39426785 18.9231336,9.72064957 L18.8528446,9.80645443 L18.6360437,10.0372479 C18.3266699,10.3670606 17.9180472,10.4998046 17.7234995,10.3342517 L17.3706208,10.0343387 L17.3706208,17.1934619 C17.3706208,17.6047229 17.0529729,17.9436851 16.6424988,17.9933997 L16.5380765,17.9996768 L13.3765777,17.9996768 C12.9521939,17.9996768 12.6392546,17.69235 12.5988283,17.2948996 L12.5944923,17.1937852 L12.5944923,12.1135272 L8.7893224,12.1135272 L8.7893224,17.1937852 C8.7893224,17.6050461 8.47167446,17.9440084 8.06120036,17.9937229 L7.95677807,18 L4.97352666,18 C4.5491428,18 4.19884994,17.6926732 4.14746988,17.2949686 L4.14098232,17.1937852 L4.14098232,9.93208711 L3.56902186,10.4280991 C3.28205794,10.677092 2.83072449,10.6681161 2.51186891,10.4233926 L2.42048342,10.3429254 L2.22860601,10.1494122 C1.93644591,9.85533104 1.92607658,9.40701975 2.18742794,9.10258713 L2.2654349,9.02335126 L9.91866754,2.22975885 Z" id="Path"></path>
        </g>
        <path d="M20,1 C14.7532272,1 10.0032252,3.12661026 6.56491775,6.56491775 C3.12661026,10.0032252 1,14.7532272 1,20 C1,25.2467728 3.12661026,29.9967748 6.56491775,33.4350823 C10.0032252,36.8733897 14.7532272,39 20,39 C25.2467728,39 29.9967748,36.8733897 33.4350823,33.4350823 C36.8733897,29.9967748 39,25.2467728 39,20 C39,14.7532272 36.8733897,10.0032252 33.4350823,6.56491775 C29.9967748,3.12661026 25.2467728,1 20,1 Z" id="Path" stroke="#FFFFFF" stroke-width="2" fill-rule="nonzero"></path>
    </g>
</svg>