<?xml version="1.0" encoding="UTF-8"?>
<svg width="28px" height="28px" viewBox="0 0 28 28" version="1.1" xmlns="http://www.w3.org/2000/svg" xmlns:xlink="http://www.w3.org/1999/xlink">
    <title>01.Basics/02.Icon/Virtual/Cavalli_deluxe@1,5x</title>
    <defs>
        <filter id="filter-1">
            <feColorMatrix in="SourceGraphic" type="matrix" values="0 0 0 0 0.200000 0 0 0 0 0.200000 0 0 0 0 0.200000 0 0 0 1.000000 0"></feColorMatrix>
        </filter>
        <filter id="filter-2">
            <feColorMatrix in="SourceGraphic" type="matrix" values="0 0 0 0 0.200000 0 0 0 0 0.200000 0 0 0 0 0.200000 0 0 0 1.000000 0"></feColorMatrix>
        </filter>
    </defs>
    <g id="Symbols" stroke="none" stroke-width="1" fill="none" fill-rule="evenodd">
        <g id="01.Basics/02.Icon/Virtual/Cavalli_deluxe" filter="url(#filter-1)">
            <g>
                <rect id="BG" fill="#FFFFFF" opacity="0" x="0" y="0" width="28" height="28"></rect>
                <g filter="url(#filter-2)" id="Cavalli_deluxe">
                    <g transform="translate(0.000000, 4.000000)">
                        <path d="M3.47407407,7.36296296 C3.73333333,7.36296296 3.99259259,6.11851852 4.04444444,4.45925926 C5.7037037,4.40740741 6.94814815,4.2 6.94814815,3.88888889 C6.94814815,3.57777778 5.7037037,3.37037037 4.04444444,3.31851852 C3.99259259,1.65925926 3.78518519,0.414814815 3.47407407,0.414814815 C3.16296296,0.414814815 2.95555556,1.71111111 2.9037037,3.37037037 C1.24444444,3.42222222 0,3.62962963 0,3.94074074 C0,4.25185185 1.24444444,4.45925926 2.9037037,4.51111111 C2.95555556,6.11851852 3.16296296,7.36296296 3.47407407,7.36296296 Z" id="Path" fill="#222222" fill-rule="nonzero"></path>
                        <path d="M24.5777778,16.9555556 C24.5259259,15.6074074 24.3703704,14.5703704 24.1111111,14.5703704 C23.8518519,14.5703704 23.6962963,15.6074074 23.6444444,16.9555556 C22.3481481,16.9555556 21.3111111,17.162963 21.3111111,17.3703704 C21.3111111,17.5777778 22.3481481,17.7851852 23.6962963,17.837037 C23.7481481,19.1851852 23.9037037,20.2222222 24.162963,20.2222222 C24.4222222,20.2222222 24.5777778,19.1851852 24.6296296,17.837037 C25.9777778,17.7851852 27.0148148,17.6296296 27.0148148,17.3703704 C27.0148148,17.1111111 25.9259259,16.9555556 24.5777778,16.9555556 Z" id="Path" fill="#222222" fill-rule="nonzero"></path>
                        <path d="M20.2222222,15.3481481 C20.2222222,14.7259259 20.1185185,14.2592593 20.0148148,14.2592593 C19.9111111,14.2592593 19.8074074,14.7259259 19.8074074,15.3481481 C19.1851852,15.3481481 18.7185185,15.4518519 18.7185185,15.5555556 C18.7185185,15.6592593 19.1851852,15.762963 19.8074074,15.762963 C19.8074074,16.3851852 19.9111111,16.8518519 20.0148148,16.8518519 C20.1185185,16.8518519 20.2222222,16.3851852 20.2222222,15.762963 C20.8444444,15.762963 21.3111111,15.6592593 21.3111111,15.5555556 C21.3111111,15.4518519 20.8444444,15.4 20.2222222,15.3481481 Z" id="Path" fill="#222222" fill-rule="nonzero"></path>
                        <path d="M8.97037037,1.5037037 C8.97037037,2.12592593 9.07407407,2.59259259 9.17777778,2.59259259 C9.28148148,2.59259259 9.38518519,2.12592593 9.38518519,1.5037037 C10.0074074,1.5037037 10.4740741,1.4 10.4740741,1.2962963 C10.4740741,1.19259259 10.0074074,1.08888889 9.38518519,1.08888889 C9.38518519,0.466666667 9.28148148,0 9.17777778,0 C9.07407407,0 8.97037037,0.466666667 8.97037037,1.08888889 C8.34814815,1.08888889 7.88148148,1.19259259 7.88148148,1.2962963 C7.88148148,1.4 8.34814815,1.45185185 8.97037037,1.5037037 Z" id="Path" fill="#222222" fill-rule="nonzero"></path>
                        <path d="M26.7037037,8.65925926 C25.3686224,6.97846264 23.8366852,5.46393381 22.1407407,4.14814815 C21.5185185,3.73333333 21.9851852,2.48888889 21.9851852,2.48888889 C20.7510629,2.61815073 19.5342817,2.87888956 18.3555556,3.26666667 C16.8827135,2.79960685 15.3294887,2.64075431 13.7925926,2.8 C13.3931312,2.84921763 13.0063072,2.97229799 12.6518519,3.16296296 L12.6,3.16296296 L12.6,3.57777778 L11.8740741,3.57777778 L11.8740741,4.2 L11.7703704,4.3037037 L10.9925926,4.3037037 L10.9925926,5.23703704 L10.1111111,5.23703704 C9.8,5.6 9.48888889,5.91111111 9.22962963,6.27407407 L9.22962963,6.27407407 C8.83803739,6.74486484 8.4041241,7.17877813 7.93333333,7.57037037 C6.74074074,8.45185185 8.97037037,8.19259259 9.85185185,7.41481481 C11.5581688,5.9228923 13.4813739,4.69903453 15.5555556,3.78518519 C16.3744504,3.44264383 17.263257,3.30043476 18.1481481,3.37037037 C14.6222222,4.61481481 11.8222222,7.05185185 9.07407407,9.59259259 C6.74074074,11.7703704 0.881481481,11.3555556 0.881481481,11.3555556 C0.881481481,11.3555556 10.3703704,19.7037037 12.8592593,19.3925926 C15.3481481,19.0814815 16.1259259,8.86666667 18.2518519,8.71111111 C20.3777778,8.55555556 24.7333333,10.7851852 24.3703704,11.2 C25.1243117,11.826064 26.0885012,12.1412798 27.0666667,12.0814815 L27.1703704,12.0814815 C27.5333333,11.0444444 28.0518519,10.4222222 26.7037037,8.65925926 Z" id="Path" fill="#222222" fill-rule="nonzero"></path>
                    </g>
                </g>
            </g>
        </g>
    </g>
</svg>