<?xml version="1.0" encoding="UTF-8"?>
<svg width="28px" height="28px" viewBox="0 0 28 28" version="1.1" xmlns="http://www.w3.org/2000/svg" xmlns:xlink="http://www.w3.org/1999/xlink">
    <title>01.Basics/02.Icon/Virtual/Cani_deluxee@1,5x</title>
    <defs>
        <filter id="filter-1">
            <feColorMatrix in="SourceGraphic" type="matrix" values="0 0 0 0 0.200000 0 0 0 0 0.200000 0 0 0 0 0.200000 0 0 0 1.000000 0"></feColorMatrix>
        </filter>
        <filter id="filter-2">
            <feColorMatrix in="SourceGraphic" type="matrix" values="0 0 0 0 0.200000 0 0 0 0 0.200000 0 0 0 0 0.200000 0 0 0 1.000000 0"></feColorMatrix>
        </filter>
    </defs>
    <g id="Symbols" stroke="none" stroke-width="1" fill="none" fill-rule="evenodd">
        <g id="01.Basics/02.Icon/Virtual/Cani_deluxee" filter="url(#filter-1)">
            <g>
                <rect id="Rectangle-Copy-6" fill="#FFFFFF" opacity="0" x="0" y="0" width="28" height="28"></rect>
                <g filter="url(#filter-2)">
                    <g transform="translate(0.000000, 5.000000)">
                        <path d="M23.982,6.86 C21.994,5.824 21.7933333,4.2 18.9513333,3.19666667 C18.1066667,2.898 14.0326667,1.652 7.98933333,4.79733333 C5.04,6.33733333 11.424,4.48466667 11.424,4.48466667 C11.424,4.48466667 8.302,8.42333333 0.802666667,11.3586667 C0.802666667,11.3586667 7.112,19.166 10.9246667,16.604 C14.7373333,14.042 14.9846667,10.1686667 17.612,10.108 C20.2393333,10.0473333 25.41,11.2 27.482,8.61 C28,7.98466667 24.78,7.27533333 23.982,6.86 Z M20.6873333,5.852 C20.594,6.118 20.104,6.18333333 19.5906667,6.00133333 C19.0773333,5.81933333 18.732,5.45533333 18.8253333,5.194 C18.9186667,4.93266667 19.4133333,4.86733333 19.9266667,5.04933333 C20.44,5.23133333 20.7806667,5.6 20.6873333,5.852 Z" id="Shape" fill="#222222" fill-rule="nonzero"></path>
                        <path d="M3.11266667,6.664 C3.36466667,6.664 3.57933333,5.53466667 3.612,4.05066667 C5.09133333,4.01333333 6.22533333,3.808 6.22533333,3.55133333 C6.22533333,3.29466667 5.09133333,3.08466667 3.612,3.052 C3.57466667,1.57266667 3.36466667,0.466666667 3.11266667,0.466666667 C2.86066667,0.466666667 2.646,1.596 2.61333333,3.07533333 C1.134,3.094 0,3.29933333 0,3.55133333 C0,3.80333333 1.134,4.018 2.61333333,4.05066667 C2.65066667,5.53466667 2.86066667,6.664 3.11266667,6.664 Z" id="Path" fill="#222222" fill-rule="nonzero"></path>
                        <path d="M22.1713333,15.2646667 C22.1386667,14.0513333 21.9706667,13.118 21.7606667,13.118 C21.5506667,13.118 21.3826667,14.0513333 21.35,15.2646667 C20.1366667,15.2973333 19.2033333,15.47 19.2033333,15.6753333 C19.2033333,15.8806667 20.1366667,16.0533333 21.35,16.086 C21.3826667,17.304 21.5553333,18.2373333 21.7606667,18.2373333 C21.966,18.2373333 22.1386667,17.304 22.1713333,16.086 C23.3893333,16.0533333 24.3226667,15.8853333 24.3226667,15.6753333 C24.3226667,15.4653333 23.3893333,15.2973333 22.1713333,15.2646667 Z" id="Path" fill="#222222" fill-rule="nonzero"></path>
                        <path d="M18.2233333,13.846 C18.2233333,13.2906667 18.13,12.866 18.032,12.866 C17.934,12.866 17.8593333,13.2906667 17.8453333,13.846 C17.29,13.846 16.8606667,13.9393333 16.8606667,14.0373333 C16.8606667,14.1353333 17.29,14.21 17.8453333,14.224 C17.8453333,14.7793333 17.9386667,15.2086667 18.032,15.2086667 C18.1253333,15.2086667 18.2046667,14.7793333 18.2233333,14.224 C18.7786667,14.224 19.2033333,14.1306667 19.2033333,14.0373333 C19.2033333,13.944 18.7786667,13.8646667 18.2233333,13.846 Z" id="Path" fill="#222222" fill-rule="nonzero"></path>
                        <path d="M8.07333333,1.36266667 C8.07333333,1.918 8.16666667,2.34266667 8.26,2.34266667 C8.35333333,2.34266667 8.43733333,1.918 8.45133333,1.36266667 C9.00666667,1.36266667 9.43133333,1.26933333 9.43133333,1.17133333 C9.43133333,1.07333333 9.00666667,0.998666667 8.45133333,0.984666667 C8.45133333,0.429333333 8.358,0 8.26,0 C8.162,0 8.08733333,0.429333333 8.07333333,0.984666667 C7.518,0.984666667 7.09333333,1.078 7.09333333,1.17133333 C7.09333333,1.26466667 7.518,1.344 8.07333333,1.36266667 Z" id="Path" fill="#222222" fill-rule="nonzero"></path>
                    </g>
                </g>
            </g>
        </g>
    </g>
</svg>