<svg xmlns="http://www.w3.org/2000/svg" viewBox="0 0 373 260"><defs><style>.cls-1{fill:#333;}.cls-2{fill:#fff;}.cls-3{fill:#e52421;}</style></defs><title>002 - Illustrazione - Scansione Codice Fiscale</title><g id="_002_-_Illustrazione_-_Scansione_Codice_Fiscale" data-name="002 - Illustrazione - Scansione Codice Fiscale"><g id="Pistola_Tesserino" data-name="Pistola + Tesserino"><g id="Tessera_Sanitaria" data-name="Tessera Sanitaria"><path id="Sfondo_Tessera_Sanitaria" data-name="Sfondo Tessera Sanitaria" class="cls-1" d="M97.24,158.19a5.69,5.69,0,0,1,.52.33l90.58,62.36c3.08,2.12,2.62,5.29-1,7.07l-47,22.86-.87-.6,47-22.86c3.08-1.5,3.48-4.18.89-6L96.72,159a4.92,4.92,0,0,0-.45-.28,10,10,0,0,0-4.53-1.21,11.15,11.15,0,0,0-5.33,1l-47,22.87-.87-.6-14.73,7.17.88.6-1.75.85c-3.08,1.49-3.47,4.17-.87,6l90.58,62.37c.14.09.29.19.44.27a11.51,11.51,0,0,0,9.87.25l1.74-.85.87.6-1.74.85a13.69,13.69,0,0,1-11.69-.29l-.52-.33L21.07,195.85c-3.07-2.13-2.61-5.3,1-7.08L85.54,157.9a13.12,13.12,0,0,1,6.32-1.15A12.07,12.07,0,0,1,97.24,158.19Z"/><path id="Sezione_Inferiore" data-name="Sezione Inferiore" class="cls-2" d="M187.32,221.38c2.59,1.79,2.19,4.47-.89,6l-47,22.86-100-68.85,47-22.87a11.15,11.15,0,0,1,5.33-1,10,10,0,0,1,4.53,1.21,4.92,4.92,0,0,1,.45.28Zm-64.84,14.55L136,229.35l-62.61-43.1-13.51,6.57,62.61,43.11"/><g id="Codice_a_Barre" data-name="Codice a Barre"><path id="Cornice" class="cls-1" d="M73.38,186.25,136,229.35l-13.51,6.58L59.87,192.82Zm49.2,48.94,12.14-5.91L73.27,187l-12.13,5.9,61.44,42.3"/><g id="Codice_a_Barre-2" data-name="Codice a Barre"><polygon class="cls-1" points="128.02 226.13 128.2 226.26 118.56 230.96 118.37 230.83 128.02 226.13"/><polygon class="cls-1" points="73.53 188.62 73.71 188.75 64.07 193.44 63.89 193.32 73.53 188.62"/><polygon class="cls-1" points="75.03 189.66 75.21 189.78 65.57 194.48 65.39 194.35 75.03 189.66"/><polygon class="cls-1" points="75.46 189.95 76.07 190.37 66.43 195.07 65.81 194.65 75.46 189.95"/><polygon class="cls-1" points="76.96 190.98 77.78 191.55 68.14 196.25 67.31 195.68 76.96 190.98"/><polygon class="cls-1" points="81.04 193.8 81.23 193.92 71.58 198.62 71.4 198.49 81.04 193.8"/><polygon class="cls-1" points="81.9 194.39 82.09 194.51 72.44 199.21 72.26 199.08 81.9 194.39"/><polygon class="cls-1" points="83.19 195.27 83.58 195.55 73.94 200.24 73.55 199.97 83.19 195.27"/><polygon class="cls-1" points="83.83 195.72 84.23 195.99 74.58 200.69 74.19 200.41 83.83 195.72"/><polygon class="cls-1" points="84.48 196.16 84.87 196.43 75.23 201.13 74.83 200.86 84.48 196.16"/><polygon class="cls-1" points="85.34 196.75 85.74 197.02 76.09 201.72 75.69 201.45 85.34 196.75"/><polygon class="cls-1" points="85.98 197.19 86.16 197.32 76.51 202.01 76.33 201.89 85.98 197.19"/><polygon class="cls-1" points="87.69 198.37 87.88 198.5 78.23 203.2 78.05 203.07 87.69 198.37"/><polygon class="cls-1" points="88.12 198.67 88.73 199.09 79.09 203.79 78.47 203.36 88.12 198.67"/><polygon class="cls-1" points="89.41 199.55 89.59 199.68 79.94 204.38 79.76 204.25 89.41 199.55"/><polygon class="cls-1" points="90.05 200 90.24 200.12 80.59 204.82 80.41 204.69 90.05 200"/><polygon class="cls-1" points="90.91 200.59 91.09 200.71 81.45 205.41 81.27 205.28 90.91 200.59"/><polygon class="cls-1" points="94.34 202.95 94.52 203.08 84.87 207.77 84.69 207.65 94.34 202.95"/><polygon class="cls-1" points="95.2 203.54 95.6 203.81 85.95 208.51 85.55 208.24 95.2 203.54"/><polygon class="cls-1" points="95.84 203.98 96.02 204.11 86.38 208.81 86.19 208.68 95.84 203.98"/><polygon class="cls-1" points="96.27 204.28 96.88 204.7 87.23 209.4 86.62 208.97 96.27 204.28"/><polygon class="cls-1" points="98.84 206.05 99.24 206.32 89.59 211.02 89.2 210.75 98.84 206.05"/><polygon class="cls-1" points="100.34 207.08 100.52 207.21 90.88 211.91 90.69 211.78 100.34 207.08"/><polygon class="cls-1" points="100.77 207.38 100.95 207.5 91.31 212.2 91.13 212.07 100.77 207.38"/><polygon class="cls-1" points="103.35 209.15 103.53 209.28 93.88 213.97 93.7 213.85 103.35 209.15"/><polygon class="cls-1" points="103.78 209.45 104.39 209.87 94.74 214.57 94.13 214.15 103.78 209.45"/><polygon class="cls-1" points="104.86 210.19 105.03 210.31 95.39 215.01 95.21 214.88 104.86 210.19"/><polygon class="cls-1" points="105.28 210.48 106.1 211.05 96.46 215.74 95.63 215.18 105.28 210.48"/><polygon class="cls-1" points="106.35 211.22 106.75 211.49 97.1 216.19 96.71 215.91 106.35 211.22"/><polygon class="cls-1" points="107.2 211.81 107.39 211.93 97.75 216.63 97.57 216.5 107.2 211.81"/><polygon class="cls-1" points="108.28 212.55 108.46 212.67 98.82 217.37 98.64 217.24 108.28 212.55"/><polygon class="cls-1" points="108.94 213 109.12 213.13 99.48 217.82 99.29 217.69 108.94 213"/><polygon class="cls-1" points="109.37 213.3 109.55 213.42 99.9 218.12 99.72 217.99 109.37 213.3"/><polygon class="cls-1" points="110.87 214.33 111.05 214.45 101.4 219.15 101.22 219.03 110.87 214.33"/><polygon class="cls-1" points="112.8 215.66 113.19 215.93 103.55 220.62 103.15 220.35 112.8 215.66"/><polygon class="cls-1" points="113.66 216.25 114.05 216.52 104.41 221.21 104.01 220.94 113.66 216.25"/><polygon class="cls-1" points="114.29 216.69 114.48 216.81 104.83 221.51 104.66 221.38 114.29 216.69"/><polygon class="cls-1" points="116.02 217.87 116.2 217.99 106.55 222.69 106.37 222.56 116.02 217.87"/><polygon class="cls-1" points="116.44 218.16 117.05 218.58 107.41 223.28 106.8 222.86 116.44 218.16"/><polygon class="cls-1" points="118.37 219.5 118.56 219.62 108.91 224.31 108.73 224.19 118.37 219.5"/><polygon class="cls-1" points="119.23 220.09 119.41 220.21 109.76 224.9 109.58 224.78 119.23 220.09"/><polygon class="cls-1" points="122.66 222.44 122.84 222.57 113.19 227.27 113.01 227.14 122.66 222.44"/><polygon class="cls-1" points="123.52 223.03 123.91 223.31 114.27 228 113.87 227.73 123.52 223.03"/><polygon class="cls-1" points="124.16 223.48 124.34 223.6 114.7 228.3 114.52 228.17 124.16 223.48"/><polygon class="cls-1" points="127.16 225.54 127.56 225.82 117.91 230.51 117.51 230.24 127.16 225.54"/><polygon class="cls-1" points="78.89 192.31 79.07 192.44 69.42 197.13 69.24 197.01 78.89 192.31"/><polygon class="cls-1" points="79.96 193.05 80.14 193.18 70.5 197.87 70.31 197.75 79.96 193.05"/><polygon class="cls-1" points="90.48 200.29 90.66 200.42 81.02 205.11 80.83 204.99 90.48 200.29"/><polygon class="cls-1" points="112.15 215.21 112.55 215.49 102.9 220.18 102.51 219.91 112.15 215.21"/><polygon class="cls-1" points="114.94 217.13 115.55 217.55 105.91 222.25 105.29 221.83 114.94 217.13"/><polygon class="cls-1" points="120.52 220.97 120.7 221.09 111.05 225.79 110.87 225.66 120.52 220.97"/><polygon class="cls-1" points="126.09 224.81 126.92 225.38 117.27 230.07 116.44 229.5 126.09 224.81"/><polygon class="cls-1" points="74.39 189.21 74.78 189.49 65.14 194.18 64.74 193.91 74.39 189.21"/><polygon class="cls-1" points="76.53 190.69 76.71 190.81 67.06 195.51 66.88 195.38 76.53 190.69"/><polygon class="cls-1" points="78.03 191.72 78.43 192 68.78 196.69 68.39 196.42 78.03 191.72"/><polygon class="cls-1" points="79.53 192.75 79.72 192.88 70.07 197.58 69.89 197.45 79.53 192.75"/><polygon class="cls-1" points="80.62 193.5 80.8 193.63 71.16 198.32 70.97 198.2 80.62 193.5"/><polygon class="cls-1" points="82.55 194.83 82.73 194.96 73.08 199.65 72.9 199.53 82.55 194.83"/><polygon class="cls-1" points="86.62 197.63 87.23 198.06 77.59 202.75 76.98 202.33 86.62 197.63"/><polygon class="cls-1" points="91.34 200.88 91.52 201.01 81.88 205.71 81.69 205.58 91.34 200.88"/><polygon class="cls-1" points="92.2 201.47 92.38 201.6 82.73 206.3 82.55 206.17 92.2 201.47"/><polygon class="cls-1" points="92.84 201.92 93.02 202.04 83.38 206.74 83.19 206.61 92.84 201.92"/><polygon class="cls-1" points="93.27 202.21 93.45 202.34 83.81 207.03 83.63 206.91 93.27 202.21"/><polygon class="cls-1" points="97.34 205.02 97.52 205.14 87.88 209.84 87.7 209.71 97.34 205.02"/><polygon class="cls-1" points="97.77 205.31 98.59 205.88 88.95 210.57 88.13 210.01 97.77 205.31"/><polygon class="cls-1" points="99.7 206.64 99.88 206.76 90.24 211.46 90.05 211.34 99.7 206.64"/><polygon class="cls-1" points="101.85 208.12 102.03 208.24 92.39 212.94 92.2 212.81 101.85 208.12"/><polygon class="cls-1" points="102.71 208.71 103.1 208.98 93.46 213.68 93.06 213.41 102.71 208.71"/><polygon class="cls-1" points="107.85 212.25 108.03 212.38 98.39 217.07 98.2 216.95 107.85 212.25"/><polygon class="cls-1" points="110.22 213.89 110.41 214.01 100.76 218.71 100.58 218.58 110.22 213.89"/><polygon class="cls-1" points="111.51 214.77 111.91 215.04 102.26 219.74 101.86 219.47 111.51 214.77"/><polygon class="cls-1" points="117.73 219.05 117.91 219.18 108.26 223.87 108.08 223.75 117.73 219.05"/><polygon class="cls-1" points="118.8 219.79 118.99 219.91 109.34 224.61 109.16 224.49 118.8 219.79"/><polygon class="cls-1" points="119.66 220.38 119.84 220.5 110.19 225.2 110.01 225.07 119.66 220.38"/><polygon class="cls-1" points="121.16 221.41 121.34 221.54 111.7 226.23 111.52 226.11 121.16 221.41"/><polygon class="cls-1" points="121.59 221.71 121.77 221.83 112.12 226.53 111.94 226.4 121.59 221.71"/><polygon class="cls-1" points="124.59 223.77 125.2 224.19 115.55 228.89 114.94 228.47 124.59 223.77"/><polygon class="cls-1" points="125.66 224.51 125.84 224.64 116.2 229.33 116.02 229.21 125.66 224.51"/><polygon class="cls-1" points="128.67 226.58 128.85 226.7 119.2 231.4 119.02 231.27 128.67 226.58"/><polygon class="cls-1" points="129.09 226.87 129.28 227 119.63 231.7 119.45 231.57 129.09 226.87"/></g></g><polygon id="Striscia_Magnetica" data-name="Striscia Magnetica" class="cls-1" points="38.58 180.76 39.45 181.36 139.47 250.21 140.34 250.81 125.62 257.99 124.74 257.38 24.73 188.53 23.85 187.93 38.58 180.76"/><path id="Sezione_Superiore" data-name="Sezione Superiore" class="cls-2" d="M23,189.38l1.75-.85,100,68.85-1.74.85a11.51,11.51,0,0,1-9.87-.25c-.15-.08-.3-.18-.44-.27L22.11,195.34C19.51,193.55,19.9,190.87,23,189.38Z"/></g><g id="Pistola_Scanner" data-name="Pistola Scanner"><polygon id="Laser" class="cls-3" points="147.24 201.01 144.48 240.97 52.54 177.47 72.09 157.69 69.4 156.01 47.75 177.91 147.19 246.6 150.39 200.35 147.24 201.01"/><g id="Pistola"><g id="Filo"><path class="cls-1" d="M328.65,82.67c-6.77,0-13.77-3.48-20-10l-.16-.19C301.93,64,303.43,54.58,305,44.61c1.39-8.72,2.83-17.73-.7-27.4C300.52,9.76,296.06,5.58,291,4.79c-6.25-1-14,3.1-22.94,12.14a2.32,2.32,0,1,1-3.29-3.26C275,3.36,283.83-1,291.76.21c6.6,1,12.24,6.09,16.76,15l.11.24c4,10.86,2.39,21,1,29.86-1.48,9.3-2.77,17.33,2.48,24.19,3.55,3.7,10.66,9.61,18.85,8.32S346.47,68.92,353.22,55a2.32,2.32,0,0,1,4.17,2c-7.45,15.34-16.11,23.88-25.75,25.39A20,20,0,0,1,328.65,82.67Z"/></g><path id="Pistola-2" data-name="Pistola" class="cls-1" d="M259.9,12.27,240.12,26c-6-1.56-13.71-1.48-23.49,2.11h0l-.19.08C193,38.58,168.62,55.33,141.85,79.38c-39.27,4.3-64.6,27.52-79.66,73A3.08,3.08,0,0,0,63.5,156l78,48.52a3.14,3.14,0,0,0,1.63.46,3.55,3.55,0,0,0,.64-.06l13.35-2.82a3.1,3.1,0,0,0,2.24-1.87c1.81-4.5,3.87-9.28,5.86-13.89,9.13-21.15,17.77-41.14,11-51.21-1.39-5.26,4.21-9.1,10.58-12.89.82-.48,1.58-.93,2.24-1.36l1.35-.74,1.65-.92,1.77-1,1.26-.7,2.15-1.22.89-.5q3-1.68,5.87-3.37l.19-.11,2.57-1.49.44-.26c10-5.82,19.45-11.6,27.08-16.55q2.38-1.55,4.48-3l.07,0q2.06-1.37,3.87-2.63l.14-.09,1.69-1.19.12-.08,1.45-1,.26-.18,1.31-1,.27-.19,1.21-.91.25-.18,1.1-.85.26-.19,1-.79.24-.19.91-.73.25-.2L254,80l.25-.21.73-.63.24-.2.63-.57.25-.22.57-.53.22-.21.51-.49c.06-.07.14-.14.2-.2l.44-.45.2-.21.39-.41.18-.2.33-.38.17-.19.29-.36.14-.18.25-.33.13-.17.21-.3.11-.17.18-.28.09-.16a2.43,2.43,0,0,0,.15-.26l.08-.14.12-.25a.75.75,0,0,0,.06-.13c0-.08.07-.16.1-.23a.69.69,0,0,0,.05-.13l.08-.21a.56.56,0,0,1,0-.12,1.46,1.46,0,0,0,.05-.2l0-.1a1.42,1.42,0,0,0,0-.2.31.31,0,0,0,0-.08l0-.19v-.08a1.23,1.23,0,0,0,0-.19v-.06a1.21,1.21,0,0,1,0-.19v0c2.5-9.57,1.57-22.9-5.45-32.83L268.46,20.4C271.29,12.86,269.12,9.57,259.9,12.27ZM143.74,184.81,72.8,141.6c14.69-35.29,36.89-52.78,70.68-56.18a3,3,0,0,0,1.76-.78c39.5-35.63,69.49-48.92,73.6-50.74l.22-.08c.79-.28,1.58-.55,2.35-.78h0c5.88-1.76,11.15-2,15.77-.64,1.41,5.51,6.29,9.36,13.71,12l.16-.22A39.19,39.19,0,0,1,255.28,56s0,.07,0,.11c0,5.09-33,26.73-76.8,50.33h0l-.15.08c-9.82,5.36-20,11.68-20.88,17.91a6.05,6.05,0,0,0,1.84,5.26c7.8,8.89-3.72,31.72-14.87,53.8Zm26.72-47.36a3.3,3.3,0,0,0,.47.89c5.28,7-3.55,27.49-11.34,45.53l-.6,1.39-12.6,1.17h0c.26-.52.52-1,.77-1.54,12.14-24.06,23.6-46.78,14.37-57.31a3,3,0,0,1-1-2.71c.8-5.54,14.24-12.87,19.3-15.64l.15-.08h0c16.19-8.72,64.54-35.39,76-48.5a29.33,29.33,0,0,1-.45,8.36,3.21,3.21,0,0,0-.07.53h0c-1.63,5.16-32,25.29-69.42,46h0l-.17.1c-.63.4-1.37.84-2.16,1.31C177.82,120.37,167,126.81,170.46,137.45Z"/></g></g></g><g id="Sfondo_Pistola" data-name="Sfondo Pistola"><path class="cls-2" d="M143.74,184.81l.66-1.32c11.15-22.08,22.67-44.91,14.87-53.8a6.05,6.05,0,0,1-1.84-5.26c.9-6.23,11.06-12.55,20.88-17.91l.15-.08h0c43.79-23.6,76.8-45.24,76.8-50.33,0,0,0-.07,0-.11a39.19,39.19,0,0,0-4.21-11.83l-.16.22c-7.42-2.64-12.3-6.49-13.71-12-4.62-1.33-9.89-1.12-15.77.64h0c-.78.23-1.56.5-2.35.78l-.22.08c-4.11,1.82-34.1,15.11-73.6,50.74a3,3,0,0,1-1.76.78c-33.79,3.4-56,20.89-70.68,56.18Z"/><path class="cls-2" d="M185.8,115.6l.17-.1h0c37.38-20.67,67.79-40.8,69.42-46h0a3.21,3.21,0,0,1,.07-.53,29.33,29.33,0,0,0,.45-8.36c-11.43,13.11-59.78,39.78-76,48.5h0l-.15.08c-5.06,2.77-18.5,10.1-19.3,15.64a3,3,0,0,0,1,2.71c9.23,10.53-2.23,33.25-14.37,57.31-.25.51-.51,1-.77,1.54h0l12.6-1.17.6-1.39c7.79-18,16.62-38.49,11.34-45.53a3.3,3.3,0,0,1-.47-.89c-3.48-10.64,7.36-17.08,13.18-20.54C184.43,116.44,185.17,116,185.8,115.6Z"/></g></g></svg>