<?xml version="1.0" encoding="UTF-8"?>
<svg xmlns="http://www.w3.org/2000/svg" xmlns:xlink="http://www.w3.org/1999/xlink" width="16px" height="20px" viewBox="0 0 16 20" version="1.1" >
    <title>FB0EB4C2-7F8B-4666-8F92-388B5DB2DFBC@2x</title>
    <g id="04.-Prenotazioni-|-Richiamo-e-Vendita" stroke="none" stroke-width="1" fill="none" fill-rule="evenodd">
        <g id="Prenotazioni_Dettaglio_6" transform="translate(-1475.000000, -383.000000)">
            <g id="iconTrashGrey" transform="translate(1475.000000, 383.000000)" fill="#999999" fill-rule="nonzero">
                <path d="M4.60289682,1.80121704 C4.60289682,1.21057305 5.09150737,0.778904665 5.71759,0.778904665 L10.2999264,0.778904665 C10.9258076,0.778904665 11.4144181,1.21057305 11.4144181,1.80121704 L11.4144181,2.92089249 L12.2400571,2.92089249 L12.2400571,1.80121704 C12.2400571,0.781186613 11.3811587,0 10.2999264,0 L5.71759,0 C4.63635775,0 3.77725787,0.781186613 3.77725787,1.80121704 L3.77725787,2.92089249 L4.60289682,2.92089249 L4.60289682,1.80121704 Z" id="Path"/><path d="M3.12718811,20.0365112 L12.8903283,20.0365112 C13.8316696,20.0365112 14.5621666,19.2426728 14.5621666,18.2555924 L14.5621666,6.03651116 L1.45514834,6.03651116 L1.45514834,18.2555924 C1.45514834,19.2426728 2.1856453,20.0365112 3.12718811,20.0365112 Z M10.6403816,7.92622517 C10.6403816,7.7076684 10.8252231,7.53046545 11.0532011,7.53046545 C11.281179,7.53046545 11.4660206,7.7076684 11.4660206,7.92622517 L11.4660206,17.2760485 C11.4660206,17.4946053 11.281179,17.6718082 11.0532011,17.6718082 C10.8252231,17.6718082 10.6403816,17.4946053 10.6403816,17.2760485 L10.6403816,7.92622517 Z M7.59583799,7.92622517 C7.59583799,7.7076684 7.78067951,7.53046545 8.00865747,7.53046545 C8.23663542,7.53046545 8.42147694,7.7076684 8.42147694,7.92622517 L8.42147694,17.2760485 C8.42147694,17.4946053 8.23663542,17.6718082 8.00865747,17.6718082 C7.78067951,17.6718082 7.59583799,17.4946053 7.59583799,17.2760485 L7.59583799,7.92622517 Z M4.55129438,7.92622517 C4.55129438,7.7076684 4.7361359,7.53046545 4.96411386,7.53046545 C5.19209181,7.53046545 5.37693333,7.7076684 5.37693333,7.92622517 L5.37693333,17.2760485 C5.37693333,17.4946053 5.19209181,17.6718082 4.96411386,17.6718082 C4.7361359,17.6718082 4.55129438,17.4946053 4.55129438,17.2760485 L4.55129438,7.92622517 Z" id="Shape"/><path d="M1.02448969,5.25760649 L14.8755103,5.25760649 C15.4413807,5.25760649 15.9,4.82175456 15.9,4.28397566 C15.9,3.74619675 15.4413807,3.31034483 14.8755103,3.31034483 L1.02448969,3.31034483 C0.458619213,3.31034483 0,3.74619675 0,4.28397566 C0,4.82175456 0.458619213,5.25760649 1.02448969,5.25760649 Z" id="Path"/>
            </g>
        </g>
    </g>
</svg>