<?xml version="1.0" encoding="UTF-8"?>
<svg width="27px" height="27px" viewBox="0 0 27 27" version="1.1" xmlns="http://www.w3.org/2000/svg" xmlns:xlink="http://www.w3.org/1999/xlink">
    <title>modale/OK</title>
    <g id="modale/OK" stroke="none" stroke-width="1" fill="none" fill-rule="evenodd">
        <g id="Group-12" transform="translate(1.000000, 1.000000)">
            <circle id="Oval" stroke="#FFFFFF" stroke-width="2" cx="12.5" cy="12.5" r="12.5"></circle>
            <path d="M18.9723483,10.6320438 L12.1229238,17.4814327 C11.8316865,17.7726685 11.4445456,17.932962 11.0327178,17.932962 C10.62089,17.932962 10.2337491,17.7726685 9.94251176,17.4814327 L6.45164541,13.9905845 C6.16040807,13.6993487 6,13.3122098 6,12.9003841 C6,12.4884447 6.16040807,12.1013058 6.45164541,11.81007 C6.74276899,11.5188342 7.12990988,11.3584269 7.54185145,11.3584269 C7.95367925,11.3584269 8.34093391,11.5188342 8.63205748,11.8101837 L11.032604,14.2106041 L16.7917087,8.4515293 C17.0829461,8.16029347 17.470087,8 17.8819148,8 C18.2937426,8 18.6808835,8.16029347 18.9721208,8.4515293 C19.5734804,9.05288578 19.5734804,10.0309149 18.9723483,10.6320438 Z" id="Path" fill="#FFFFFF"></path>
        </g>
    </g>
</svg>