<?xml version="1.0" encoding="UTF-8"?>
<svg width="48px" height="44px" viewBox="0 0 48 44" version="1.1" xmlns="http://www.w3.org/2000/svg" xmlns:xlink="http://www.w3.org/1999/xlink">
    <title>02.Component/ic / Time</title>
    <g id="02.Component/ic-/-Time" stroke="none" stroke-width="1" fill="none" fill-rule="evenodd">
        <g id="Group-7" fill-rule="nonzero">
            <path d="M35,19.5 C35,29.1649459 27.1650434,37 17.4997823,37 C7.83495664,37 0,29.1649459 0,19.5 C0,9.83505412 7.83495664,2 17.4997823,2 C27.1650434,2 35,9.83505412 35,19.5 Z" id="Path" fill="#EFEFD2"></path>
            <path d="M35.966875,13.960048 C35.7700426,13.960048 35.5732103,13.8860577 35.4226136,13.7385096 C35.1223012,13.4429808 35.1223012,12.9644231 35.4226136,12.6693269 L40.3205256,7.85649041 C40.620838,7.5613942 41.1078551,7.5613942 41.4086079,7.85649041 C41.7089205,8.15201918 41.7089205,8.63057692 41.4086079,8.92567313 L36.5111364,13.7385096 C36.3605397,13.8860577 36.1637074,13.960048 35.966875,13.960048 L35.966875,13.960048 Z" id="Path" fill="#4C241D"></path>
            <path d="M41.9528694,10.2172596 C41.756037,10.2172596 41.5592045,10.1432692 41.4086079,9.99572118 L39.2320029,7.85692308 C38.9316903,7.5613942 38.9316903,7.08283657 39.2320029,6.78774036 C39.5327557,6.49221159 40.0197727,6.49221159 40.3200852,6.78774036 L42.4966903,8.9261058 C42.7974432,9.22163456 42.7974432,9.70019231 42.4966903,9.99572118 C42.3465341,10.1432692 42.1497017,10.2172596 41.9528694,10.2172596 L41.9528694,10.2172596 Z" id="Path" fill="#4C241D"></path>
            <path d="M17.777713,13.960048 C17.5813211,13.960048 17.3840483,13.8860577 17.2338921,13.7385096 L12.3364205,8.92567313 C12.0356676,8.63057692 12.0356676,8.15201918 12.3364205,7.85649041 C12.636733,7.5613942 13.12375,7.5613942 13.4245029,7.85649041 L18.3219744,12.6693269 C18.6227273,12.9644231 18.6227273,13.4429808 18.3219744,13.7385096 C18.1718182,13.8860577 17.9749858,13.960048 17.777713,13.960048 Z" id="Path" fill="#4C241D"></path>
            <path d="M27.6422301,8.90706734 C27.2168608,8.90706734 26.8725142,8.5687019 26.8725142,8.15115385 L26.8725142,2.85759621 C26.8725142,2.44004805 27.2168608,2.10168272 27.6422301,2.10168272 C28.0671591,2.10168272 28.4115057,2.44004805 28.4115057,2.85759621 L28.4115057,8.15115385 C28.4115057,8.5687019 28.0671591,8.90706734 27.6422301,8.90706734 Z" id="Path" fill="#4C241D"></path>
            <path d="M30.7997941,3 L25.200206,3 C24.5373921,3 24,2.55216482 24,1.99980928 C24,1.44745374 24.5373921,1 25.200206,1 L30.7997941,1 C31.4626081,1 32,1.44745374 32,1.99980928 C32,2.55216482 31.4626081,3 30.7997941,3 Z" id="Path" fill="#FC8C29"></path>
            <path d="M30.1249822,4 L24.875018,4 C23.8411616,4 23,3.10322736 23,2 C23,0.897230501 23.8411616,0 24.875018,0 L30.1249822,0 C31.1588384,0 32,0.897230501 32,2 C32,3.10322736 31.1588384,4 30.1249822,4 L30.1249822,4 Z M24.875018,1.60036624 C24.6681608,1.60036624 24.4999285,1.77935448 24.4999285,2 C24.4999285,2.22110326 24.6681608,2.40009162 24.875018,2.40009162 L30.1249822,2.40009162 C30.3322683,2.40009162 30.5000715,2.22110326 30.5000715,2 C30.5000715,1.77935448 30.3322683,1.60036624 30.1249822,1.60036624 L24.875018,1.60036624 Z" id="Shape" fill="#4C241D"></path>
            <path d="M11.8283954,10 C11.6164968,10 11.4045982,9.91894291 11.2424746,9.75730284 C10.9191751,9.43354858 10.9191751,8.90928473 11.2424746,8.58600459 L13.5861579,6.24246011 C13.9094573,5.91917996 14.4337521,5.91917996 14.7575255,6.24246011 C15.0808248,6.56621436 15.0808248,7.09047809 14.7575255,7.41375836 L12.4143162,9.75730284 C12.2521926,9.91894291 12.040294,10 11.8283954,10 Z" id="Path" fill="#4C241D"></path>
            <path d="M45,23.5002177 C45,33.1650434 37.1650432,41 27.5002177,41 C17.8349566,41 10,33.1650434 10,23.5002177 C10,13.8349566 17.8349566,6 27.5002177,6 C37.1650432,6 45,13.8349566 45,23.5002177 Z" id="Path" fill="#FFCE56"></path>
            <path d="M27.5,42 C17.2988223,42 9,33.7007367 9,23.5 C9,13.2992633 17.2988223,5 27.5,5 C37.7007367,5 46,13.2992633 46,23.5 C46,33.7007367 37.7002957,42 27.5,42 Z M27.5000001,6.54155642 C18.1492145,6.54155642 10.5415564,14.1492144 10.5415564,23.5 C10.5415564,32.8507856 18.1492145,40.4584436 27.5000001,40.4584436 C36.8507857,40.4584436 44.4580025,32.8507856 44.4580025,23.5 C44.4580025,14.1492144 36.8507857,6.54155642 27.5000001,6.54155642 Z" id="Shape" fill="#4C241D"></path>
            <path d="M17.8114885,32 C16.0462731,29.700718 15,26.8403735 15,23.7397653 C15,16.1515527 21.2676089,10 29,10 L29,23.7397653 L17.8114885,32 Z" id="Path" fill="#FFEC95"></path>
            <path d="M21.7223643,30 C21.5248838,30 21.3282297,29.9133888 21.1856966,29.7423986 C20.9188089,29.4222944 20.9423578,28.9289677 21.2385784,28.6405612 L25.7946761,24.2015136 C26.0904837,23.9117677 26.5474155,23.9376619 26.8143033,24.2586591 C27.0811912,24.5787634 27.0576422,25.0720901 26.7614215,25.36005 L22.2053239,29.7995442 C22.0673355,29.9339256 21.8942302,30 21.7223643,30 Z" id="Path" fill="#4C241D"></path>
            <path d="M15.7719708,18 C15.6401946,18 15.5057652,17.9619658 15.3832754,17.8824397 C15.0149212,17.6423798 14.8902203,17.1138527 15.1055726,16.7018978 C15.5486589,15.8527967 16.066035,15.0441996 16.6426662,14.2993221 C16.9216956,13.9377502 17.409002,13.8982342 17.7326938,14.2109049 C18.0555011,14.5225878 18.0908773,15.0679092 17.8118479,15.4284931 C17.2975672,16.0933507 16.8359084,16.8145186 16.44058,17.5717448 C16.2968644,17.8463813 16.0381764,18 15.7719708,18 Z" id="Path" fill="#4C241D"></path>
            <path d="M27.5100959,38 C26.9494594,38 26.3839089,37.968515 25.8138911,37.9042513 C17.8734014,37.0067155 12.1696503,30.0394912 13.0992795,22.3731294 C13.1493124,21.9595124 13.539301,21.6593275 13.9654741,21.7123773 C14.3934342,21.7602517 14.7003325,22.1350517 14.6498529,22.5486685 C13.8207362,29.3895217 18.9106906,35.6062836 25.9957072,36.4072081 C33.0775966,37.2051136 39.5206732,32.2930351 40.3497899,25.4530445 C41.1789066,18.6121912 36.0893988,12.3954294 29.0043823,11.5945049 C26.1149821,11.2680105 23.2818688,11.861911 20.8043467,13.3119424 C20.4344606,13.5284552 19.9560209,13.4137293 19.7322131,13.0574753 C19.5088519,12.7016526 19.6267866,12.2380048 19.9957792,12.0223547 C22.7739455,10.3972154 25.9519283,9.73301301 29.1857515,10.0970304 C37.1262414,10.9945662 42.8299924,17.9617904 41.9008099,25.6281523 C41.0377423,32.7441751 34.7572727,37.9995686 27.5100959,38 L27.5100959,38 Z" id="Path" fill="#4C241D"></path>
            <path d="M29,23 C29,24.1046006 28.1046007,25 27,25 C25.8953994,25 25,24.1046006 25,23 C25,21.8953994 25.8953994,21 27,21 C28.1046007,21 29,21.8953994 29,23 Z" id="Path" fill="#FFCE56"></path>
            <path d="M27.5002044,26 C26.1215565,26 25,24.8781266 25,23.5 C25,22.1214648 26.1215565,21 27.5002044,21 C28.8784435,21 30,22.1214648 30,23.5 C30,24.8781266 28.8784435,26 27.5002044,26 L27.5002044,26 Z M27.5002044,22.428805 C26.9091801,22.428805 26.4285131,22.909024 26.4285131,23.4999999 C26.4285131,24.090976 26.9091801,24.571195 27.5002044,24.571195 C28.09082,24.571195 28.571487,24.090976 28.571487,23.4999999 C28.571487,22.909024 28.09082,22.428805 27.5002044,22.428805 Z" id="Shape" fill="#4C241D"></path>
            <path d="M47,36.5002163 C47,40.090017 44.0900169,43 40.5002162,43 C36.909983,43 34,40.090017 34,36.5002163 C34,32.9104154 36.909983,30 40.5002162,30 C44.0900169,30 47,32.9104154 47,36.5002163 L47,36.5002163 Z" id="Path" fill="#FFFFFF"></path>
            <path d="M40.5002235,44 C36.3645737,44 33,40.635326 33,36.5 C33,32.3642269 36.3645737,29 40.5002235,29 C44.6354263,29 48,32.3642269 48,36.5 C48,40.635326 44.6358733,44 40.5002235,44 L40.5002235,44 Z M40.5002235,30.5623138 C37.2259439,30.5623138 34.5627142,33.2256228 34.5627142,36.499553 C34.5627142,39.7734831 37.2263909,42.4372392 40.5002235,42.4372392 C43.7736091,42.4372392 46.4372858,39.7734831 46.4372858,36.499553 C46.4372858,33.2256228 43.7736091,30.5623138 40.5002235,30.5623138 L40.5002235,30.5623138 Z" id="Shape" fill="#4C241D"></path>
            <path d="M40.6633141,38.308411 C40.2965359,38.308411 40,38.0114953 40,37.6450969 L40,33.6636938 C40,33.2972953 40.2965359,33 40.6633141,33 C41.0300922,33 41.3270078,33.2972953 41.3270078,33.6636938 L41.3270078,37.6450969 C41.3270078,38.0114953 41.0300922,38.308411 40.6633141,38.308411 Z" id="Path" fill="#4C241D"></path>
            <path d="M41.3270078,39.6357985 C41.3270078,40.0021969 41.0297125,40.2991125 40.6633141,40.2991125 C40.2969157,40.2991125 40,40.0021969 40,39.6357985 C40,39.2690203 40.2969157,38.9721048 40.6633141,38.9721048 C41.0297125,38.9721048 41.3270078,39.2690203 41.3270078,39.6357985 Z" id="Path" fill="#4C241D"></path>
        </g>
    </g>
</svg>