<?xml version="1.0" encoding="UTF-8"?>
<svg width="28px" height="28px" viewBox="0 0 28 28" version="1.1" xmlns="http://www.w3.org/2000/svg" xmlns:xlink="http://www.w3.org/1999/xlink">
    <title>01.Basics/02.Icon/Virtual/Corsa_cani@1,5x</title>
    <defs>
        <filter id="filter-1">
            <feColorMatrix in="SourceGraphic" type="matrix" values="0 0 0 0 0.200000 0 0 0 0 0.200000 0 0 0 0 0.200000 0 0 0 1.000000 0"></feColorMatrix>
        </filter>
        <filter id="filter-2">
            <feColorMatrix in="SourceGraphic" type="matrix" values="0 0 0 0 0.200000 0 0 0 0 0.200000 0 0 0 0 0.200000 0 0 0 1.000000 0"></feColorMatrix>
        </filter>
    </defs>
    <g id="Symbols" stroke="none" stroke-width="1" fill="none" fill-rule="evenodd">
        <g id="01.Basics/02.Icon/Virtual/Corsa_cani" filter="url(#filter-1)">
            <g>
                <rect id="Rectangle-Copy-7" fill="#FFFFFF" opacity="0" x="0" y="0" width="28" height="28"></rect>
                <g filter="url(#filter-2)">
                    <g transform="translate(0.000000, 9.000000)">
                        <path d="M20.2023853,5.66678899 C20.3706422,5.04770642 22.886789,3.38761468 23.8443119,3.1506422 C24.3041284,3.03697248 25.7869725,3.37605505 26.1331193,3.3940367 C26.3657605,3.40605379 26.5990172,3.39226947 26.8286239,3.35293578 C27.3674312,3.21743119 28.1862385,2.70688073 27.8779817,2.45385321 C27.7161468,2.32220183 27.3770642,2.29266055 27.1715596,2.23036697 C26.8857798,2.14238532 26.587156,2.11990826 26.3007339,2.03770642 C26.2365138,2.01844037 26.0624771,1.75449541 26.0258716,1.68449541 C25.9468792,1.51355388 25.7919693,1.38981631 25.6077982,1.35055046 C24.9655963,1.19385321 24.8493578,1.23880734 24.2880734,0.854770642 C24.0909174,0.719908257 23.9316514,0.610091743 23.7621101,0.479724771 C23.5007339,0.282568807 23.1988991,0.0423853211 22.823211,0.0642201835 C22.6305505,0.0770642202 23.373578,0.700642202 23.0351376,1.13798165 C22.676789,1.54963303 20.6589908,2.20275229 20.5472477,2.2033945 C18.8942202,2.21431193 16.4615596,1.65366972 14.4861468,1.65623853 C10.8005505,1.66522936 8.15981651,2.47119266 7.32110092,3.01834862 C6.73605505,3.40366972 3.53211009,5.90825688 1.34862385,6.21587156 C3.55009174,6.49908257 5.26220183,4.86211009 6.80733945,3.96816514 C7.0437229,3.84215326 7.29195797,3.73976167 7.54844037,3.66247706 C7.11431193,3.81082569 6.34174312,6.31926606 4.94495413,6.57743119 C3.69972477,6.80733945 1.42761468,7.79183486 0,10.3818349 C1.97605505,8.00954128 4.05293578,7.23504587 4.89229358,7.20100917 C5.69247706,7.17146789 6.48816514,7.56 7.18045872,6.88825688 C9.96889908,4.18266055 12.1376147,4.27770642 13.2499083,4.77412844 C15.7506422,5.88963303 16.4198165,6.02 18.5082569,6.39055046 C19.9686239,6.64743119 23.6651376,7.46431193 25.1524771,9.79422018 C24.3985321,7.43027523 21.3711927,6.12018349 20.2023853,5.66678899 Z" id="cane_corsa" fill="#222222"></path>
                    </g>
                </g>
            </g>
        </g>
    </g>
</svg>