<?xml version="1.0" encoding="UTF-8"?>
<svg width="28px" height="28px" viewBox="0 0 28 28" version="1.1" xmlns="http://www.w3.org/2000/svg" xmlns:xlink="http://www.w3.org/1999/xlink">
    <title>01.Basics/02.Icon/Virtual/Calcio_Pro@1,5x</title>
    <defs>
        <filter id="filter-1">
            <feColorMatrix in="SourceGraphic" type="matrix" values="0 0 0 0 0.200000 0 0 0 0 0.200000 0 0 0 0 0.200000 0 0 0 1.000000 0"></feColorMatrix>
        </filter>
        <filter id="filter-2">
            <feColorMatrix in="SourceGraphic" type="matrix" values="0 0 0 0 0.200000 0 0 0 0 0.200000 0 0 0 0 0.200000 0 0 0 1.000000 0"></feColorMatrix>
        </filter>
    </defs>
    <g id="Symbols" stroke="none" stroke-width="1" fill="none" fill-rule="evenodd">
        <g id="01.Basics/02.Icon/Virtual/Calcio_Pro" filter="url(#filter-1)">
            <g>
                <rect id="Rectangle-Copy-2" fill="#FFFFFF" opacity="0" x="0" y="0" width="28" height="28"></rect>
                <g filter="url(#filter-2)">
                    <g transform="translate(3.000000, 1.000000)">
                        <path d="M10.5,5 C11.8807119,5 13,3.88071187 13,2.5 C13,1.11928813 11.8807119,0 10.5,0 C9.11928813,0 8,1.11928813 8,2.5 L8,2.5 C8,3.88071187 9.11928813,5 10.5,5 Z" id="Path" fill="#222222" fill-rule="nonzero"></path>
                        <circle id="Oval" fill="#222222" fill-rule="nonzero" cx="12.5" cy="23.5" r="2.5"></circle>
                        <path d="M22,16.2224952 C19.9683409,17.2741619 17.5653931,17.4313296 15.4050508,16.6538456 C11.7035093,15.3528371 9.91407019,14.1492303 9.91407019,12.222068 C9.91407019,10.9419313 10.7727124,9.30001682 11.3571663,8.33295703 C11.6496711,7.85069947 12.2408386,7.61699463 12.8002624,7.76246132 C14.8317871,8.25386395 16.7942162,8.98037567 18.6448016,9.92617065 C19.1571007,10.225333 17.1656281,7.78333311 14.1639882,6.44753828 C11.9127583,5.45960669 11.1334864,5.48743575 8.47818957,5.17435884 C1.98425713,4.47863237 0,1 0,1 C0,1 2.60478846,6.56581179 4.94981961,7.12239296 C7.29485077,7.67897414 2.43161692,9.82181168 6.2125287,15.2623927 C6.2125287,15.2623927 -3.33355198,20.3759823 3.65103313,24.9469052 C4.7694326,25.6426317 0.331912102,19.3045635 7.64840931,17.4330593 C10.166612,16.7860337 12.8724172,18.8245122 13.4207937,19.0680165 C13.9691702,19.3115208 16.9708101,19.7567857 22,16.2224952 Z" id="Path" fill="#222222" fill-rule="nonzero"></path>
                    </g>
                </g>
            </g>
        </g>
    </g>
</svg>