<?xml version="1.0" encoding="UTF-8"?>
<svg width="28px" height="28px" viewBox="0 0 28 28" version="1.1" xmlns="http://www.w3.org/2000/svg" xmlns:xlink="http://www.w3.org/1999/xlink">
    <title>01.Basics/02.Icon/Virtual/Ciclismo@1,5x</title>
    <defs>
        <filter id="filter-1">
            <feColorMatrix in="SourceGraphic" type="matrix" values="0 0 0 0 0.200000 0 0 0 0 0.200000 0 0 0 0 0.200000 0 0 0 1.000000 0"></feColorMatrix>
        </filter>
        <filter id="filter-2">
            <feColorMatrix in="SourceGraphic" type="matrix" values="0 0 0 0 0.200000 0 0 0 0 0.200000 0 0 0 0 0.200000 0 0 0 1.000000 0"></feColorMatrix>
        </filter>
        <linearGradient x1="49.9702792%" y1="0.0164894647%" x2="49.9702792%" y2="99.7746817%" id="linearGradient-3">
            <stop stop-color="#1B1B1B" offset="0%"></stop>
            <stop stop-color="#1B1B1B" offset="100%"></stop>
        </linearGradient>
    </defs>
    <g id="Symbols" stroke="none" stroke-width="1" fill="none" fill-rule="evenodd">
        <g id="01.Basics/02.Icon/Virtual/Ciclismo" filter="url(#filter-1)">
            <g>
                <rect id="Rectangle-Copy-4" fill="#FFFFFF" opacity="0" x="0" y="0" width="28" height="28"></rect>
                <g filter="url(#filter-2)">
                    <g transform="translate(0.000000, 2.000000)">
                        <path d="M20.195,4.44500375 C21.0164104,4.44657359 21.7578148,3.9529789 22.0732459,3.1945458 C22.388677,2.4361127 22.21596,1.56233642 21.6356912,0.980953866 C21.0554224,0.39957131 20.181979,0.225179164 19.4229424,0.539155368 C18.6639059,0.853131571 18.1688889,1.59358807 18.1688889,2.415 C18.1688889,3.53462109 19.075381,4.44285513 20.195,4.44500375 Z M27.5644444,16.6833333 C27.1712609,15.2555095 26.253097,14.0289758 24.9938889,13.2494444 C24.0889368,12.6877968 23.0450757,12.3901281 21.98,12.39 C22.0772222,12.1022222 22.1861111,11.8066667 22.3144444,11.5111111 C22.8873197,10.0765293 23.7906973,8.79741057 24.9511111,7.77777778 C25.2823858,7.54373793 25.4226822,7.1212722 25.2972222,6.73555556 C25.1572222,6.37 24.5388889,6.31944444 24.0877778,6.68888889 C22.7363201,7.85445159 21.7133675,9.35335201 21.1205556,11.0366667 C20.9519936,11.496927 20.8117319,11.9670635 20.7005556,12.4444444 C19.9292401,12.5595422 19.1895218,12.8308163 18.5266667,13.2416667 C17.261229,14.0205844 16.3384009,15.2505586 15.9444444,16.6833333 C15.4797808,18.3839338 15.7900654,20.2029417 16.7922222,21.6533333 C18.4382139,24.1004037 21.6168966,24.9910923 24.294768,23.7555978 C26.9726394,22.5201034 28.3579378,19.5237225 27.5644444,16.6833333 L27.5644444,16.6833333 Z M25.7483333,20.9611111 C24.8234576,22.2416747 23.33991,23.0002176 21.7602778,23.0002176 C20.1806455,23.0002176 18.6970979,22.2416747 17.7722222,20.9611111 C16.9324101,19.7955013 16.6348766,18.3248357 16.9555556,16.9244444 C17.2371892,15.7089163 17.9554379,14.6391548 18.9738889,13.9183333 C19.4539657,13.5695113 19.9907701,13.3063719 20.5605556,13.1405556 C20.4568684,13.783165 20.4229677,14.435102 20.4594444,15.085 C20.4996867,16.0092494 20.7497011,16.9122267 21.1905556,17.7255556 C21.5133333,18.2855556 21.7933333,18.5033333 21.8672222,18.4644444 C22.0616667,18.3594444 21.3383333,17.185 21.4433333,15.0733333 C21.4836967,14.3496812 21.6023521,13.6325328 21.7972222,12.9344444 C22.785394,12.9823112 23.7393163,13.3115291 24.5466667,13.8833333 C25.5676367,14.6024394 26.2876276,15.6727335 26.5688889,16.8894444 C26.9042432,18.3050835 26.6045229,19.7965823 25.7483333,20.9727778 L25.7483333,20.9611111 Z M9.24777778,13.2494444 C7.25031249,12.0811964 4.77802084,12.0811964 2.78055556,13.2494444 C1.52134747,14.0289758 0.603183511,15.2555095 0.21,16.6833333 C-0.54773643,19.509528 0.83920835,22.4708412 3.49540145,23.6981061 C6.15159455,24.925371 9.30561772,24.0621624 10.9666667,21.6533333 C11.9688235,20.2029417 12.2791081,18.3839338 11.8144444,16.6833333 C11.4239861,15.2552788 10.5068453,14.0282555 9.24777778,13.2494444 Z M10.0022222,20.9727778 C9.07734651,22.2533413 7.59379893,23.0118843 6.01416667,23.0118843 C4.4345344,23.0118843 2.95098683,22.2533413 2.02611111,20.9727778 C1.18494871,19.807777 0.885987914,18.3370599 1.20555556,16.9361111 C1.48681686,15.7194002 2.20680773,14.6491061 3.22777778,13.93 C4.88846801,12.7204309 7.13986533,12.7204309 8.80055556,13.93 C9.82139923,14.6484839 10.5403246,15.7192533 10.8188889,16.9361111 C11.1395678,18.3365024 10.8420343,19.8071679 10.0022222,20.9727778 L10.0022222,20.9727778 Z M18.1922222,12.6427778 C18.4729733,12.340578 18.664168,11.9662671 18.7444444,11.5616667 C18.8024637,11.2162164 18.760639,10.8613816 18.6238889,10.5388889 C18.507277,10.279667 18.3392542,10.0468165 18.13,9.85444444 C17.6615123,9.46841754 17.1188599,9.18253233 16.5355556,9.01444444 C16.0727778,8.86277778 15.6294444,8.74611111 15.1783333,8.62555556 C14.28,8.40388889 13.3583333,8.20944444 12.4561111,7.95666667 C12.0583119,7.84749154 11.6685013,7.71105783 11.2894444,7.54833333 C12.0869322,6.61023465 13.2303004,6.0350433 14.4588889,5.95388889 C14.4588889,6.03944444 14.4588889,6.12888889 14.4588889,6.22222222 C14.535645,6.89492074 14.8386893,7.52157796 15.3183333,7.99944444 C15.7344006,8.39741034 16.2460572,8.68136638 16.8038889,8.82388889 C17.6056949,9.01539374 18.4402356,9.02469595 19.2461111,8.85111111 C19.8624794,8.72724698 20.4635894,8.53687374 21.0388889,8.28333333 C23.0611111,7.35 23.8894444,6.33888889 23.7144444,6.02 C23.52,5.65833333 22.3144444,6.06277778 20.4516667,6.40888889 C19.5611111,6.56055556 18.3477778,6.68888889 17.5544444,6.37777778 C17.422048,6.33521969 17.3046304,6.25559169 17.2161111,6.14833333 C17.1815631,6.08101869 17.1641959,6.0062059 17.1655556,5.93055556 C17.1973775,5.50104212 17.3306575,5.08520842 17.5544444,4.71722222 C17.6620027,4.56359775 17.7483373,4.39616087 17.8111111,4.21944444 C18.2,3.15777778 16.8505556,1.70333333 14.7622222,1.85111111 C12.9994453,1.96735722 11.3130336,2.61399577 9.92444444,3.70611111 C9.29065324,4.21566873 8.73395564,4.81428239 8.27166667,5.48333333 C7.95532875,5.91115293 7.72065835,6.39367747 7.57944444,6.90666667 C7.37690956,7.67638387 7.49773042,8.49543691 7.91388889,9.17388889 C8.22791899,9.66493546 8.66321776,10.0667497 9.17777778,10.3405556 C9.51401439,10.5297859 9.86837992,10.6848208 10.2355556,10.8033333 C10.8132759,10.9882602 11.4032375,11.1325019 12.0011111,11.235 C13.0783333,11.4294444 14.035,11.5383333 14.8711111,11.6744444 C15.1044444,11.7094444 15.3261111,11.7483333 15.5322222,11.7911111 L15.295,12.1411111 C14.6184419,13.1406543 14.0352451,14.2003021 13.5527778,15.3066667 C12.74,17.1888889 12.6816667,18.6316667 12.915,19.425 C13.1483333,20.2183333 13.475,20.3738889 13.6344444,20.3155556 C13.7938889,20.2572222 13.8483333,19.95 13.9844444,19.2927778 C14.2772962,18.1234088 14.7893096,17.0202046 15.4933333,16.0416667 C16.1123268,15.1233307 16.7890612,14.2452645 17.5194444,13.4127778 C17.7294444,13.16 17.955,12.9033333 18.1922222,12.6427778 Z M16.0805556,10.9938889 C16.0915803,10.9623061 16.1087642,10.9332257 16.1311111,10.9083333 C16.1622222,10.8888889 16.1311111,10.9238889 16.0805556,10.9938889 L16.0805556,10.9938889 Z" id="Shape" fill="url(#linearGradient-3)" fill-rule="nonzero"></path>
                    </g>
                </g>
            </g>
        </g>
    </g>
</svg>