<?xml version="1.0" encoding="UTF-8"?>
<svg width="28px" height="28px" viewBox="0 0 28 28" version="1.1" xmlns="http://www.w3.org/2000/svg" xmlns:xlink="http://www.w3.org/1999/xlink">
    <title>01.Basics/02.Icon/Virtual/Calcio@1,5x</title>
    <defs>
        <filter id="filter-1">
            <feColorMatrix in="SourceGraphic" type="matrix" values="0 0 0 0 0.200000 0 0 0 0 0.200000 0 0 0 0 0.200000 0 0 0 1.000000 0"></feColorMatrix>
        </filter>
        <filter id="filter-2">
            <feColorMatrix in="SourceGraphic" type="matrix" values="0 0 0 0 0.200000 0 0 0 0 0.200000 0 0 0 0 0.200000 0 0 0 1.000000 0"></feColorMatrix>
        </filter>
    </defs>
    <g id="Symbols" stroke="none" stroke-width="1" fill="none" fill-rule="evenodd">
        <g id="01.Basics/02.Icon/Virtual/Calcio" filter="url(#filter-1)">
            <g>
                <rect id="Rectangle" fill="#FFFFFF" opacity="0" x="0" y="0" width="28" height="28"></rect>
                <g filter="url(#filter-2)">
                    <g transform="translate(1.000000, 1.000000)">
                        <path d="M18.4987693,20.1529614 C17.2638173,20.1506769 16.2608451,21.1551961 16.2585634,22.3966225 C16.2562895,23.6380489 17.2555686,24.6462804 18.4905206,24.6485755 C19.7254726,24.6508627 20.7284471,23.6463459 20.7307277,22.4049195 L20.7307277,22.4049195 C20.7307277,21.1644315 19.7327794,20.1575343 18.4987693,20.1529614 Z M21.502218,4.80815756 C22.7344762,4.80810485 23.7344421,3.8059118 23.738207,2.56719899 C23.7419508,1.32848619 22.7480783,0.320186629 21.5158432,0.312542727 C20.2836082,0.304985256 19.2775016,1.30094852 19.2661339,2.53961437 L19.2661339,2.53961437 C19.2661339,3.77875342 20.2654157,4.78327409 21.4980923,4.78327409 L21.502218,4.80815756 Z M25.9908885,8.73145164 C25.8506175,8.35819956 24.608807,8.61532877 22.7646565,8.79366032 C21.8817746,8.86831074 20.7348533,8.79366032 20.2892868,8.33746334 C19.4229073,7.39603865 19.7653335,5.98182799 19.4641635,4.84133552 C19.0516019,3.18243739 17.4302347,3.09534524 15.9945202,2.91286645 C14.7842993,2.71796589 13.5466626,2.78441348 12.3639779,3.10778698 C10.9118417,3.57183896 9.60413722,4.40629894 8.56841091,5.52977825 C6.9181644,7.31309374 6.39833674,8.64850674 6.64587372,8.84757451 C6.8934107,9.04664229 8.00732709,8.17157352 9.76896525,6.92739993 C10.7283908,6.22166276 11.8160174,5.71163059 12.9704435,5.42609712 C13.4892498,5.31365849 14.022091,5.28149244 14.5505545,5.33071047 C12.9611092,7.17640094 11.720895,9.29876994 10.8911329,11.5930509 C10.3468297,13.37453 9.578772,15.078969 8.60554145,16.665132 C6.90991316,19.3691359 4.8924868,20.6133095 3.3453807,21.6127956 C1.79827459,22.6122818 0.733865589,23.4873505 0.325429578,24.155057 C-0.0830064343,24.8227635 -0.0458758878,25.1462487 0.106771915,25.2665188 C0.259419717,25.3867889 0.560589706,25.2665188 1.17943215,24.9596226 C2.29330035,24.4028269 3.43640096,23.9071939 4.60369366,23.4749088 C7.32372664,22.4346865 9.69919571,20.6487731 11.4604679,18.3198828 C12.2210987,17.3147842 12.8907431,16.2432878 13.4613918,15.1182095 C13.8161948,15.31313 14.1462441,15.5039033 14.4474141,15.6946766 C15.0067201,16.0216928 15.5062493,16.4424872 15.9243847,16.9388502 C15.8913798,17.0176478 15.845998,17.1130345 15.792365,17.2167156 C15.5999589,17.5552686 15.387807,17.8820889 15.1570201,18.1954655 C14.9342368,18.4982144 14.8063427,18.6889877 14.6330668,18.9336752 C14.3442737,19.3483997 14.071983,19.7175045 13.8079436,20.0907566 C12.9168105,21.3971389 12.384606,22.4795699 12.2319582,23.3131662 C12.0907463,23.7657676 12.1430515,24.25701 12.3763547,24.6693154 C12.4234917,24.7386926 12.4993238,24.7829058 12.5826355,24.7895856 L12.6321429,24.7895856 C12.7806651,24.7522604 12.8714287,24.6029595 13.0034484,24.374861 C13.1188972,24.1755673 13.2456243,23.9830954 13.3830051,23.7983939 C14.0317869,22.9635241 14.7390673,22.1763089 15.4994463,21.4427586 L15.7676113,21.1731876 C16.1801729,20.7584631 16.642242,20.2856771 17.1249391,19.7506825 C17.4548962,19.3941377 17.7608687,19.0159017 18.0408259,18.6184845 C18.2252073,18.3587706 18.3827939,18.0808534 18.5111461,17.7890354 C18.6017702,17.5698164 18.6641596,17.339856 18.6967989,17.10474 C18.7243737,16.8189098 18.7062671,16.5304853 18.6431659,16.2504074 C18.4323257,15.5202553 18.0288878,14.8610526 17.4756165,14.3426746 C17.0484591,13.9265003 16.5844724,13.550311 16.0894094,13.2187711 C15.6573697,12.9186531 15.2097993,12.6417812 14.7485841,12.389322 C15.4734661,11.0021589 16.3856075,9.7223738 17.459114,8.58629806 C18.0597556,10.1539475 19.6133463,11.1388866 21.2794347,11.0082893 C21.9124616,10.9772098 22.538377,10.8600202 23.1400876,10.6599207 C25.1946445,9.9258583 26.1022801,9.04664229 25.9908885,8.73145164 Z" id="Shape" fill="#222222" fill-rule="nonzero"></path>
                    </g>
                </g>
            </g>
        </g>
    </g>
</svg>