<?xml version="1.0" encoding="UTF-8"?>
<svg width="28px" height="28px" viewBox="0 0 28 28" version="1.1" xmlns="http://www.w3.org/2000/svg" xmlns:xlink="http://www.w3.org/1999/xlink">
    <title>01.Basics/02.Icon/Virtual/Motociclismo@1,5x</title>
    <defs>
        <filter id="filter-1">
            <feColorMatrix in="SourceGraphic" type="matrix" values="0 0 0 0 0.200000 0 0 0 0 0.200000 0 0 0 0 0.200000 0 0 0 1.000000 0"></feColorMatrix>
        </filter>
        <filter id="filter-2">
            <feColorMatrix in="SourceGraphic" type="matrix" values="0 0 0 0 0.200000 0 0 0 0 0.200000 0 0 0 0 0.200000 0 0 0 1.000000 0"></feColorMatrix>
        </filter>
    </defs>
    <g id="Symbols" stroke="none" stroke-width="1" fill="none" fill-rule="evenodd">
        <g id="01.Basics/02.Icon/Virtual/Motociclismo" filter="url(#filter-1)">
            <g>
                <rect id="Rectangle-Copy-5" fill="#FFFFFF" opacity="0" x="0" y="0" width="28" height="28"></rect>
                <g filter="url(#filter-2)">
                    <g transform="translate(0.000000, 1.000000)">
                        <path d="M6.99344144,22.4100901 C8.25066667,22.2547027 9.43423423,21.5927928 10.1405405,20.9096937 C11.9163964,19.1807568 10.5401081,18.7983423 9.60727928,19.6676036 C8.90702703,20.4460541 8.17095495,20.9117117 7.46868468,21.1357117 L6.99344144,22.4100901 Z" id="Path" fill="#000000" fill-rule="nonzero"></path>
                        <path d="M4.54054054,22.0412973 C3.91545946,21.730018 3.59257658,21.2512432 3.27927928,20.6508829 C2.67387387,19.4905225 2.50385586,17.0396396 5.9027027,15.3001081 C8.06097297,14.1962523 8.4565045,14.7058018 8.4565045,14.7058018 C8.4565045,14.7058018 8.64872072,14.672 8.39697297,15.170955 C4.28828829,16.2621982 2.6547027,19.4784144 4.84021622,20.7795315 L4.54054054,22.0412973 Z" id="Path" fill="#000000" fill-rule="nonzero"></path>
                        <path d="M11.4719279,14.5907748 C9.53816216,14.3602162 7.91466667,13.9788108 7.23963964,13.5419099 C6.01318919,12.7478198 6.07120721,13.9813333 7.74111712,14.8692613 C8.23553153,15.1321081 7.25427027,16.4554234 7.26284685,18.037045 L11.4719279,14.5907748 Z" id="Path" fill="#000000" fill-rule="nonzero"></path>
                        <path d="M8.52612613,20.2846126 C9.45845045,21.0817297 10.6309189,21.4818018 11.028973,20.9631712 C11.6797838,19.5883964 13.7280721,17.1127928 13.1100541,17.082018 C12.315964,18.0108108 8.52612613,20.2846126 8.52612613,20.2846126 Z" id="Path" fill="#000000" fill-rule="nonzero"></path>
                        <path d="M19.5556036,20.4697658 C19.6312793,23.3847928 18.7821982,24.1138018 17.8322162,24.0724324 C16.4781261,24.0144144 15.5952432,22.0972973 15.1351351,20.1352793 C14.5085405,17.4735135 14.789045,14.7723964 16.2778378,14.4883604 C16.859027,14.3773694 17.7409009,14.7734054 18.8755315,16.798991 C17.916973,14.0166486 16.7616577,13.546955 16.0886486,13.4894414 C13.7679279,13.2926847 13.0020901,16.9009009 13.8547027,20.445045 C14.561009,23.3847928 16.0240721,25.7156036 18.033009,25.4552793 C19.4304865,25.2746667 20.2089369,23.6814414 19.9743423,21.0756757 C19.8537658,19.7352072 19.7468108,18.7731171 19.0773333,17.5305225 C19.4885045,19.0657297 19.544,20.0136937 19.5556036,20.4697658 Z" id="Path" fill="#000000" fill-rule="nonzero"></path>
                        <path d="M18.0441081,19.9021982 C17.5148829,20.4864144 16.8837477,20.3436396 17.5148829,19.3840721 C18.146018,18.4245045 19.9016937,14.0630631 19.9016937,14.0630631 C18.7605045,13.8945586 17.8902342,14.0479279 18.0935495,14.0852613 C17.1854414,13.1418378 15.8111712,12.8744505 14.8016577,13.5247568 C13.2064144,14.5504144 13.8087928,16.0871351 12.8744505,16.907964 C11.6081441,18.0178739 8.77787387,19.6731532 7.49491892,20.8304865 C6.80122523,21.4560721 6.22003604,23.1713874 5.15603604,24.0088649 C5.15603604,24.0088649 4.7267027,21.7557477 5.7685045,20.0555676 C6.26695495,19.2423063 10.7686486,15.7208649 11.315027,15.1255495 C11.8614054,14.5302342 14.9151712,10.8115315 15.8086486,10.1814054 C15.3808288,9.92915315 14.5408288,10.2823063 14.1992793,10.0567928 C13.9687207,9.90544144 14.0221982,9.77830631 13.8824505,9.56036036 C13.7532973,9.35855856 14.8889369,9.50183784 14.901045,9.36663063 C14.0736577,8.01001802 14.6341622,6.68266667 15.9605045,5.59445045 C17.1894775,4.59099099 20.4415135,3.8196036 23.1063063,4.90731532 C24.3171171,5.40072072 25.9421261,5.95971171 26.7755676,7.32893694 C28.169009,9.61787387 28.2678919,13.0424505 27.5202162,13.382991 C26.8739459,13.6781261 25.2433874,11.3538739 25.2433874,11.3538739 L22.8086486,10.9568288 L22.2098018,11.9436396 C25.2433874,13.5232432 26.4436036,14.8016577 26.5278559,15.3682162 C26.8784865,17.7393874 23.1729009,19.9592072 22.3455135,20.949045 C21.5761441,21.8722883 22.3873874,22.7990631 22.8419459,23.2324324 C23.2965045,23.6658018 21.9121441,23.5078919 21.0186667,23.0609009 C20.1251892,22.6139099 19.6787027,21.4247928 20.4228468,20.2810811 C21.166991,19.1373694 23.6738739,16.4594595 23.3298018,15.9690811 C22.7526486,15.1462342 21.5680721,14.5216577 20.7568288,14.2320721 C20.7573333,14.2340901 18.5733333,19.317982 18.0441081,19.9021982 Z M25.7367928,10.5612973 C25.6252973,10.1112793 24.6601802,9.73088288 24.3932973,9.61232432 C24.2000721,9.52655856 23.6087928,9.87214414 23.067964,10.3267027 L25.7367928,10.5612973 Z M16.6885045,9.28742342 C17.253045,9.37571171 16.4867027,9.39790991 17.0815135,9.34291892 C17.6470631,8.32785586 18.5092613,6.56108108 18.2968649,6.55401802 C18.0844685,6.54695495 17.7464505,6.32598198 16.9851532,7.31884685 C16.5164685,7.93030631 16.4281802,8.39041441 16.6885045,9.28742342 Z" id="Shape" fill="#000000" fill-rule="nonzero"></path>
                        <path d="M25.9340541,2.58104505 C25.7882523,3.88115315 24.805982,4.8381982 23.7394595,4.71863063 C22.6729369,4.59906306 21.9272793,3.44828829 22.0745946,2.14565766 C22.2219099,0.843027027 23.2011532,-0.109477477 24.2666667,0.0100900901 C25.3321802,0.129657658 26.0798559,1.28043243 25.9340541,2.58104505 Z" id="Path" fill="#000000" fill-rule="nonzero"></path>
                        <path d="M4.65607207,18.2655856 C2.5194955,18.4381261 2.57297297,18.6379099 1.53066667,19.3881081 C0.474234234,20.1483964 -0.672504505,21.0242162 2.43877477,21.2588108 C-1.14320721,21.2588108 -0.0741621622,20.2629189 1.23401802,19.1555315 C2.57297297,18.0203964 3.14810811,18.1621622 3.76057658,18.0874955 C4.83618018,17.9583423 6.41124324,17.9265586 6.99344144,17.6985225 C6.24425225,18.1677117 5.1963964,18.2216937 4.65607207,18.2655856 Z" id="Path" fill="#000000" fill-rule="nonzero"></path>
                    </g>
                </g>
            </g>
        </g>
    </g>
</svg>