<?xml version="1.0" encoding="UTF-8"?>
<svg width="40px" height="40px" viewBox="0 0 40 40" version="1.1" xmlns="http://www.w3.org/2000/svg" xmlns:xlink="http://www.w3.org/1999/xlink">
    <title>smart/close</title>
    <g id="smart/close" stroke="none" stroke-width="1" fill="none" fill-rule="evenodd">
        <g id="header/bt_messaggi_on-copy" stroke="#FFFFFF">
            <g id="011-email-1-copy" fill-rule="nonzero" stroke-width="2">
                <g id="Group-43">
                    <path d="M20,1 C14.7532272,1 10.0032252,3.12661026 6.56491775,6.56491775 C3.12661026,10.0032252 1,14.7532272 1,20 C1,25.2467728 3.12661026,29.9967748 6.56491775,33.4350823 C10.0032252,36.8733897 14.7532272,39 20,39 C25.2467728,39 29.9967748,36.8733897 33.4350823,33.4350823 C36.8733897,29.9967748 39,25.2467728 39,20 C39,14.7532272 36.8733897,10.0032252 33.4350823,6.56491775 C29.9967748,3.12661026 25.2467728,1 20,1 Z" id="Path"></path>
                </g>
            </g>
            <g id="Group" transform="translate(20.500000, 20.500000) rotate(-45.000000) translate(-20.500000, -20.500000) translate(12.000000, 12.000000)" stroke-linecap="round" stroke-width="1.8">
                <line x1="8.5" y1="0" x2="8.5" y2="17" id="Line"></line>
                <line x1="17" y1="8.5" x2="0" y2="8.5" id="Line"></line>
            </g>
        </g>
    </g>
</svg>