<?xml version="1.0" encoding="UTF-8"?>
<svg width="58px" height="58px" viewBox="0 0 58 58" version="1.1" xmlns="http://www.w3.org/2000/svg" xmlns:xlink="http://www.w3.org/1999/xlink">
    <title>ic/Alert/Big/Clessidra/Dark</title>
    <g id="ic/Alert/Big/Clessidra/Dark" stroke="none" stroke-width="1" fill="none" fill-rule="evenodd">
        <path d="M28.9728997,0 C12.9706373,0 0,12.9847129 0,29 C0,45.0152871 12.9706373,58 28.9728997,58 C44.9751622,58 57.9457995,45.0152871 57.9457995,29 C57.9457995,12.9847129 44.9751622,0 28.9728997,0 Z M28.9728997,4 C42.7650514,4 53.9457995,15.1928813 53.9457995,29 C53.9457995,42.8071187 42.7650514,54 28.9728997,54 C15.1807481,54 4,42.8071187 4,29 C4,15.1928813 15.1807481,4 28.9728997,4 Z" id="Oval" fill="#333333" fill-rule="nonzero"></path>
        <path d="M37.8913019,15 L20.1051601,15 C19.0944124,15 18.2425308,15.7309581 18.1199281,16.7034308 C18.0405462,17.3330802 18,17.9617611 18,18.5857495 L18.003955,18.9338337 C18.0961072,22.9857338 19.7940564,26.7096616 22.6171724,29.0443664 L22.8252122,29.2112512 L22.6171508,29.3807438 C19.7133687,31.7821414 18,35.6532143 18,39.8393512 C18,40.3048043 18.0216616,40.770918 18.0646686,41.2348955 C18.157305,42.2342932 19.0214293,43 20.056645,43 L37.9398171,43 C38.9750327,43 39.8391571,42.2342932 39.9317934,41.2348955 C39.9748005,40.770918 39.996462,40.3048043 39.996462,39.8393512 L39.9925071,39.4912605 C39.9003564,35.4392887 38.2024324,31.7154357 35.3792996,29.3807368 L35.1702122,29.2112512 L35.3793012,29.0443593 C38.2830661,26.6429558 39.996462,22.7718038 39.996462,18.5857495 C39.996462,17.9619864 39.9559096,17.3333771 39.87655,16.7035579 C39.7540075,15.7310289 38.9021,15 37.8913019,15 Z M22.0032122,18.8766899 L35.9922122,18.8766899 L35.978122,19.2363493 C35.7955896,22.4631114 34.2636011,25.2742644 31.9682606,26.6772835 L30.5032279,27.5727998 C29.2590078,28.333342 29.2590078,30.0917587 30.5032279,30.852301 L31.9682435,31.7478068 L32.1952166,31.8927687 C34.2894751,33.2888645 35.7016771,35.8826749 35.9553932,38.8674773 L35.9722122,39.1222332 L22.0232122,39.1222332 L22.0410688,38.8674773 C22.3038461,35.7760749 23.8093346,33.104092 26.0282014,31.7478173 L27.4932341,30.852301 C28.7374542,30.0917587 28.7374542,28.333342 27.4932341,27.5727998 L26.0282185,26.6772939 L25.8012491,26.532334 C23.6322287,25.0863931 22.1947881,22.3555527 22.0183401,19.2363493 L22.0032122,18.8766899 Z" id="Path" fill="#333333" fill-rule="nonzero"></path>
    </g>
</svg>