<?xml version="1.0" encoding="UTF-8"?>
<svg width="34px" height="34px" viewBox="0 0 34 34" version="1.1" xmlns="http://www.w3.org/2000/svg" xmlns:xlink="http://www.w3.org/1999/xlink">
    <title>bt_print</title>
    <g id="bt_print" stroke="none" stroke-width="1" fill="none" fill-rule="evenodd">
        <g id="Group-47" transform="translate(2.000000, 1.000000)" fill="#444444" fill-rule="nonzero">
            <path d="M26.02656,6.64608 L25.19328,6.64608 L25.19328,4.79136 C25.19328,2.1504 23.04288,-1.0658141e-14 20.40192,-1.0658141e-14 L10.34208,-1.0658141e-14 C7.70112,-1.0658141e-14 5.55072,2.1504 5.55072,4.79136 L5.55072,6.64608 L4.79136,6.64608 C2.1504,6.64608 6.60804744e-13,8.79648 6.60804744e-13,11.43744 L6.60804744e-13,19.16544 C6.60804744e-13,21.8064 2.1504,23.9568 4.79136,23.9568 L5.544,23.9568 L5.544,30.03168 C5.544,31.3488 6.6192,32.424 7.93632,32.424 L22.79424,32.424 C24.11136,32.424 25.18656,31.3488 25.18656,30.03168 L25.18656,23.9568 L26.02656,23.9568 C28.66752,23.9568 30.81792,21.8064 30.81792,19.16544 L30.81792,11.43744 C30.81792,8.79648 28.66752,6.64608 26.02656,6.64608 Z M7.3584,4.79136 C7.3584,3.15168 8.69568,1.8144 10.33536,1.8144 L20.38848,1.8144 C22.02816,1.8144 23.36544,3.15168 23.36544,4.79136 L23.36544,6.64608 L7.3584,6.64608 L7.3584,4.79136 Z M23.37216,30.04512 C23.37216,30.36096 23.11008,30.62304 22.79424,30.62304 L7.93632,30.62304 C7.62048,30.62304 7.3584,30.36096 7.3584,30.04512 L7.3584,20.0256 L23.37216,20.0256 L23.37216,30.04512 Z M29.00352,19.17216 C29.00352,20.81184 27.66624,22.14912 26.02656,22.14912 L25.19328,22.14912 L25.19328,20.0256 L26.38944,20.0256 C26.89344,20.0256 27.29664,19.6224 27.29664,19.1184 C27.29664,18.6144 26.89344,18.2112 26.38944,18.2112 L4.21344,18.2112 C3.70944,18.2112 3.30624,18.6144 3.30624,19.1184 C3.30624,19.6224 3.70944,20.0256 4.21344,20.0256 L5.55072,20.0256 L5.55072,22.14912 L4.79136,22.14912 C3.15168,22.14912 1.8144,20.81184 1.8144,19.17216 L1.8144,11.44416 C1.8144,9.80448 3.15168,8.4672 4.79136,8.4672 L26.02656,8.4672 C27.66624,8.4672 29.00352,9.80448 29.00352,11.44416 L29.00352,19.17216 Z" id="Shape"></path>
            <path d="M9.55584,24.48768 L21.10752,24.48768 C21.61152,24.48768 22.01472,24.08448 22.01472,23.58048 C22.01472,23.07648 21.61152,22.67328 21.10752,22.67328 L9.55584,22.67328 C9.05184,22.67328 8.64864,23.07648 8.64864,23.58048 C8.64864,24.08448 9.05856,24.48768 9.55584,24.48768 Z" id="Path"></path>
            <path d="M21.18144,26.38272 L9.62304,26.38272 C9.11904,26.38272 8.71584,26.78592 8.71584,27.28992 C8.71584,27.79392 9.11904,28.19712 9.62304,28.19712 L21.17472,28.19712 C21.67872,28.19712 22.08192,27.79392 22.08192,27.28992 C22.08192,26.78592 21.67872,26.38272 21.18144,26.38272 Z" id="Path"></path>
            <path d="M26.0064,10.20768 L24.16512,10.20768 C23.66112,10.20768 23.25792,10.61088 23.25792,11.11488 C23.25792,11.61888 23.66112,12.02208 24.16512,12.02208 L26.0064,12.02208 C26.5104,12.02208 26.9136,11.61888 26.9136,11.11488 C26.9136,10.61088 26.5104,10.20768 26.0064,10.20768 Z" id="Path"></path>
        </g>
    </g>
</svg>