<svg xmlns="http://www.w3.org/2000/svg" viewBox="0 0 373 260"><defs><style>.cls-1{fill:#fff;}.cls-2{fill:#333;}</style></defs><title>001 - Illustrazione - Documenti Introduzione</title><g id="_001_-_Illustrazione_-_Documenti_Introduzione" data-name="001 - Illustrazione - Documenti Introduzione"><g id="Codice_Fiscale_-_Fronte" data-name="Codice Fiscale - Fronte"><path id="Sfondo" class="cls-1" d="M301.78,2.23h0A8.68,8.68,0,0,1,313.06,7L350,97.93a8.68,8.68,0,0,1-4.76,11.28L191.3,171.72A8.66,8.66,0,0,1,180,167L143.1,76a8.66,8.66,0,0,1,4.76-11.27L301.78,2.23"/><g id="Campo_Comune" data-name="Campo Comune"><polygon id="Angolo" class="cls-2" points="281.65 123.79 279.26 117.9 278.55 118.19 280.94 124.08 281.22 124.79 281.94 124.5 287.83 122.12 287.54 121.4 281.65 123.79"/><polygon id="Angolo-2" data-name="Angolo" class="cls-2" points="277.02 95.42 271.13 97.8 270.41 98.09 270.7 98.81 273.09 104.7 273.8 104.41 271.42 98.52 277.31 96.13 277.02 95.42"/><polygon id="Angolo-3" data-name="Angolo" class="cls-2" points="330.93 73.59 325.04 75.97 325.32 76.69 331.22 74.3 333.6 80.19 334.32 79.9 331.93 74.01 331.64 73.3 330.93 73.59"/><polygon id="Angolo-4" data-name="Angolo" class="cls-2" points="339.06 93.68 341.45 99.57 335.56 101.96 335.85 102.67 341.74 100.29 342.45 100 342.17 99.28 339.78 93.39 339.06 93.68"/></g><g id="Scrittine"><rect class="cls-2" x="210.85" y="57.56" width="88.61" height="5.72" rx="1.17" transform="translate(-4.02 100.19) rotate(-22.05)"/><rect class="cls-2" x="172.99" y="117.54" width="88.61" height="5.72" rx="1.17" transform="translate(-29.3 90.36) rotate(-22.05)"/><rect class="cls-2" x="179.12" y="132.68" width="88.61" height="5.72" rx="1.17" transform="translate(-34.54 93.77) rotate(-22.05)"/></g><rect id="Chip" class="cls-2" x="162.46" y="90.48" width="25.58" height="20.08" rx="5.65" transform="translate(-24.92 73.13) rotate(-22.05)"/><path id="Bordo" class="cls-2" d="M314.54,6.39A10.28,10.28,0,0,0,301.18.75L147.26,63.27a10.25,10.25,0,0,0-5.64,13.35l36.94,90.94a10.25,10.25,0,0,0,13.34,5.64h0l153.92-62.51a10.28,10.28,0,0,0,5.64-13.36Zm35.4,98.16a8.64,8.64,0,0,1-4.71,4.66L191.3,171.72A8.66,8.66,0,0,1,180,167L143.1,76a8.66,8.66,0,0,1,4.76-11.27L301.78,2.23A8.68,8.68,0,0,1,313.06,7L350,97.93A8.59,8.59,0,0,1,349.94,104.55Z"/><path id="Intestazione" class="cls-2" d="M318.16,19.46,313.06,7a8.68,8.68,0,0,0-11.28-4.76L147.86,64.75A8.66,8.66,0,0,0,143.1,76l5,12.29Z"/></g><g id="Schedina-2" data-name="Schedina"><rect id="Sfondo-2" data-name="Sfondo" class="cls-1" x="33.06" y="24.28" width="168.15" height="200.63" rx="2.54" transform="translate(-13.53 14.27) rotate(-6.59)"/><path id="Bordo-2" data-name="Bordo" class="cls-2" d="M186.62,15.58a2.54,2.54,0,0,1,2.81,2.23l22.45,194.26a2.54,2.54,0,0,1-2.23,2.81l-162,18.73a2.54,2.54,0,0,1-2.81-2.23L22.39,37.12a2.54,2.54,0,0,1,2.23-2.81l162-18.73M186.43,14l-162,18.72A4.15,4.15,0,0,0,20.8,37.3L43.26,231.56a4.15,4.15,0,0,0,4.58,3.64l162-18.73a4.14,4.14,0,0,0,3.63-4.58L191,17.63A4.15,4.15,0,0,0,186.43,14Z"/><g id="Lettura_Ottica" data-name="Lettura Ottica"><rect class="cls-2" x="48.16" y="181.84" width="5.92" height="1.72" transform="translate(-20.64 7.08) rotate(-6.59)"/><rect class="cls-2" x="48.56" y="185.26" width="5.92" height="1.72" transform="translate(-21.03 7.15) rotate(-6.59)"/><rect class="cls-2" x="48.95" y="188.68" width="5.92" height="1.72" transform="translate(-21.42 7.21) rotate(-6.59)"/><rect class="cls-2" x="49.35" y="192.11" width="5.92" height="1.72" transform="translate(-21.81 7.28) rotate(-6.59)"/><rect class="cls-2" x="50.14" y="198.96" width="5.92" height="1.72" transform="translate(-22.59 7.42) rotate(-6.59)"/><rect class="cls-2" x="50.54" y="202.38" width="5.92" height="1.72" transform="translate(-22.98 7.49) rotate(-6.59)"/><rect class="cls-2" x="50.93" y="205.81" width="5.92" height="1.72" transform="translate(-23.37 7.55) rotate(-6.59)"/><rect class="cls-2" x="51.33" y="209.23" width="5.92" height="1.72" transform="translate(-23.76 7.62) rotate(-6.59)"/><rect class="cls-2" x="51.72" y="212.66" width="5.92" height="1.72" transform="translate(-24.15 7.69) rotate(-6.59)"/><rect class="cls-2" x="52.12" y="216.08" width="5.92" height="1.72" transform="translate(-24.54 7.76) rotate(-6.59)"/><rect class="cls-2" x="57.73" y="180.73" width="5.92" height="1.72" transform="translate(-20.45 8.17) rotate(-6.59)"/><rect class="cls-2" x="58.52" y="187.58" width="5.92" height="1.72" transform="translate(-21.23 8.31) rotate(-6.59)"/><rect class="cls-2" x="58.92" y="191" width="5.92" height="1.72" transform="translate(-21.62 8.37) rotate(-6.59)"/><rect class="cls-2" x="59.71" y="197.85" width="5.92" height="1.72" transform="translate(-22.4 8.51) rotate(-6.59)"/><rect class="cls-2" x="60.5" y="204.7" width="5.92" height="1.72" transform="translate(-23.18 8.65) rotate(-6.59)"/><rect class="cls-2" x="61.29" y="211.55" width="5.92" height="1.72" transform="translate(-23.96 8.78) rotate(-6.59)"/><rect class="cls-2" x="61.69" y="214.98" width="5.92" height="1.72" transform="matrix(0.99, -0.11, 0.11, 0.99, -24.35, 8.85)"/><rect class="cls-2" x="67.3" y="179.62" width="5.92" height="1.72" transform="translate(-20.26 9.26) rotate(-6.59)"/><rect class="cls-2" x="67.69" y="183.05" width="5.92" height="1.72" transform="translate(-20.65 9.33) rotate(-6.59)"/><rect class="cls-2" x="68.49" y="189.9" width="5.92" height="1.72" transform="matrix(0.99, -0.11, 0.11, 0.99, -21.43, 9.46)"/><rect class="cls-2" x="68.88" y="193.32" width="5.92" height="1.72" transform="translate(-21.82 9.53) rotate(-6.59)"/><rect class="cls-2" x="69.28" y="196.75" width="5.92" height="1.72" transform="translate(-22.21 9.6) rotate(-6.59)"/><rect class="cls-2" x="69.67" y="200.17" width="5.92" height="1.72" transform="matrix(0.99, -0.11, 0.11, 0.99, -22.6, 9.67)"/><rect class="cls-2" x="70.47" y="207.02" width="5.92" height="1.72" transform="translate(-23.38 9.81) rotate(-6.59)"/><rect class="cls-2" x="70.86" y="210.44" width="5.92" height="1.72" transform="translate(-23.77 9.87) rotate(-6.59)"/><rect class="cls-2" x="71.26" y="213.87" width="5.92" height="1.72" transform="matrix(0.99, -0.11, 0.11, 0.99, -24.16, 9.94)"/><rect class="cls-2" x="76.87" y="178.52" width="5.92" height="1.72" transform="matrix(0.99, -0.11, 0.11, 0.99, -20.07, 10.35)"/><rect class="cls-2" x="77.26" y="181.94" width="5.92" height="1.72" transform="translate(-20.46 10.42) rotate(-6.59)"/><rect class="cls-2" x="77.66" y="185.37" width="5.92" height="1.72" transform="translate(-20.85 10.49) rotate(-6.59)"/><rect class="cls-2" x="78.06" y="188.79" width="5.92" height="1.72" transform="translate(-21.24 10.56) rotate(-6.59)"/><rect class="cls-2" x="78.85" y="195.64" width="5.92" height="1.72" transform="translate(-22.02 10.69) rotate(-6.59)"/><rect class="cls-2" x="79.24" y="199.06" width="5.92" height="1.72" transform="translate(-22.41 10.76) rotate(-6.59)"/><rect class="cls-2" x="79.64" y="202.49" width="5.92" height="1.72" transform="matrix(0.99, -0.11, 0.11, 0.99, -22.8, 10.83)"/><rect class="cls-2" x="80.03" y="205.91" width="5.92" height="1.72" transform="matrix(0.99, -0.11, 0.11, 0.99, -23.19, 10.9)"/><rect class="cls-2" x="80.43" y="209.34" width="5.92" height="1.72" transform="translate(-23.58 10.96) rotate(-6.59)"/><rect class="cls-2" x="80.83" y="212.76" width="5.92" height="1.72" transform="translate(-23.97 11.03) rotate(-6.59)"/><rect class="cls-2" x="86.44" y="177.41" width="5.92" height="1.72" transform="translate(-19.88 11.44) rotate(-6.59)"/><rect class="cls-2" x="86.83" y="180.84" width="5.92" height="1.72" transform="translate(-20.27 11.51) rotate(-6.59)"/><rect class="cls-2" x="87.23" y="184.26" width="5.92" height="1.72" transform="translate(-20.66 11.58) rotate(-6.59)"/><rect class="cls-2" x="88.02" y="191.11" width="5.92" height="1.72" transform="translate(-21.44 11.72) rotate(-6.59)"/><rect class="cls-2" x="88.42" y="194.53" width="5.92" height="1.72" transform="translate(-21.83 11.78) rotate(-6.59)"/><rect class="cls-2" x="89.21" y="201.38" width="5.92" height="1.72" transform="translate(-22.61 11.92) rotate(-6.59)"/><rect class="cls-2" x="89.6" y="204.81" width="5.92" height="1.72" transform="translate(-23 11.99) rotate(-6.59)"/><rect class="cls-2" x="90" y="208.23" width="5.92" height="1.72" transform="translate(-23.39 12.06) rotate(-6.59)"/><rect class="cls-2" x="90.4" y="211.66" width="5.92" height="1.72" transform="translate(-23.78 12.12) rotate(-6.59)"/><rect class="cls-2" x="96.01" y="176.31" width="5.92" height="1.72" transform="translate(-19.69 12.53) rotate(-6.59)"/><rect class="cls-2" x="96.4" y="179.73" width="5.92" height="1.72" transform="translate(-20.08 12.6) rotate(-6.59)"/><rect class="cls-2" x="96.8" y="183.15" width="5.92" height="1.72" transform="translate(-20.47 12.67) rotate(-6.59)"/><rect class="cls-2" x="97.19" y="186.58" width="5.92" height="1.72" transform="translate(-20.86 12.74) rotate(-6.59)"/><rect class="cls-2" x="97.59" y="190" width="5.92" height="1.72" transform="translate(-21.25 12.81) rotate(-6.59)"/><rect class="cls-2" x="97.99" y="193.43" width="5.92" height="1.72" transform="translate(-21.64 12.88) rotate(-6.59)"/><rect class="cls-2" x="98.38" y="196.85" width="5.92" height="1.72" transform="translate(-22.03 12.94) rotate(-6.59)"/><rect class="cls-2" x="98.78" y="200.28" width="5.92" height="1.72" transform="translate(-22.42 13.01) rotate(-6.59)"/><rect class="cls-2" x="99.17" y="203.7" width="5.92" height="1.72" transform="translate(-22.81 13.08) rotate(-6.59)"/><rect class="cls-2" x="99.57" y="207.13" width="5.92" height="1.72" transform="translate(-23.2 13.15) rotate(-6.59)"/><rect class="cls-2" x="99.97" y="210.55" width="5.92" height="1.72" transform="translate(-23.59 13.22) rotate(-6.59)"/><rect class="cls-2" x="105.58" y="175.2" width="5.92" height="1.72" transform="translate(-19.5 13.63) rotate(-6.59)"/><rect class="cls-2" x="105.97" y="178.62" width="5.92" height="1.72" transform="translate(-19.89 13.69) rotate(-6.59)"/><rect class="cls-2" x="106.37" y="182.05" width="5.92" height="1.72" transform="translate(-20.28 13.76) rotate(-6.59)"/><rect class="cls-2" x="107.16" y="188.9" width="5.92" height="1.72" transform="translate(-21.06 13.9) rotate(-6.59)"/><rect class="cls-2" x="107.56" y="192.32" width="5.92" height="1.72" transform="translate(-21.45 13.97) rotate(-6.59)"/><rect class="cls-2" x="107.95" y="195.75" width="5.92" height="1.72" transform="translate(-21.84 14.03) rotate(-6.59)"/><rect class="cls-2" x="108.35" y="199.17" width="5.92" height="1.72" transform="translate(-22.23 14.1) rotate(-6.59)"/><rect class="cls-2" x="108.74" y="202.6" width="5.92" height="1.72" transform="translate(-22.62 14.17) rotate(-6.59)"/><rect class="cls-2" x="109.14" y="206.02" width="5.92" height="1.72" transform="translate(-23.01 14.24) rotate(-6.59)"/><rect class="cls-2" x="109.53" y="209.44" width="5.92" height="1.72" transform="translate(-23.4 14.31) rotate(-6.59)"/><rect class="cls-2" x="115.15" y="174.09" width="5.92" height="1.72" transform="translate(-19.31 14.72) rotate(-6.59)"/><rect class="cls-2" x="115.54" y="177.52" width="5.92" height="1.72" transform="translate(-19.7 14.79) rotate(-6.59)"/><rect class="cls-2" x="115.94" y="180.94" width="5.92" height="1.72" transform="translate(-20.09 14.85) rotate(-6.59)"/><rect class="cls-2" x="116.33" y="184.37" width="5.92" height="1.72" transform="translate(-20.48 14.92) rotate(-6.59)"/><rect class="cls-2" x="116.73" y="187.79" width="5.92" height="1.72" transform="translate(-20.87 14.99) rotate(-6.59)"/><rect class="cls-2" x="117.52" y="194.64" width="5.92" height="1.72" transform="translate(-21.65 15.13) rotate(-6.59)"/><rect class="cls-2" x="117.92" y="198.07" width="5.92" height="1.72" transform="translate(-22.04 15.19) rotate(-6.59)"/><rect class="cls-2" x="118.31" y="201.49" width="5.92" height="1.72" transform="translate(-22.43 15.26) rotate(-6.59)"/><rect class="cls-2" x="118.71" y="204.91" width="5.92" height="1.72" transform="translate(-22.82 15.33) rotate(-6.59)"/><rect class="cls-2" x="119.1" y="208.34" width="5.92" height="1.72" transform="translate(-23.21 15.4) rotate(-6.59)"/><rect class="cls-2" x="124.72" y="172.99" width="5.92" height="1.72" transform="translate(-19.12 15.81) rotate(-6.59)"/><rect class="cls-2" x="125.11" y="176.41" width="5.92" height="1.72" transform="matrix(0.99, -0.11, 0.11, 0.99, -19.51, 15.88)"/><rect class="cls-2" x="125.51" y="179.84" width="5.92" height="1.72" transform="translate(-19.9 15.95) rotate(-6.59)"/><rect class="cls-2" x="126.3" y="186.69" width="5.92" height="1.72" transform="translate(-20.68 16.08) rotate(-6.59)"/><rect class="cls-2" x="127.09" y="193.53" width="5.92" height="1.72" transform="translate(-21.46 16.22) rotate(-6.59)"/><rect class="cls-2" x="127.88" y="200.38" width="5.92" height="1.72" transform="translate(-22.24 16.35) rotate(-6.59)"/><rect class="cls-2" x="128.67" y="207.23" width="5.92" height="1.72" transform="translate(-23.02 16.49) rotate(-6.59)"/><rect class="cls-2" x="134.28" y="171.88" width="5.92" height="1.72" transform="translate(-18.93 16.9) rotate(-6.59)"/><rect class="cls-2" x="134.68" y="175.31" width="5.92" height="1.72" transform="translate(-19.32 16.97) rotate(-6.59)"/><rect class="cls-2" x="135.08" y="178.73" width="5.92" height="1.72" transform="translate(-19.71 17.04) rotate(-6.59)"/><rect class="cls-2" x="135.47" y="182.15" width="5.92" height="1.72" transform="matrix(0.99, -0.11, 0.11, 0.99, -20.1, 17.1)"/><rect class="cls-2" x="135.87" y="185.58" width="5.92" height="1.72" transform="translate(-20.49 17.17) rotate(-6.59)"/><rect class="cls-2" x="136.26" y="189" width="5.92" height="1.72" transform="translate(-20.88 17.24) rotate(-6.59)"/><rect class="cls-2" x="136.66" y="192.43" width="5.92" height="1.72" transform="translate(-21.27 17.31) rotate(-6.59)"/><rect class="cls-2" x="137.06" y="195.85" width="5.92" height="1.72" transform="translate(-21.66 17.38) rotate(-6.59)"/><rect class="cls-2" x="137.45" y="199.28" width="5.92" height="1.72" transform="translate(-22.05 17.45) rotate(-6.59)"/><rect class="cls-2" x="137.85" y="202.7" width="5.92" height="1.72" transform="translate(-22.44 17.51) rotate(-6.59)"/><rect class="cls-2" x="138.24" y="206.13" width="5.92" height="1.72" transform="translate(-22.83 17.58) rotate(-6.59)"/><rect class="cls-2" x="143.85" y="170.77" width="5.92" height="1.72" transform="matrix(0.99, -0.11, 0.11, 0.99, -18.74, 17.99)"/><rect class="cls-2" x="144.25" y="174.2" width="5.92" height="1.72" transform="translate(-19.13 18.06) rotate(-6.59)"/><rect class="cls-2" x="145.04" y="181.05" width="5.92" height="1.72" transform="translate(-19.91 18.2) rotate(-6.59)"/><rect class="cls-2" x="145.83" y="187.9" width="5.92" height="1.72" transform="translate(-20.69 18.33) rotate(-6.59)"/><rect class="cls-2" x="146.23" y="191.32" width="5.92" height="1.72" transform="translate(-21.08 18.4) rotate(-6.59)"/><rect class="cls-2" x="146.62" y="194.75" width="5.92" height="1.72" transform="matrix(0.99, -0.11, 0.11, 0.99, -21.47, 18.47)"/><rect class="cls-2" x="147.02" y="198.17" width="5.92" height="1.72" transform="translate(-21.86 18.54) rotate(-6.59)"/><rect class="cls-2" x="147.42" y="201.6" width="5.92" height="1.72" transform="translate(-22.25 18.6) rotate(-6.59)"/><rect class="cls-2" x="147.81" y="205.02" width="5.92" height="1.72" transform="translate(-22.64 18.67) rotate(-6.59)"/><rect class="cls-2" x="153.42" y="169.67" width="5.92" height="1.72" transform="translate(-18.55 19.08) rotate(-6.59)"/><rect class="cls-2" x="153.82" y="173.09" width="5.92" height="1.72" transform="matrix(0.99, -0.11, 0.11, 0.99, -18.94, 19.15)"/><rect class="cls-2" x="154.22" y="176.52" width="5.92" height="1.72" transform="translate(-19.33 19.22) rotate(-6.59)"/><rect class="cls-2" x="154.61" y="179.94" width="5.92" height="1.72" transform="translate(-19.72 19.29) rotate(-6.59)"/><rect class="cls-2" x="155.01" y="183.37" width="5.92" height="1.72" transform="translate(-20.11 19.36) rotate(-6.59)"/><rect class="cls-2" x="155.4" y="186.79" width="5.92" height="1.72" transform="translate(-20.5 19.42) rotate(-6.59)"/><rect class="cls-2" x="156.19" y="193.64" width="5.92" height="1.72" transform="translate(-21.28 19.56) rotate(-6.59)"/><rect class="cls-2" x="156.59" y="197.07" width="5.92" height="1.72" transform="translate(-21.67 19.63) rotate(-6.59)"/><rect class="cls-2" x="156.99" y="200.49" width="5.92" height="1.72" transform="translate(-22.06 19.7) rotate(-6.59)"/><rect class="cls-2" x="157.38" y="203.91" width="5.92" height="1.72" transform="translate(-22.45 19.76) rotate(-6.59)"/><rect class="cls-2" x="162.99" y="168.56" width="5.92" height="1.72" transform="translate(-18.36 20.17) rotate(-6.59)"/><rect class="cls-2" x="163.39" y="171.99" width="5.92" height="1.72" transform="translate(-18.75 20.24) rotate(-6.59)"/><rect class="cls-2" x="163.78" y="175.41" width="5.92" height="1.72" transform="matrix(0.99, -0.11, 0.11, 0.99, -19.14, 20.31)"/><rect class="cls-2" x="164.58" y="182.26" width="5.92" height="1.72" transform="translate(-19.92 20.45) rotate(-6.59)"/><rect class="cls-2" x="164.97" y="185.69" width="5.92" height="1.72" transform="translate(-20.31 20.52) rotate(-6.59)"/><rect class="cls-2" x="165.37" y="189.11" width="5.92" height="1.72" transform="translate(-20.7 20.58) rotate(-6.59)"/><rect class="cls-2" x="166.56" y="199.38" width="5.92" height="1.72" transform="translate(-21.87 20.79) rotate(-6.59)"/><rect class="cls-2" x="166.95" y="202.81" width="5.92" height="1.72" transform="translate(-22.26 20.86) rotate(-6.59)"/><rect class="cls-2" x="172.56" y="167.46" width="5.92" height="1.72" transform="translate(-18.16 21.27) rotate(-6.59)"/><rect class="cls-2" x="172.96" y="170.88" width="5.92" height="1.72" transform="translate(-18.56 21.33) rotate(-6.59)"/><rect class="cls-2" x="173.35" y="174.31" width="5.92" height="1.72" transform="translate(-18.95 21.4) rotate(-6.59)"/><rect class="cls-2" x="173.75" y="177.73" width="5.92" height="1.72" transform="matrix(0.99, -0.11, 0.11, 0.99, -19.34, 21.47)"/><rect class="cls-2" x="174.15" y="181.16" width="5.92" height="1.72" transform="matrix(0.99, -0.11, 0.11, 0.99, -19.73, 21.54)"/><rect class="cls-2" x="174.54" y="184.58" width="5.92" height="1.72" transform="translate(-20.12 21.61) rotate(-6.59)"/><rect class="cls-2" x="174.94" y="188" width="5.92" height="1.72" transform="translate(-20.51 21.67) rotate(-6.59)"/><rect class="cls-2" x="175.33" y="191.43" width="5.92" height="1.72" transform="translate(-20.9 21.74) rotate(-6.59)"/><rect class="cls-2" x="175.73" y="194.85" width="5.92" height="1.72" transform="matrix(0.99, -0.11, 0.11, 0.99, -21.29, 21.81)"/><rect class="cls-2" x="176.12" y="198.28" width="5.92" height="1.72" transform="translate(-21.68 21.88) rotate(-6.59)"/><rect class="cls-2" x="176.52" y="201.7" width="5.92" height="1.72" transform="translate(-22.07 21.95) rotate(-6.59)"/><rect class="cls-2" x="182.13" y="166.35" width="5.92" height="1.72" transform="matrix(0.99, -0.11, 0.11, 0.99, -17.97, 22.36)"/><rect class="cls-2" x="182.53" y="169.78" width="5.92" height="1.72" transform="translate(-18.37 22.43) rotate(-6.59)"/><rect class="cls-2" x="183.32" y="176.62" width="5.92" height="1.72" transform="translate(-19.15 22.56) rotate(-6.59)"/><rect class="cls-2" x="183.72" y="180.05" width="5.92" height="1.72" transform="matrix(0.99, -0.11, 0.11, 0.99, -19.54, 22.63)"/><rect class="cls-2" x="184.11" y="183.47" width="5.92" height="1.72" transform="matrix(0.99, -0.11, 0.11, 0.99, -19.93, 22.7)"/><rect class="cls-2" x="184.51" y="186.9" width="5.92" height="1.72" transform="translate(-20.32 22.77) rotate(-6.59)"/><rect class="cls-2" x="184.9" y="190.32" width="5.92" height="1.72" transform="matrix(0.99, -0.11, 0.11, 0.99, -20.71, 22.83)"/><rect class="cls-2" x="185.3" y="193.75" width="5.92" height="1.72" transform="matrix(0.99, -0.11, 0.11, 0.99, -21.1, 22.9)"/><rect class="cls-2" x="185.69" y="197.17" width="5.92" height="1.72" transform="matrix(0.99, -0.11, 0.11, 0.99, -21.49, 22.97)"/><rect class="cls-2" x="186.09" y="200.6" width="5.92" height="1.72" transform="translate(-21.88 23.04) rotate(-6.59)"/><rect class="cls-2" x="191.7" y="165.24" width="5.92" height="1.72" transform="translate(-17.78 23.45) rotate(-6.59)"/><rect class="cls-2" x="192.1" y="168.67" width="5.92" height="1.72" transform="translate(-18.17 23.52) rotate(-6.59)"/><rect class="cls-2" x="192.89" y="175.52" width="5.92" height="1.72" transform="translate(-18.96 23.65) rotate(-6.59)"/><rect class="cls-2" x="193.28" y="178.94" width="5.92" height="1.72" transform="translate(-19.35 23.72) rotate(-6.59)"/><rect class="cls-2" x="194.08" y="185.79" width="5.92" height="1.72" transform="matrix(0.99, -0.11, 0.11, 0.99, -20.13, 23.86)"/><rect class="cls-2" x="194.87" y="192.64" width="5.92" height="1.72" transform="translate(-20.91 23.99) rotate(-6.59)"/><rect class="cls-2" x="195.66" y="199.49" width="5.92" height="1.72" transform="matrix(0.99, -0.11, 0.11, 0.99, -21.69, 24.13)"/></g><g id="Intestazione-2" data-name="Intestazione"><rect id="Instestazione" class="cls-2" x="32.88" y="37.79" width="150.42" height="17.14" transform="translate(-4.61 12.72) rotate(-6.59)"/><rect id="Titolo" class="cls-2" x="57.45" y="74.33" width="108.27" height="4.59" transform="translate(-8.06 13.32) rotate(-6.59)"/><rect id="Info" class="cls-2" x="125.34" y="88.47" width="63.43" height="4.59" transform="translate(-9.38 18.63) rotate(-6.59)"/><rect id="Info-2" data-name="Info" class="cls-2" x="38.88" y="98.46" width="63.43" height="4.59" transform="translate(-11.1 8.77) rotate(-6.59)"/></g></g><g id="Carta_Identità" data-name="Carta Identità"><path id="Sfondo-3" data-name="Sfondo" class="cls-1" d="M338.27,146.68h0a8.68,8.68,0,0,1,6.08,10.62L318.59,252A8.68,8.68,0,0,1,308,258.1L147.65,214.49a8.66,8.66,0,0,1-6.07-10.62l25.76-94.71A8.67,8.67,0,0,1,178,103.08l160.31,43.6"/><path id="Bordo-3" data-name="Bordo" class="cls-2" d="M345.89,157.72a10.27,10.27,0,0,0-7.2-12.58l-160.31-43.6a10.27,10.27,0,0,0-12.58,7.2L140,203.45A10.26,10.26,0,0,0,147.23,216h0l160.31,43.6a10.3,10.3,0,0,0,12.58-7.2Zm-31.36,99.53a8.61,8.61,0,0,1-6.56.85L147.65,214.49a8.66,8.66,0,0,1-6.07-10.62l25.76-94.71A8.67,8.67,0,0,1,178,103.08l160.31,43.6a8.68,8.68,0,0,1,6.08,10.62L318.59,252A8.62,8.62,0,0,1,314.53,257.25Z"/><path id="Intestazione-3" data-name="Intestazione" class="cls-2" d="M340.85,170.31l3.5-13a8.68,8.68,0,0,0-6.08-10.62L178,103.08a8.67,8.67,0,0,0-10.62,6.08L163.89,122Z"/><g id="Foto"><path id="Capoccia" class="cls-2" d="M204.27,171.63c-1.78,3-2.85,3.6-3.52,3.51-1.65,3.64-5.95,7.64-11.18,8a9.61,9.61,0,0,1-6.11-1.67c-4.35-3-6-8.67-5.5-12.63-.64-.22-1.21-1.36-1.24-4.82-.07-4.72,1.46-5,2.5-4.57a9.85,9.85,0,0,1,0-2,13.52,13.52,0,0,1,1.53-5.77,13,13,0,0,1,5-5,16.39,16.39,0,0,1,3.81-1.71,12.25,12.25,0,0,1,3.46-.73,10.07,10.07,0,0,1,2.88.22,11.5,11.5,0,0,1,6.49,3.36,9.18,9.18,0,0,1,2.53,4s5.48,1.92.47,12.76a14.4,14.4,0,0,1-1,1.69C205.6,166.59,206.72,167.59,204.27,171.63Z"/><path id="Busto" class="cls-2" d="M206.3,219.47,211.08,202c.48-2.95.16-6.53-3.24-8.44a44.49,44.49,0,0,1-11-9.21l-8.23,12.75L187,199.47l0,0-1.34,2-.55-7.23c8.14-6.58.6-8.31.6-8.31s-7.37-2.34-3.72,7.46l-4.15,6-.12-2.45-.72-18a44.49,44.49,0,0,1-14.19,2.32c-3.9,0-5.95,2.85-7.08,5.61L151,204.36Z"/></g><g id="Scrittine-2" data-name="Scrittine"><rect class="cls-2" x="232.86" y="165.72" width="88.61" height="5.72" rx="1.17" transform="translate(54.2 -67.06) rotate(15.27)"/><rect class="cls-2" x="230.52" y="171.43" width="46.12" height="5.72" rx="1.17" transform="translate(54.87 -60.65) rotate(15.27)"/><rect class="cls-2" x="227.44" y="182.73" width="46.12" height="5.72" rx="1.17" transform="translate(57.74 -59.43) rotate(15.27)"/><rect class="cls-2" x="258.48" y="230.33" width="46.12" height="5.72" rx="1.17" transform="translate(71.37 -65.93) rotate(15.27)"/></g></g></g></svg>