<?xml version="1.0" encoding="UTF-8"?>
<svg width="185px" height="60px" viewBox="0 0 185 60" version="1.1" xmlns="http://www.w3.org/2000/svg" xmlns:xlink="http://www.w3.org/1999/xlink">
    <title>logo colorato@1,5x</title>
    <g id="Page-1" stroke="none" stroke-width="1" fill="none" fill-rule="evenodd">
        <g id="01.03.00_Accesso-CTA" transform="translate(-388.000000, -153.000000)">
            <g id="Group-22" transform="translate(388.000000, 153.000000)">
                <path d="M6.58181026,0.730323783 C7.13672008,1.11557817 7.73084195,1.63833874 8.34516395,2.14331834 C8.50795334,2.27845373 9.09732223,2.45389265 9.73065614,2.16109932 C9.73065614,2.16109932 11.0531714,1.55417548 11.6663052,1.2898317 C13.1456686,0.656829099 13.8681208,1.1582525 13.2609283,2.58665724 C12.9496084,3.31923328 12.1713088,4.48447963 11.8326593,4.96100968 C11.6377873,5.23839284 11.3835032,5.79315916 11.7625529,6.15352019 C12.1427909,6.51269582 14.0903224,8.09520231 14.7212798,8.68671598 C16.336103,10.2063964 15.8334759,11.449879 13.8823797,11.2542883 C13.2609283,11.1926476 10.6158977,11.0053547 9.25060567,10.7078198 C8.75867277,10.5963923 8.53290646,10.58928 8.07305614,11.2542883 C8.07305614,11.2542883 6.8871889,13.2149368 5.90807607,14.3908517 C4.79825643,15.7291662 3.63615406,15.6189242 3.89400295,13.5918934 C4.04372166,12.4088661 4.23740539,10.6651454 4.29444109,10.2419583 C4.35028854,9.82232738 4.26117026,9.31142079 3.80250818,9.24859469 C3.37236395,9.18813938 2.24472066,9.07552656 1.373738,8.85267171 C-0.220885078,8.44726555 -0.121072605,7.89249923 0.83071062,6.88491083 C1.50919779,6.16655957 2.62733514,5.46124769 3.36404625,4.86143624 C4.20769929,4.17153453 4.14472238,2.82136607 4.16611076,1.74502457 C4.20651105,-0.34720311 4.96817528,-0.388692044 6.58181026,0.730323783" id="Fill-4" fill="#EB1E23"></path>
                <path d="M26.1576504,19.0594237 C22.2590227,20.4664913 20.5265634,22.1651668 24.3717201,25.1096957 C29.5512745,29.073667 35.3451509,32.0905053 36.5429006,33.018672 C38.6567861,34.6580776 39.3067555,35.3847266 37.9058161,38.0779512 C37.6634144,38.5473688 36.5607242,40.3396908 36.1816745,40.9584686 C34.7640997,43.2913321 33.468914,44.3001059 37.3734829,46.4954632 C39.5907457,47.742502 45.7541659,50.3811983 51.3472292,51.6744676 C55.729472,52.6891684 56.3984532,50.5198898 54.6339113,46.5239128 C52.1374112,40.8660075 48.8839999,35.6585536 46.9031976,32.7780362 C44.5540398,29.365275 44.1999431,29.3842413 47.7040739,26.8925345 C50.6307182,24.8086046 52.7362861,23.2391375 55.1507973,21.1860279 C59.6708765,17.3477088 57.1220937,15.0622612 52.0019515,15.2851161 C46.2864991,15.5340497 33.3548426,16.4634018 26.1576504,19.0594237" id="Fill-6" fill="#C1D72E"></path>
                <path d="M32.8785945,32.0628855 C32.1537659,31.0979714 31.374278,30.242114 30.7765914,29.4787176 C28.7850949,28.2399765 26.5274318,26.7582289 24.3719577,25.1105255 C20.5256128,22.1648112 22.2580721,20.4661357 26.157888,19.0590681 C26.6426915,18.8848146 27.1560128,18.7176734 27.6883459,18.5576447 C27.956889,18.4070991 28.244444,18.2589243 28.5723993,18.1202328 C30.184846,17.4303311 33.2136793,16.3836245 35.4285656,15.1105069 C37.9892308,13.6382425 38.0296311,13.1083695 36.8901054,10.5728029 C36.0725937,8.7603292 34.6419482,6.79968071 33.4002335,5.0986344 C29.58003,-0.131342112 28.5985406,0.156709632 26.3979133,4.49408136 C24.924491,7.39830676 22.6917811,12.6306541 21.2623239,15.4376768 C20.7537556,16.435782 20.5933426,16.6550807 19.541747,17.1802121 C17.9910889,17.9590186 14.2433682,18.8895561 11.8549983,19.5865702 C8.95806007,20.4305737 6.14667541,21.6147864 4.48788717,22.4504921 C1.83097419,23.7864358 0.771060785,25.8561409 5.05230294,28.2933194 C8.7631881,30.4104405 12.8055933,32.2063186 14.8018427,34.0353879 C16.1504994,35.274129 16.1231697,35.2717582 15.5563775,37.1304624 C15.0882095,38.6584406 11.571008,49.5131312 10.3328581,54.5273653 C9.11728473,59.4538799 11.0362983,60.9865996 15.1547511,58.0883012 C20.0336799,54.6530175 27.5885335,47.5963425 32.6742166,42.0095611 C37.2097429,37.0285182 36.0856644,36.3350603 32.8785945,32.0628855" id="Fill-8" fill="#00653B"></path>
                <path d="M127.270894,37.5338534 C123.110853,36.6566588 120.716542,36.276146 120.716542,34.0772325 C120.716542,32.1272526 122.605849,31.0603943 125.94719,31.0603943 C128.279713,31.0603943 130.505293,31.774004 132.348259,32.9309525 C132.84851,33.2545662 133.441444,33.4537131 134.083095,33.4537131 C135.848825,33.4537131 137.280659,32.024123 137.280659,30.2638067 C137.280659,29.4138763 136.940821,28.6587777 136.396606,28.085045 C134.557204,26.1635146 130.897414,24.8358687 125.380398,24.8358687 C117.565319,24.8358687 112.522413,28.7962839 112.522413,34.769505 C112.522413,41.7479437 119.139742,43.1313034 123.36276,44.0748803 C127.522802,44.9532603 129.98009,45.3314023 129.98009,47.655968 C129.98009,49.6059479 128.026617,50.6111655 124.56051,50.6111655 C121.592277,50.6111655 119.076765,49.8299881 117.095963,48.656444 L117.090022,48.6374776 C116.613536,48.3458697 116.055061,48.1787286 115.456187,48.1787286 C113.722539,48.1787286 112.316847,49.5798691 112.316847,51.309365 C112.316847,52.193672 112.684014,52.9950011 113.275759,53.5616214 L113.291206,53.5877002 C115.288644,55.4973766 119.182519,56.835691 125.064325,56.835691 C133.510362,56.835691 138.613869,53.0649396 138.613869,46.9032402 C138.613869,39.923616 131.618678,38.4798011 127.270894,37.5338534" id="Fill-10" fill="#00653B"></path>
                <path d="M103.887802,14.8352575 C100.798368,14.8352575 98.9090608,16.5327476 98.9090608,19.2994668 C98.9090608,22.1254559 100.798368,23.8253168 103.887802,23.8253168 C106.974859,23.8253168 108.802378,22.1254559 108.802378,19.2994668 C108.802378,16.4699215 106.974859,14.8352575 103.887802,14.8352575" id="Fill-12" fill="#00653B"></path>
                <path d="M108.197443,32.6834414 C108.197443,30.2889372 106.255853,28.3496259 103.855601,28.3496259 C101.455348,28.3496259 99.5101933,30.2889372 99.5101933,32.6834414 L99.5161346,33.2856236 L99.5161346,52.3160051 L99.5101933,52.3503816 C99.5101933,54.7401442 101.455348,56.6830118 103.855601,56.6830118 C106.255853,56.6830118 108.197443,54.7401442 108.197443,52.3503816 L108.193879,52.3160051 L108.193879,33.2856236 L108.197443,32.6834414 Z" id="Fill-14" fill="#00653B"></path>
                <path d="M162.394903,44.1368766 C162.394903,48.1589324 159.30547,51.0524892 154.894709,51.0524892 C151.934794,51.0524892 150.106087,49.6051181 150.106087,47.3433785 C150.106087,44.010039 153.761124,42.6290502 160.756315,42.4370157 L162.394903,42.375375 L162.394903,44.1368766 Z M156.660439,24.7722129 C149.356305,24.7722129 144.989509,27.0552896 143.409145,29.872981 C143.096637,30.4289327 142.924341,31.0737893 142.924341,31.7530224 C142.924341,33.8665873 144.642542,35.5818583 146.76118,35.5818583 C147.954177,35.5818583 148.977255,35.0780641 149.680695,34.2257629 C150.985387,32.6527396 152.998272,31.4377065 156.093647,31.4377065 C160.190711,31.4377065 162.394903,33.5749793 162.394903,37.534209 L161.384896,37.534209 C147.901894,37.7238727 141.598261,40.9303747 141.598261,47.9704541 C141.598261,53.189762 145.505207,56.8360467 151.934794,56.8360467 C156.533297,56.8360467 160.378454,54.8848814 162.583834,51.6795648 C163.087649,55.0757304 165.043498,56.5859277 167.813295,56.5859277 C169.516048,56.5859277 171.153448,56.018122 171.153448,55.5783393 L171.153448,37.4085568 C171.153448,29.1747815 166.364825,24.7722129 156.660439,24.7722129 L156.660439,24.7722129 Z" id="Fill-16" fill="#00653B"></path>
                <path d="M82.2870758,31.5628845 C77.2429812,30.4308293 73.5879435,30.1155134 73.5879435,26.5972518 C73.5879435,23.6408689 76.1723736,21.7560859 80.6461112,21.7560859 C83.2281648,21.7560859 85.7211002,22.5301509 87.8219151,23.7534817 C88.401778,24.0960618 89.1147243,24.326029 89.8383647,24.326029 C91.9890858,24.326029 93.7334276,22.58705 93.7334276,20.4426648 C93.7334276,19.0948671 93.0406815,17.8988004 91.9985918,17.2006009 C89.5757628,15.6382462 85.7650652,14.5263427 80.5213456,14.5263427 C70.7527939,14.5263427 64.6404682,19.555987 64.6404682,27.0998606 C64.6404682,35.3976475 71.318398,37.9106915 77.8727504,39.3580626 C82.6625608,40.4284771 86.758437,40.9927266 86.758437,44.6390112 C86.758437,47.782687 84.1751951,49.604644 79.3247842,49.604644 C76.135538,49.604644 73.0983871,48.550825 70.6755581,47.026403 L70.6838758,47.026403 C70.0505419,46.5688394 69.2722423,46.3009394 68.4297775,46.3009394 C66.3016329,46.3009394 64.5751148,48.0209521 64.5751148,50.1440001 C64.5751148,51.2843531 65.0729889,52.3097225 65.8643593,53.013849 L65.9011948,53.0067366 C68.3264003,55.1594196 72.7442904,56.8355725 79.3865729,56.8355725 C90.161567,56.8355725 96.0861502,52.0572327 96.0861502,43.9479241 C96.0861502,36.2772129 89.6577517,33.1975486 82.2870758,31.5628845" id="Fill-18" fill="#00653B"></path>
                <path d="M184.531765,52.3165978 L184.531765,21.4725387 C184.531765,15.8845719 181.701368,14.5344034 179.118127,14.5344034 C177.395173,14.5344034 175.855209,15.2100804 175.855209,15.5159131 L175.855209,52.3165978 L175.850456,52.3497889 C175.850456,54.7407369 177.794423,56.6836045 180.194675,56.6836045 C182.593739,56.6836045 184.538894,54.7407369 184.538894,52.3497889 L184.531765,52.3165978 Z" id="Fill-20" fill="#00653B"></path>
            </g>
        </g>
    </g>
</svg>