<?xml version="1.0" encoding="UTF-8"?>
<svg width="18px" height="18px" viewBox="0 0 18 18" version="1.1" xmlns="http://www.w3.org/2000/svg" xmlns:xlink="http://www.w3.org/1999/xlink">
    <title>icona/maglietta4</title>
    <defs>
        <circle id="path-1" cx="9" cy="9" r="9"></circle>
    </defs>
    <g id="icona/maglietta4" stroke="none" stroke-width="1" fill="none" fill-rule="evenodd">
        <mask id="mask-2" fill="white">
            <use xlink:href="#path-1"></use>
        </mask>
        <path d="M13.9348908,6.40805293 L11.9195968,4.83149937 C11.8029756,4.74019333 11.6703583,4.67222525 11.5288153,4.6312299 L10.5872523,4.35762958 L10.2845177,4.04976715 C10.2284239,3.99248488 10.1402989,3.98360652 10.0742246,4.0285743 C9.74953696,4.22707605 9.3788141,4.33423203 9,4.33907838 C8.62137227,4.33308003 8.25092285,4.22600349 7.92578595,4.0285743 C7.85971169,3.98368597 7.77164524,3.99256432 7.71549286,4.04976715 L7.41275832,4.35762958 L6.4711953,4.6312299 C6.32963272,4.67222525 6.19703499,4.74019333 6.08041383,4.83149937 L4.06510021,6.40805293 C3.99558846,6.46241548 3.97935798,6.56226221 4.02799082,6.63646699 L5.3613314,8.67034522 C5.38721032,8.70991051 5.42826503,8.7365853 5.47445646,8.74383496 C5.52060883,8.75096545 5.56760105,8.73825372 5.6041831,8.70875851 L6.16668341,8.25109618 L6.16668341,13.8305168 C6.16666388,13.8754845 6.18420295,13.9186051 6.2154725,13.9503845 C6.24674205,13.9821638 6.28914442,14 6.33334366,14 L11.6666865,14 C11.7109052,14 11.7533076,13.9821837 11.7845576,13.9503845 C11.8158272,13.9185853 11.8333662,13.8754647 11.8333467,13.8305168 L11.8333467,8.25109618 L12.395847,8.70875851 C12.4323509,8.73841261 12.4794018,8.75114421 12.5255737,8.74385483 C12.5717456,8.73654558 12.6127612,8.70989065 12.6386987,8.67036508 L13.9720393,6.63648685 C14.0206331,6.56226221 14.0044026,6.46241548 13.9348908,6.40805293 Z" id="Shape" fill="#DE3901" fill-rule="nonzero" mask="url(#mask-2)"></path>
    </g>
</svg>