<?xml version="1.0" encoding="UTF-8"?>
<svg width="42px" height="58px" viewBox="0 0 42 58" version="1.1" xmlns="http://www.w3.org/2000/svg" xmlns:xlink="http://www.w3.org/1999/xlink">
    <title>01.Basics/09.Virtual/Flags/Automobilismo</title>
    <defs>
        <path d="M4,4.97379915e-14 L39,4.97379915e-14 L39,4.97379915e-14 L32.0253842,42.9169288 L0,29 L0,4 C-2.705415e-16,1.790861 1.790861,5.01438038e-14 4,4.97379915e-14 Z" id="path-1"></path>
        <filter x="-10.3%" y="-4.7%" width="120.5%" height="118.6%" filterUnits="objectBoundingBox" id="filter-2">
            <feOffset dx="0" dy="2" in="SourceAlpha" result="shadowOffsetOuter1"></feOffset>
            <feGaussianBlur stdDeviation="1" in="shadowOffsetOuter1" result="shadowBlurOuter1"></feGaussianBlur>
            <feColorMatrix values="0 0 0 0 0   0 0 0 0 0   0 0 0 0 0  0 0 0 0.5 0" type="matrix" in="shadowBlurOuter1"></feColorMatrix>
        </filter>
        <filter id="filter-3">
            <feColorMatrix in="SourceGraphic" type="matrix" values="0 0 0 0 1.000000 0 0 0 0 1.000000 0 0 0 0 1.000000 0 0 0 1.000000 0"></feColorMatrix>
        </filter>
        <filter id="filter-4">
            <feColorMatrix in="SourceGraphic" type="matrix" values="0 0 0 0 0.200000 0 0 0 0 0.200000 0 0 0 0 0.200000 0 0 0 1.000000 0"></feColorMatrix>
        </filter>
    </defs>
    <g id="01.Basics/09.Virtual/Flags/Automobilismo" stroke="none" stroke-width="1" fill="none" fill-rule="evenodd">
        <g id="BG">
            <rect fill="#FFFFFF" opacity="0" x="0" y="0" width="42" height="58"></rect>
            <path d="M4.15816284,0.164545387 L36,1.42457959 L36,1.42457959 L17.9701653,53 L0,40.406002 L0,4.16141723 C-1.6956855e-15,1.95227823 1.790861,0.161417228 4,0.161417228 C4.05273641,0.161417228 4.10546767,0.162460152 4.15816284,0.164545387 Z" id="Rectangle-5" fill="#979797"></path>
            <g id="Rectangle-5-Copy-3">
                <use fill="black" fill-opacity="1" filter="url(#filter-2)" xlink:href="#path-1"></use>
                <use fill="#333333" fill-rule="evenodd" xlink:href="#path-1"></use>
            </g>
        </g>
        <g id="01.Basics/02.Icon/Virtual/Automobilismo" transform="translate(10.000000, 10.000000)" filter="url(#filter-3)">
            <g>
                <rect id="Rectangle-Copy-9" fill="#FFFFFF" opacity="0" x="0" y="0" width="18" height="18"></rect>
                <g filter="url(#filter-4)">
                    <g transform="translate(0.000000, 6.428571)">
                        <path d="M8.93737327,1.7635023 C7.73211982,1.8124424 5.4535023,2.20976959 4.49253456,2.97124424 C6.17599078,2.05506912 8.78847926,2.12516129 10.1393088,2.16539171 C10.7382028,2.18364055 11.7389862,2.27073733 12.3818433,2.33709677 C12.4735023,2.34663594 12.5581106,2.35534562 12.6306912,2.3640553 C11.4183871,2.03225806 10.6502765,1.69465438 8.93737327,1.7635023 Z" id="Path" fill="#222222" fill-rule="nonzero"></path>
                        <path d="M8.17050691,1.19156682 C8.01497696,1.10861751 7.86732719,1.06714286 7.88018433,0.851474654 C7.98387097,0.391105991 8.13483871,0.235576037 8.09253456,0.14640553 C7.95110599,-0.148894009 7.16225806,0.0841935484 6.9362212,0.143087558 C6.26557604,0.338018433 5.63184332,0.705069124 4.85543779,1.17705069 C4.59124424,1.35539171 4.31626728,1.52253456 4.11718894,1.63327189 C4.28723502,1.62580645 4.58046083,1.52460829 4.95207373,1.30147465 C5.65009217,0.906221198 6.6297235,0.31562212 7.42645161,0.373271889 C7.7035023,0.448341014 7.0743318,1.01986175 7.08967742,1.20276498 C7.10875576,1.30023041 7.24023041,1.30894009 7.43723502,1.32179724 C7.75866359,1.33672811 8.37788018,1.65069124 8.34967742,1.90534562 C8.45709677,1.85889401 8.78764977,1.87423963 8.94691244,1.86926267 C8.96599078,1.70046083 8.36046083,1.29483871 8.17050691,1.19156682 Z" id="Path" fill="#222222" fill-rule="nonzero"></path>
                        <path d="M0,0.488985167 C0,1.09990783 0.0244700461,1.23760369 0.105345622,1.33175115 C1.02235023,1.88170507 0.790921659,2.47603687 1.02110599,2.47603687 C1.17331797,1.95718894 0.749447005,1.46073733 0.749447005,1.29857143 C0.693870968,0.953917051 0.693870968,0.768110599 1.02608295,0.795069124 C1.78589862,0.791751152 1.85806452,0.801290323 2.66557604,0.801290323 C2.97497696,0.801290323 2.87834101,1.17705069 2.99737327,1.16502304 C3.21967742,1.14221198 3.3059447,0.616313364 2.940553,0.616313364 C2.57516129,0.616313364 0.622119816,0.488571429 0,0.488985167 Z" id="Path" fill="#222222" fill-rule="nonzero"></path>
                        <path d="M12.7882949,4.2602765 C12.5933641,4.13585253 12.2756682,3.75345622 12.3656682,3.26488479 C12.1582949,3.32543779 11.9670968,3.45940092 11.7584793,3.74474654 C10.0920276,3.64105991 8.33267281,4.02884793 4.99437788,4.11428571 C4.59746544,4.21133641 12.6124424,4.21009217 12.7882949,4.2602765 Z" id="Path" fill="#222222" fill-rule="nonzero"></path>
                        <path d="M12.3262673,3.06912442 C10.8700922,2.62907834 9.06345622,3.70078341 7.59442396,3.73271889 C6.59364055,3.75552995 5.93792627,3.43617512 4.9197235,3.18317972 C5.41741935,3.44903226 6.37880184,3.8102765 6.93497696,3.87248848 C7.51023041,3.93677419 8.13483871,3.85631336 8.70428571,3.75138249 C8.98382488,3.70410138 12.3930415,3.11059908 12.3262673,3.06912442 Z" id="Path" fill="#222222" fill-rule="nonzero"></path>
                        <path d="M11.0285253,1.89124424 C11.3300461,1.82447005 12.7559447,1.34253456 15.5907373,2.14631336 C16.1004608,2.29147465 17.5400461,2.85428571 17.5620276,3.06995392 C17.613871,3.9778341 16.4712442,3.5635023 15.7018894,3.60912442 C15.7259447,3.70119816 15.5708295,4.11096774 15.2962673,4.23124424 C16.1514747,4.23124424 16.9137788,4.23414747 17.7017972,4.23663594 C17.914977,4.23663594 18.1003687,2.90281106 17.8386636,2.75184332 C16.5259908,1.99368664 13.1852074,0.899170507 11.0285253,1.89124424 Z" id="Path" fill="#222222" fill-rule="nonzero"></path>
                        <path d="M10.7858986,1.21603687 C10.5569585,1.18576037 10.3135023,1.13308756 10.2094009,1.2483871 C9.97341014,1.58930876 10.5731336,1.48852535 10.7639171,1.43751152 C10.7693088,1.56193548 10.7162212,1.63327189 10.6900922,1.74442396 C10.8456221,1.66686636 10.921106,1.26124424 10.7858986,1.21603687 Z" id="Path" fill="#222222" fill-rule="nonzero"></path>
                        <path d="M9.68723558,0.912442396 C9.68757062,1.16263184 9.53711841,1.38837267 9.30606975,1.48434865 C9.0750211,1.58032464 8.80890584,1.52762301 8.63187634,1.35083097 C8.45484683,1.17403893 8.40178805,0.907994653 8.49745381,0.67681738 C8.59311958,0.445640106 8.81865826,0.294884653 9.06884793,0.294884653 L9.06884793,0.294884653 C9.2327444,0.294774758 9.3899718,0.359776868 9.50594188,0.475591393 C9.62191197,0.591405917 9.68712506,0.748545927 9.68723558,0.912442396 Z" id="Path" fill="#222222" fill-rule="nonzero"></path>
                        <path d="M4.41829493,3.06456221 C4.41829493,3.95033024 3.70023807,4.6683871 2.81447005,4.6683871 C1.92870202,4.6683871 1.21064516,3.95033024 1.21064516,3.06456221 C1.21064516,2.17879419 1.92870202,1.46073733 2.81447005,1.46073733 C3.70023807,1.46073733 4.41829493,2.17879419 4.41829493,3.06456221 Z M2.77880184,1.82488417 C2.07386934,1.82419865 1.50180957,2.3950219 1.50096941,3.09995423 C1.50013109,3.80488657 2.07083007,4.3770703 2.77576221,4.37806394 C3.48069435,4.37905499 4.05300202,3.80848029 4.05414915,3.10354839 L4.05414915,3.10354839 C4.05469785,2.76483203 3.92061417,2.43978206 3.68141657,2.19996216 C3.44221898,1.96014227 3.11751848,1.82521448 2.77880184,1.82488417 Z" id="Shape" fill="#222222" fill-rule="nonzero"></path>
                        <path d="M15.6073272,3.12096774 C15.6073272,3.97558385 14.9145239,4.6683871 14.0599078,4.6683871 C13.2052917,4.6683871 12.5124885,3.97558385 12.5124885,3.12096774 C12.5124885,2.26635163 13.2052917,1.57354833 14.0599078,1.57354833 L14.0599078,1.57354833 C14.4703427,1.57343834 14.8639988,1.73643421 15.1542201,2.02665549 C15.4444414,2.31687677 15.6074372,2.71053288 15.6073272,3.12096774 L15.6073272,3.12096774 Z M14.0093088,1.95511521 C13.3603869,1.95511521 12.8343318,2.48117031 12.8343318,3.13009217 C12.8343318,3.77901402 13.3603869,4.30506912 14.0093088,4.30506912 C14.6582306,4.30506912 15.1842857,3.77901402 15.1842857,3.13009217 L15.1842857,3.13009217 C15.1842857,2.8184689 15.0604939,2.51960891 14.8401429,2.29925799 C14.619792,2.07890707 14.320932,1.95511521 14.0093088,1.95511521 Z" id="Shape" fill="#222222"></path>
                    </g>
                </g>
            </g>
        </g>
    </g>
</svg>