<?xml version="1.0" encoding="UTF-8"?>
<svg width="42px" height="58px" viewBox="0 0 42 58" version="1.1" xmlns="http://www.w3.org/2000/svg" xmlns:xlink="http://www.w3.org/1999/xlink">
    <title>01.Basics/09.Virtual/Flags/Biglie</title>
    <defs>
        <path d="M4,4.97379915e-14 L39,4.97379915e-14 L39,4.97379915e-14 L32.0253842,42.9169288 L0,29 L0,4 C-2.705415e-16,1.790861 1.790861,5.01438038e-14 4,4.97379915e-14 Z" id="path-1"></path>
        <filter x="-10.3%" y="-4.7%" width="120.5%" height="118.6%" filterUnits="objectBoundingBox" id="filter-2">
            <feOffset dx="0" dy="2" in="SourceAlpha" result="shadowOffsetOuter1"></feOffset>
            <feGaussianBlur stdDeviation="1" in="shadowOffsetOuter1" result="shadowBlurOuter1"></feGaussianBlur>
            <feColorMatrix values="0 0 0 0 0   0 0 0 0 0   0 0 0 0 0  0 0 0 0.37729458 0" type="matrix" in="shadowBlurOuter1"></feColorMatrix>
        </filter>
        <filter id="filter-3">
            <feColorMatrix in="SourceGraphic" type="matrix" values="0 0 0 0 1.000000 0 0 0 0 1.000000 0 0 0 0 1.000000 0 0 0 1.000000 0"></feColorMatrix>
        </filter>
        <filter id="filter-4">
            <feColorMatrix in="SourceGraphic" type="matrix" values="0 0 0 0 0.200000 0 0 0 0 0.200000 0 0 0 0 0.200000 0 0 0 1.000000 0"></feColorMatrix>
        </filter>
        <filter id="filter-5">
            <feColorMatrix in="SourceGraphic" type="matrix" values="0 0 0 0 1.000000 0 0 0 0 1.000000 0 0 0 0 1.000000 0 0 0 1.000000 0"></feColorMatrix>
        </filter>
    </defs>
    <g id="01.Basics/09.Virtual/Flags/Biglie" stroke="none" stroke-width="1" fill="none" fill-rule="evenodd">
        <g id="BG">
            <rect fill="#FFFFFF" opacity="0" x="0" y="0" width="42" height="58"></rect>
            <path d="M4.15816284,0.164545387 L36,1.42457959 L36,1.42457959 L17.9701653,53 L0,40.406002 L0,4.16141723 C-1.6956855e-15,1.95227823 1.790861,0.161417228 4,0.161417228 C4.05273641,0.161417228 4.10546767,0.162460152 4.15816284,0.164545387 Z" id="Rectangle-5" fill="#C33A99"></path>
            <g id="Rectangle-5-Copy-3">
                <use fill="black" fill-opacity="1" filter="url(#filter-2)" xlink:href="#path-1"></use>
                <use fill="#8D1C6B" fill-rule="evenodd" xlink:href="#path-1"></use>
            </g>
        </g>
        <g id="01.Basics/02.Icon/Virtual/Biglie" transform="translate(10.000000, 10.000000)" filter="url(#filter-3)">
            <g>
                <rect id="Rectangle-Copy-4" fill="#FFFFFF" opacity="0" x="0" y="0" width="18" height="18"></rect>
                <g filter="url(#filter-4)" id="01.Basics/02.Icon/Virtual/biglie">
                    <g transform="translate(1.285714, 1.928571)" filter="url(#filter-5)" id="marbles">
                        <g>
                            <path d="M10.2857143,3.6 C10.20735,3.6 10.1294679,3.60205714 10.0519393,3.60552857 C9.37788143,1.46107081 7.39075628,0.00160521176 5.14285714,0 C2.30708571,0 0,2.30705357 0,5.14285714 C0,7.97866071 2.30708571,10.2857143 5.14285714,10.2857143 C5.2209,10.2857143 5.29936071,10.28385 5.37766071,10.2803464 C6.03279643,12.3671893 7.9848,13.8853607 10.2849107,13.8857143 L10.2863893,13.8857143 C13.1218714,13.8853286 15.4285714,11.5784357 15.4285714,8.74285714 C15.4285714,5.90727857 13.1215179,3.6 10.2857143,3.6 Z M9.26325,7.51291071 C9.44723571,8.34078214 9.84522857,8.80505357 10.1963571,9.21468214 C10.5366214,9.61161429 10.8054,9.92503929 10.8574714,10.5008143 C10.9043357,11.0188607 10.7690786,11.6946643 10.4354036,12.5894571 C10.1638929,10.8216 9.53861786,10.1733107 8.97740357,9.5913 C8.54784643,9.14592857 8.17682143,8.76124286 7.96374643,7.90907143 C7.68844286,6.80766429 8.599275,5.66768571 9.39043929,4.91943214 C9.16273929,5.56155 9.02439643,6.43789286 9.26325,7.51291071 Z M11.3696679,10.4544964 C11.3027786,9.71521071 10.9387929,9.29057143 10.5867964,8.87997857 C10.2596464,8.49834643 9.92143929,8.10369643 9.76532143,7.40140714 C9.56995714,6.52233214 9.62768571,5.69098929 9.93686786,4.930425 C9.98531013,4.81127648 10.0400296,4.69477756 10.1007964,4.58141786 C10.2315536,5.36891786 10.5992679,6.67513929 11.6334321,7.88165357 C12.1277893,8.45839286 12.3356893,9.20230714 12.2347607,10.032975 C12.1239643,10.944225 11.6364536,11.922975 10.9454786,12.6907071 C11.285775,11.7559929 11.4218679,11.0314286 11.3696679,10.4544964 L11.3696679,10.4544964 Z M5.14285714,0.514285714 C7.12602483,0.515649482 8.88859682,1.77856852 9.52752857,3.65599286 C9.40821429,3.67371429 9.29035714,3.69552857 9.17395714,3.72143571 C8.33657143,2.88366429 7.11170357,2.00696786 5.85208929,2.32196786 C4.866525,2.568375 4.39425,3.02387143 3.93756429,3.46435714 C3.314925,4.06485 2.67168214,4.68491786 0.522996429,4.86552857 C0.666771429,2.44195714 2.68392857,0.514285714 5.14285714,0.514285714 Z M5.51529643,6.82193571 C4.77160714,7.20855 3.83004643,7.21407857 2.85226071,6.83479286 C2.24279789,6.59246976 1.68166893,6.24293578 1.19545714,5.80275 C2.13010714,6.14314286 2.85431786,6.27917143 3.43125,6.22681071 C4.17053571,6.15992143 4.59514286,5.79609643 5.00576786,5.44393929 C5.38736786,5.11678929 5.78201786,4.77858214 6.48433929,4.62246429 C6.77377361,4.55742188 7.06880846,4.52045776 7.36534286,4.51208571 C6.53684102,5.08540268 5.89383153,5.88822333 5.51529643,6.82193571 L5.51529643,6.82193571 Z M8.18138571,4.05054643 C7.57947374,3.96030489 6.96596299,3.98399833 6.37280357,4.12039286 C5.54493214,4.30437857 5.08066071,4.70237143 4.67106429,5.0535 C4.2741,5.39376429 3.96070714,5.66254286 3.3849,5.71461429 C2.86688571,5.76154286 2.19088929,5.626125 1.29616071,5.29241786 C3.06401786,5.02093929 3.71240357,4.39585714 4.29441429,3.83454643 C4.73978571,3.40498929 5.12443929,3.03399643 5.97664286,2.82088929 C6.52371429,2.68425 7.40886429,2.772675 8.60175,3.88346786 C8.45871429,3.93316071 8.31859286,3.98885357 8.18138571,4.05054643 L8.18138571,4.05054643 Z M5.14285714,9.77142857 C2.85823929,9.77142857 0.955189286,8.10755357 0.581207143,5.92797857 C1.17053159,6.53220144 1.88118031,7.00471475 2.66634643,7.31439643 C3.20997857,7.52515714 3.74698929,7.6302 4.25622857,7.6302 C4.61161919,7.6319512 4.96501012,7.57694817 5.30305714,7.46726786 C5.11081217,8.22083946 5.0913197,9.00810921 5.24603571,9.77027143 C5.21153571,9.77104286 5.17714286,9.77142857 5.14285714,9.77142857 L5.14285714,9.77142857 Z M5.65714286,8.74285714 C5.65714286,6.4845 7.28299286,4.59909643 9.42557143,4.19464286 C8.50545,4.975425 7.07625,6.47919643 7.46485714,8.03368929 C7.71123214,9.01928571 8.16672857,9.49178571 8.60721429,9.94821429 C9.20770714,10.5708536 9.827775,11.2140964 10.0083857,13.36275 C7.58481429,13.2189429 5.65714286,11.2019464 5.65714286,8.74285714 Z M11.0711571,13.304475 C11.9734393,12.4262036 12.6066214,11.234925 12.7451893,10.0949786 C12.8641179,9.11725714 12.6145607,8.23615714 12.0238071,7.54695 C10.8820607,6.21491786 10.6203857,4.71866786 10.5605679,4.122675 C12.9852964,4.26535714 14.9142857,6.28293214 14.9142857,8.74285714 C14.9142857,11.0273786 13.2505714,12.9303321 11.0711571,13.304475 Z" id="Shape" fill="#000000" fill-rule="nonzero"></path>
                        </g>
                    </g>
                </g>
            </g>
        </g>
    </g>
</svg>