<?xml version="1.0" encoding="UTF-8"?>
<svg width="42px" height="58px" viewBox="0 0 42 58" version="1.1" xmlns="http://www.w3.org/2000/svg" xmlns:xlink="http://www.w3.org/1999/xlink">
    <title>01.Basics/09.Virtual/Flags/Calcio</title>
    <defs>
        <path d="M4,4.97379915e-14 L39,4.97379915e-14 L39,4.97379915e-14 L32.0253842,42.9169288 L0,29 L0,4 C-2.705415e-16,1.790861 1.790861,5.01438038e-14 4,4.97379915e-14 Z" id="path-1"></path>
        <filter x="-10.3%" y="-4.7%" width="120.5%" height="118.6%" filterUnits="objectBoundingBox" id="filter-2">
            <feOffset dx="0" dy="2" in="SourceAlpha" result="shadowOffsetOuter1"></feOffset>
            <feGaussianBlur stdDeviation="1" in="shadowOffsetOuter1" result="shadowBlurOuter1"></feGaussianBlur>
            <feColorMatrix values="0 0 0 0 0   0 0 0 0 0   0 0 0 0 0  0 0 0 0.35 0" type="matrix" in="shadowBlurOuter1"></feColorMatrix>
        </filter>
        <filter id="filter-3">
            <feColorMatrix in="SourceGraphic" type="matrix" values="0 0 0 0 1.000000 0 0 0 0 1.000000 0 0 0 0 1.000000 0 0 0 1.000000 0"></feColorMatrix>
        </filter>
        <filter id="filter-4">
            <feColorMatrix in="SourceGraphic" type="matrix" values="0 0 0 0 0.200000 0 0 0 0 0.200000 0 0 0 0 0.200000 0 0 0 1.000000 0"></feColorMatrix>
        </filter>
    </defs>
    <g id="01.Basics/09.Virtual/Flags/Calcio" stroke="none" stroke-width="1" fill="none" fill-rule="evenodd">
        <g id="BG">
            <rect fill="#FFFFFF" opacity="0" x="0" y="0" width="42" height="58"></rect>
            <path d="M4.15816284,0.164545387 L36,1.42457959 L36,1.42457959 L17.9701653,53 L0,40.406002 L0,4.16141723 C-1.6956855e-15,1.95227823 1.790861,0.161417228 4,0.161417228 C4.05273641,0.161417228 4.10546767,0.162460152 4.15816284,0.164545387 Z" id="Rectangle-5" fill="#0F90E7"></path>
            <g id="Rectangle-5-Copy-3">
                <use fill="black" fill-opacity="1" filter="url(#filter-2)" xlink:href="#path-1"></use>
                <use fill="#005995" fill-rule="evenodd" xlink:href="#path-1"></use>
            </g>
        </g>
        <g id="01.Basics/02.Icon/Virtual/Calcio" transform="translate(10.000000, 10.000000)" filter="url(#filter-3)">
            <g>
                <rect id="Rectangle" fill="#FFFFFF" opacity="0" x="0" y="0" width="18" height="18"></rect>
                <g filter="url(#filter-4)">
                    <g transform="translate(0.642857, 0.642857)">
                        <path d="M11.892066,12.9554752 C11.0981683,12.9540066 10.4534004,13.5997689 10.4519336,14.3978287 C10.4504718,15.1958886 11.0928655,15.8440374 11.8867633,15.8455128 C12.680661,15.8469832 13.3254303,15.2012224 13.3268964,14.4031625 L13.3268964,14.4031625 C13.3268964,13.605706 12.6853582,12.9584149 11.892066,12.9554752 Z M13.8228544,3.09095843 C14.6150204,3.09092455 15.2578557,2.44665758 15.260276,1.65034221 C15.2626826,0.854026836 14.6237646,0.205834261 13.8316135,0.200920324 C13.0394624,0.19606195 12.3926796,0.836324051 12.3853718,1.63260924 L12.3853718,1.63260924 C12.3853718,2.42919862 13.0277673,3.07496192 13.8202022,3.07496192 L13.8228544,3.09095843 Z M16.7084283,5.61307606 C16.6182541,5.37312829 15.8199474,5.53842564 14.6344221,5.65306735 C14.0668551,5.7010569 13.3295486,5.65306735 13.0431129,5.35979786 C12.4861547,4.75459627 12.7062858,3.84546085 12.5126765,3.11228712 C12.2474584,2.04585261 11.2051509,1.9898648 10.2821916,1.872557 C9.50419243,1.74726378 8.7085688,1.7899801 7.9482715,1.99786306 C7.01475535,2.29618219 6.17408821,2.83262075 5.50826416,3.55485745 C4.4473914,4.70127455 4.11321648,5.55975433 4.27234739,5.68772647 C4.43147831,5.81569861 5.14756742,5.25315441 6.28004909,4.45332852 C6.89682264,3.99964035 7.59601119,3.67176252 8.33814224,3.48820529 C8.6716606,3.41592331 9.01420133,3.39524514 9.3539279,3.4268853 C8.3321416,4.6134006 7.5348611,5.97778068 7.00144256,7.45267559 C6.65153341,8.59791213 6.157782,9.69362291 5.53213379,10.7132991 C4.44208703,12.4515874 3.14517009,13.2514133 2.15060188,13.8939401 C1.15603367,14.5364668 0.471770736,15.0990111 0.209204728,15.5282509 C-0.0533612792,15.9574908 -0.0294916421,16.1654456 0.068639088,16.2427621 C0.166769818,16.3200786 0.360379096,16.2427621 0.758206381,16.0454717 C1.47426451,15.6875316 2.2091149,15.3689103 2.95951735,15.0910128 C4.70810998,14.4222985 6.23519724,13.2742113 7.36744366,11.7770675 C7.85642059,11.1309327 8.28690628,10.4421136 8.65375188,9.71884893 C8.88183953,9.84415499 9.09401408,9.96679496 9.28762336,10.0894349 C9.64717723,10.2996596 9.96830313,10.5701703 10.2371045,10.8892608 C10.215887,10.9399165 10.186713,11.0012364 10.1522347,11.0678886 C10.028545,11.2855298 9.89216165,11.4956286 9.74379864,11.697085 C9.60058082,11.8917093 9.51836318,12.0143492 9.40697154,12.1716483 C9.22131881,12.4382569 9.0462748,12.6755386 8.87653516,12.9154864 C8.30366387,13.7553036 7.96153241,14.4511521 7.86340168,14.9870354 C7.77262259,15.2779934 7.80624739,15.5937921 7.95622804,15.8588456 C7.98653037,15.9034453 8.03527956,15.931868 8.08883714,15.9361621 L8.12066332,15.9361621 C8.21614187,15.9121674 8.27448987,15.8161883 8.35935969,15.6695535 C8.43357675,15.5414361 8.51504416,15.4177042 8.60336043,15.2989675 C9.02043447,14.7622655 9.4751147,14.2561986 9.96392974,13.7846305 L10.1363216,13.6113349 C10.4015398,13.3447263 10.6985841,13.0407924 11.0088894,12.6968673 C11.2210047,12.46766 11.4177013,12.2245082 11.5976738,11.9690258 C11.7162047,11.8020668 11.8175104,11.6234058 11.9000225,11.4358085 C11.9582809,11.294882 11.9983883,11.1470503 12.0193707,10.9959043 C12.0370974,10.8121563 12.0254574,10.6267406 11.9848923,10.4466905 C11.8493522,9.97730698 11.5899993,9.55353382 11.2343249,9.2202908 C10.9597237,8.95275016 10.6614466,8.71091423 10.3431917,8.49778141 C10.0654519,8.30484844 9.77772812,8.12685936 9.48123263,7.96456416 C9.94722818,7.07281643 10.5336048,6.25009744 11.2237161,5.51976304 C11.6098429,6.52753771 12.6085797,7.1607128 13.6796366,7.07675743 C14.0865825,7.05677776 14.4889566,6.98144155 14.8757706,6.85280618 C16.1965572,6.38090891 16.7800372,5.81569861 16.7084283,5.61307606 Z" id="Shape" fill="#222222" fill-rule="nonzero"></path>
                    </g>
                </g>
            </g>
        </g>
    </g>
</svg>