<?xml version="1.0" encoding="UTF-8"?>
<svg width="42px" height="58px" viewBox="0 0 42 58" version="1.1" xmlns="http://www.w3.org/2000/svg" xmlns:xlink="http://www.w3.org/1999/xlink">
    <title>01.Basics/09.Virtual/Flags/Cani </title>
    <defs>
        <path d="M4,4.97379915e-14 L39,4.97379915e-14 L39,4.97379915e-14 L32.0253842,42.9169288 L0,29 L0,4 C-2.705415e-16,1.790861 1.790861,5.01438038e-14 4,4.97379915e-14 Z" id="path-1"></path>
        <filter x="-10.3%" y="-4.7%" width="120.5%" height="118.6%" filterUnits="objectBoundingBox" id="filter-2">
            <feOffset dx="0" dy="2" in="SourceAlpha" result="shadowOffsetOuter1"></feOffset>
            <feGaussianBlur stdDeviation="1" in="shadowOffsetOuter1" result="shadowBlurOuter1"></feGaussianBlur>
            <feColorMatrix values="0 0 0 0 0   0 0 0 0 0   0 0 0 0 0  0 0 0 0.37729458 0" type="matrix" in="shadowBlurOuter1"></feColorMatrix>
        </filter>
        <filter id="filter-3">
            <feColorMatrix in="SourceGraphic" type="matrix" values="0 0 0 0 1.000000 0 0 0 0 1.000000 0 0 0 0 1.000000 0 0 0 1.000000 0"></feColorMatrix>
        </filter>
        <filter id="filter-4">
            <feColorMatrix in="SourceGraphic" type="matrix" values="0 0 0 0 0.200000 0 0 0 0 0.200000 0 0 0 0 0.200000 0 0 0 1.000000 0"></feColorMatrix>
        </filter>
    </defs>
    <g id="01.Basics/09.Virtual/Flags/Cani-" stroke="none" stroke-width="1" fill="none" fill-rule="evenodd">
        <g id="BG">
            <rect fill="#FFFFFF" opacity="0" x="0" y="0" width="42" height="58"></rect>
            <path d="M4.15816284,0.164545387 L36,1.42457959 L36,1.42457959 L17.9701653,53 L0,40.406002 L0,4.16141723 C-1.6956855e-15,1.95227823 1.790861,0.161417228 4,0.161417228 C4.05273641,0.161417228 4.10546767,0.162460152 4.15816284,0.164545387 Z" id="Rectangle-5" fill="#FFB800"></path>
            <g id="Rectangle-5-Copy-3">
                <use fill="black" fill-opacity="1" filter="url(#filter-2)" xlink:href="#path-1"></use>
                <use fill="#FF8B00" fill-rule="evenodd" xlink:href="#path-1"></use>
            </g>
        </g>
        <g id="01.Basics/02.Icon/Virtual/Corsa_cani" transform="translate(10.000000, 10.000000)" filter="url(#filter-3)">
            <g>
                <rect id="Rectangle-Copy-7" fill="#FFFFFF" opacity="0" x="0" y="0" width="18" height="18"></rect>
                <g filter="url(#filter-4)">
                    <g transform="translate(0.000000, 5.785714)">
                        <path d="M12.9872477,3.64293578 C13.0954128,3.24495413 14.7129358,2.17775229 15.3284862,2.02541284 C15.6240826,1.95233945 16.5773394,2.1703211 16.7998624,2.18188073 C16.9494175,2.18960601 17.0993682,2.18074466 17.2469725,2.15545872 C17.5933486,2.06834862 18.1197248,1.74013761 17.9215596,1.57747706 C17.8175229,1.49284404 17.5995413,1.47385321 17.4674312,1.43380734 C17.2837156,1.37724771 17.0917431,1.36279817 16.9076147,1.30995413 C16.8663303,1.29756881 16.7544495,1.12788991 16.7309174,1.08288991 C16.6801366,0.972998925 16.5805517,0.89345334 16.462156,0.868211009 C16.0493119,0.767477064 15.9745872,0.796376147 15.6137615,0.549495413 C15.4870183,0.462798165 15.384633,0.392201835 15.2756422,0.308394495 C15.1076147,0.181651376 14.913578,0.0272477064 14.6720642,0.0412844037 C14.548211,0.0495412844 15.0258716,0.450412844 14.8083028,0.731559633 C14.5779358,0.996192661 13.2807798,1.41605505 13.208945,1.41646789 C12.1462844,1.42348624 10.5824312,1.06307339 9.31252294,1.06472477 C6.94321101,1.07050459 5.24559633,1.58862385 4.70642202,1.94036697 C4.3303211,2.18807339 2.2706422,3.79816514 0.866972477,3.99591743 C2.28220183,4.17798165 3.38284404,3.1256422 4.37614679,2.5509633 C4.52810758,2.46995566 4.68768727,2.4041325 4.85256881,2.35444954 C4.57348624,2.44981651 4.07683486,4.06238532 3.17889908,4.22834862 C2.3783945,4.37614679 0.917752294,5.0090367 0,6.6740367 C1.2703211,5.14899083 2.60545872,4.65110092 3.14504587,4.62922018 C3.65944954,4.61022936 4.1709633,4.86 4.61600917,4.42816514 C6.40857798,2.68885321 7.80275229,2.74995413 8.51779817,3.06908257 C10.1254128,3.78619266 10.5555963,3.87 11.8981651,4.10821101 C12.8369725,4.27334862 15.2133028,4.79848624 16.1694495,6.2962844 C15.6847706,4.7766055 13.7386239,3.93440367 12.9872477,3.64293578 Z" id="cane_corsa" fill="#222222"></path>
                    </g>
                </g>
            </g>
        </g>
    </g>
</svg>