<?xml version="1.0" encoding="UTF-8"?>
<svg width="42px" height="58px" viewBox="0 0 42 58" version="1.1" xmlns="http://www.w3.org/2000/svg" xmlns:xlink="http://www.w3.org/1999/xlink">
    <title>01.Basics/09.Virtual/Flags/Cani Deluxe</title>
    <defs>
        <path d="M4,4.97379915e-14 L39,4.97379915e-14 L39,4.97379915e-14 L32.0253842,42.9169288 L0,29 L0,4 C-2.705415e-16,1.790861 1.790861,5.01438038e-14 4,4.97379915e-14 Z" id="path-1"></path>
        <filter x="-10.3%" y="-4.7%" width="120.5%" height="118.6%" filterUnits="objectBoundingBox" id="filter-2">
            <feOffset dx="0" dy="2" in="SourceAlpha" result="shadowOffsetOuter1"></feOffset>
            <feGaussianBlur stdDeviation="1" in="shadowOffsetOuter1" result="shadowBlurOuter1"></feGaussianBlur>
            <feColorMatrix values="0 0 0 0 0   0 0 0 0 0   0 0 0 0 0  0 0 0 0.37729458 0" type="matrix" in="shadowBlurOuter1"></feColorMatrix>
        </filter>
        <filter id="filter-3">
            <feColorMatrix in="SourceGraphic" type="matrix" values="0 0 0 0 1.000000 0 0 0 0 1.000000 0 0 0 0 1.000000 0 0 0 1.000000 0"></feColorMatrix>
        </filter>
        <filter id="filter-4">
            <feColorMatrix in="SourceGraphic" type="matrix" values="0 0 0 0 0.200000 0 0 0 0 0.200000 0 0 0 0 0.200000 0 0 0 1.000000 0"></feColorMatrix>
        </filter>
    </defs>
    <g id="01.Basics/09.Virtual/Flags/Cani-Deluxe" stroke="none" stroke-width="1" fill="none" fill-rule="evenodd">
        <g id="BG">
            <rect fill="#FFFFFF" opacity="0" x="0" y="0" width="42" height="58"></rect>
            <path d="M4.15816284,0.164545387 L36,1.42457959 L36,1.42457959 L17.9701653,53 L0,40.406002 L0,4.16141723 C-1.6956855e-15,1.95227823 1.790861,0.161417228 4,0.161417228 C4.05273641,0.161417228 4.10546767,0.162460152 4.15816284,0.164545387 Z" id="Rectangle-5" fill="#FFB800"></path>
            <g id="Rectangle-5-Copy-3">
                <use fill="black" fill-opacity="1" filter="url(#filter-2)" xlink:href="#path-1"></use>
                <use fill="#FF8B00" fill-rule="evenodd" xlink:href="#path-1"></use>
            </g>
        </g>
        <g id="01.Basics/02.Icon/Virtual/Cani_deluxee" transform="translate(10.000000, 10.000000)" filter="url(#filter-3)">
            <g>
                <rect id="Rectangle-Copy-6" fill="#FFFFFF" opacity="0" x="0" y="0" width="18" height="18"></rect>
                <g filter="url(#filter-4)">
                    <g transform="translate(0.000000, 3.214286)">
                        <path d="M15.417,4.41 C14.139,3.744 14.01,2.7 12.183,2.055 C11.64,1.863 9.021,1.062 5.136,3.084 C3.24,4.074 7.344,2.883 7.344,2.883 C7.344,2.883 5.337,5.415 0.516,7.302 C0.516,7.302 4.572,12.321 7.023,10.674 C9.474,9.027 9.633,6.537 11.322,6.498 C13.011,6.459 16.335,7.2 17.667,5.535 C18,5.133 15.93,4.677 15.417,4.41 Z M13.299,3.762 C13.239,3.933 12.924,3.975 12.594,3.858 C12.264,3.741 12.042,3.507 12.102,3.339 C12.162,3.171 12.48,3.129 12.81,3.246 C13.14,3.363 13.359,3.6 13.299,3.762 Z" id="Shape" fill="#222222" fill-rule="nonzero"></path>
                        <path d="M2.001,4.284 C2.163,4.284 2.301,3.558 2.322,2.604 C3.273,2.58 4.002,2.448 4.002,2.283 C4.002,2.118 3.273,1.983 2.322,1.962 C2.298,1.011 2.163,0.3 2.001,0.3 C1.839,0.3 1.701,1.026 1.68,1.977 C0.729,1.989 0,2.121 0,2.283 C0,2.445 0.729,2.583 1.68,2.604 C1.704,3.558 1.839,4.284 2.001,4.284 Z" id="Path" fill="#222222" fill-rule="nonzero"></path>
                        <path d="M14.253,9.813 C14.232,9.033 14.124,8.433 13.989,8.433 C13.854,8.433 13.746,9.033 13.725,9.813 C12.945,9.834 12.345,9.945 12.345,10.077 C12.345,10.209 12.945,10.32 13.725,10.341 C13.746,11.124 13.857,11.724 13.989,11.724 C14.121,11.724 14.232,11.124 14.253,10.341 C15.036,10.32 15.636,10.212 15.636,10.077 C15.636,9.942 15.036,9.834 14.253,9.813 Z" id="Path" fill="#222222" fill-rule="nonzero"></path>
                        <path d="M11.715,8.901 C11.715,8.544 11.655,8.271 11.592,8.271 C11.529,8.271 11.481,8.544 11.472,8.901 C11.115,8.901 10.839,8.961 10.839,9.024 C10.839,9.087 11.115,9.135 11.472,9.144 C11.472,9.501 11.532,9.777 11.592,9.777 C11.652,9.777 11.703,9.501 11.715,9.144 C12.072,9.144 12.345,9.084 12.345,9.024 C12.345,8.964 12.072,8.913 11.715,8.901 Z" id="Path" fill="#222222" fill-rule="nonzero"></path>
                        <path d="M5.19,0.876 C5.19,1.233 5.25,1.506 5.31,1.506 C5.37,1.506 5.424,1.233 5.433,0.876 C5.79,0.876 6.063,0.816 6.063,0.753 C6.063,0.69 5.79,0.642 5.433,0.633 C5.433,0.276 5.373,0 5.31,0 C5.247,0 5.199,0.276 5.19,0.633 C4.833,0.633 4.56,0.693 4.56,0.753 C4.56,0.813 4.833,0.864 5.19,0.876 Z" id="Path" fill="#222222" fill-rule="nonzero"></path>
                    </g>
                </g>
            </g>
        </g>
    </g>
</svg>