<?xml version="1.0" encoding="UTF-8"?>
<svg width="42px" height="58px" viewBox="0 0 42 58" version="1.1" xmlns="http://www.w3.org/2000/svg" xmlns:xlink="http://www.w3.org/1999/xlink">
    <title>01.Basics/09.Virtual/Flags/Cavalli Deluxe</title>
    <defs>
        <path d="M4,4.97379915e-14 L39,4.97379915e-14 L39,4.97379915e-14 L32.0253842,42.9169288 L0,29 L0,4 C-2.705415e-16,1.790861 1.790861,5.01438038e-14 4,4.97379915e-14 Z" id="path-1"></path>
        <filter x="-10.3%" y="-4.7%" width="120.5%" height="118.6%" filterUnits="objectBoundingBox" id="filter-2">
            <feOffset dx="0" dy="2" in="SourceAlpha" result="shadowOffsetOuter1"></feOffset>
            <feGaussianBlur stdDeviation="1" in="shadowOffsetOuter1" result="shadowBlurOuter1"></feGaussianBlur>
            <feColorMatrix values="0 0 0 0 0   0 0 0 0 0   0 0 0 0 0  0 0 0 0.35 0" type="matrix" in="shadowBlurOuter1"></feColorMatrix>
        </filter>
        <filter id="filter-3">
            <feColorMatrix in="SourceGraphic" type="matrix" values="0 0 0 0 1.000000 0 0 0 0 1.000000 0 0 0 0 1.000000 0 0 0 1.000000 0"></feColorMatrix>
        </filter>
        <filter id="filter-4">
            <feColorMatrix in="SourceGraphic" type="matrix" values="0 0 0 0 0.200000 0 0 0 0 0.200000 0 0 0 0 0.200000 0 0 0 1.000000 0"></feColorMatrix>
        </filter>
    </defs>
    <g id="01.Basics/09.Virtual/Flags/Cavalli-Deluxe" stroke="none" stroke-width="1" fill="none" fill-rule="evenodd">
        <g id="BG">
            <rect fill="#FFFFFF" opacity="0" x="0" y="0" width="42" height="58"></rect>
            <path d="M4.15816284,0.164545387 L36,1.42457959 L36,1.42457959 L17.9701653,53 L0,40.406002 L0,4.16141723 C-1.6956855e-15,1.95227823 1.790861,0.161417228 4,0.161417228 C4.05273641,0.161417228 4.10546767,0.162460152 4.15816284,0.164545387 Z" id="Rectangle-5" fill="#0B7D3E"></path>
            <g id="Rectangle-5-Copy-3">
                <use fill="black" fill-opacity="1" filter="url(#filter-2)" xlink:href="#path-1"></use>
                <use fill="#005936" fill-rule="evenodd" xlink:href="#path-1"></use>
            </g>
        </g>
        <g id="01.Basics/02.Icon/Virtual/Cavalli_deluxe" transform="translate(10.000000, 10.000000)" filter="url(#filter-3)">
            <g>
                <rect id="BG" fill="#FFFFFF" opacity="0" x="0" y="0" width="18" height="18"></rect>
                <g filter="url(#filter-4)" id="Cavalli_deluxe">
                    <g transform="translate(0.000000, 2.571429)">
                        <path d="M2.23333333,4.73333333 C2.4,4.73333333 2.56666667,3.93333333 2.6,2.86666667 C3.66666667,2.83333333 4.46666667,2.7 4.46666667,2.5 C4.46666667,2.3 3.66666667,2.16666667 2.6,2.13333333 C2.56666667,1.06666667 2.43333333,0.266666667 2.23333333,0.266666667 C2.03333333,0.266666667 1.9,1.1 1.86666667,2.16666667 C0.8,2.2 0,2.33333333 0,2.53333333 C0,2.73333333 0.8,2.86666667 1.86666667,2.9 C1.9,3.93333333 2.03333333,4.73333333 2.23333333,4.73333333 Z" id="Path" fill="#222222" fill-rule="nonzero"></path>
                        <path d="M15.8,10.9 C15.7666667,10.0333333 15.6666667,9.36666667 15.5,9.36666667 C15.3333333,9.36666667 15.2333333,10.0333333 15.2,10.9 C14.3666667,10.9 13.7,11.0333333 13.7,11.1666667 C13.7,11.3 14.3666667,11.4333333 15.2333333,11.4666667 C15.2666667,12.3333333 15.3666667,13 15.5333333,13 C15.7,13 15.8,12.3333333 15.8333333,11.4666667 C16.7,11.4333333 17.3666667,11.3333333 17.3666667,11.1666667 C17.3666667,11 16.6666667,10.9 15.8,10.9 Z" id="Path" fill="#222222" fill-rule="nonzero"></path>
                        <path d="M13,9.86666667 C13,9.46666667 12.9333333,9.16666667 12.8666667,9.16666667 C12.8,9.16666667 12.7333333,9.46666667 12.7333333,9.86666667 C12.3333333,9.86666667 12.0333333,9.93333333 12.0333333,10 C12.0333333,10.0666667 12.3333333,10.1333333 12.7333333,10.1333333 C12.7333333,10.5333333 12.8,10.8333333 12.8666667,10.8333333 C12.9333333,10.8333333 13,10.5333333 13,10.1333333 C13.4,10.1333333 13.7,10.0666667 13.7,10 C13.7,9.93333333 13.4,9.9 13,9.86666667 Z" id="Path" fill="#222222" fill-rule="nonzero"></path>
                        <path d="M5.76666667,0.966666667 C5.76666667,1.36666667 5.83333333,1.66666667 5.9,1.66666667 C5.96666667,1.66666667 6.03333333,1.36666667 6.03333333,0.966666667 C6.43333333,0.966666667 6.73333333,0.9 6.73333333,0.833333333 C6.73333333,0.766666667 6.43333333,0.7 6.03333333,0.7 C6.03333333,0.3 5.96666667,0 5.9,0 C5.83333333,0 5.76666667,0.3 5.76666667,0.7 C5.36666667,0.7 5.06666667,0.766666667 5.06666667,0.833333333 C5.06666667,0.9 5.36666667,0.933333333 5.76666667,0.966666667 Z" id="Path" fill="#222222" fill-rule="nonzero"></path>
                        <path d="M17.1666667,5.56666667 C16.3084001,4.48615455 15.3235833,3.51252888 14.2333333,2.66666667 C13.8333333,2.4 14.1333333,1.6 14.1333333,1.6 C13.339969,1.6830969 12.5577525,1.85071472 11.8,2.1 C10.8531729,1.79974726 9.85467128,1.69762777 8.86666667,1.8 C8.60987008,1.8316399 8.36119751,1.910763 8.13333333,2.03333333 L8.1,2.03333333 L8.1,2.3 L7.63333333,2.3 L7.63333333,2.7 L7.56666667,2.76666667 L7.06666667,2.76666667 L7.06666667,3.36666667 L6.5,3.36666667 C6.3,3.6 6.1,3.8 5.93333333,4.03333333 L5.93333333,4.03333333 C5.68159546,4.33598454 5.40265121,4.6149288 5.1,4.86666667 C4.33333333,5.43333333 5.76666667,5.26666667 6.33333333,4.76666667 C7.43025137,3.80757362 8.66659748,3.02080791 10,2.43333333 C10.5264324,2.21312818 11.0978081,2.12170806 11.6666667,2.16666667 C9.4,2.96666667 7.6,4.53333333 5.83333333,6.16666667 C4.33333333,7.56666667 0.566666667,7.3 0.566666667,7.3 C0.566666667,7.3 6.66666667,12.6666667 8.26666667,12.4666667 C9.86666667,12.2666667 10.3666667,5.7 11.7333333,5.6 C13.1,5.5 15.9,6.93333333 15.6666667,7.2 C16.1513432,7.60246969 16.7711793,7.80510842 17.4,7.76666667 L17.4666667,7.76666667 C17.7,7.1 18.0333333,6.7 17.1666667,5.56666667 Z" id="Path" fill="#222222" fill-rule="nonzero"></path>
                    </g>
                </g>
            </g>
        </g>
    </g>
</svg>