<?xml version="1.0" encoding="UTF-8"?>
<svg width="42px" height="58px" viewBox="0 0 42 58" version="1.1" xmlns="http://www.w3.org/2000/svg" xmlns:xlink="http://www.w3.org/1999/xlink">
    <title>01.Basics/09.Virtual/Flags/Cisclismo</title>
    <defs>
        <path d="M4,4.97379915e-14 L39,4.97379915e-14 L39,4.97379915e-14 L32.0253842,42.9169288 L0,29 L0,4 C-2.705415e-16,1.790861 1.790861,5.01438038e-14 4,4.97379915e-14 Z" id="path-1"></path>
        <filter x="-10.3%" y="-4.7%" width="120.5%" height="118.6%" filterUnits="objectBoundingBox" id="filter-2">
            <feOffset dx="0" dy="2" in="SourceAlpha" result="shadowOffsetOuter1"></feOffset>
            <feGaussianBlur stdDeviation="1" in="shadowOffsetOuter1" result="shadowBlurOuter1"></feGaussianBlur>
            <feColorMatrix values="0 0 0 0 0   0 0 0 0 0   0 0 0 0 0  0 0 0 0.37729458 0" type="matrix" in="shadowBlurOuter1"></feColorMatrix>
        </filter>
        <filter id="filter-3">
            <feColorMatrix in="SourceGraphic" type="matrix" values="0 0 0 0 1.000000 0 0 0 0 1.000000 0 0 0 0 1.000000 0 0 0 1.000000 0"></feColorMatrix>
        </filter>
        <filter id="filter-4">
            <feColorMatrix in="SourceGraphic" type="matrix" values="0 0 0 0 1.000000 0 0 0 0 1.000000 0 0 0 0 1.000000 0 0 0 1.000000 0"></feColorMatrix>
        </filter>
        <linearGradient x1="49.9702792%" y1="0.0164894647%" x2="49.9702792%" y2="99.7746817%" id="linearGradient-5">
            <stop stop-color="#1B1B1B" offset="0%"></stop>
            <stop stop-color="#1B1B1B" offset="100%"></stop>
        </linearGradient>
    </defs>
    <g id="01.Basics/09.Virtual/Flags/Cisclismo" stroke="none" stroke-width="1" fill="none" fill-rule="evenodd">
        <g id="BG">
            <rect fill="#FFFFFF" opacity="0" x="0" y="0" width="42" height="58"></rect>
            <path d="M4.15816284,0.164545387 L36,1.42457959 L36,1.42457959 L17.9701653,53 L0,40.406002 L0,4.16141723 C-1.6956855e-15,1.95227823 1.790861,0.161417228 4,0.161417228 C4.05273641,0.161417228 4.10546767,0.162460152 4.15816284,0.164545387 Z" id="Rectangle-5" fill="#C33A99"></path>
            <g id="Rectangle-5-Copy-3">
                <use fill="black" fill-opacity="1" filter="url(#filter-2)" xlink:href="#path-1"></use>
                <use fill="#8D1C6B" fill-rule="evenodd" xlink:href="#path-1"></use>
            </g>
        </g>
        <g id="01.Basics/02.Icon/Virtual/Ciclismo" transform="translate(10.000000, 10.000000)" filter="url(#filter-3)">
            <g>
                <rect id="Rectangle-Copy-4" fill="#FFFFFF" opacity="0" x="0" y="0" width="18" height="18"></rect>
                <g filter="url(#filter-4)">
                    <g transform="translate(0.000000, 1.285714)">
                        <path d="M12.9825,2.85750241 C13.5105496,2.85851159 13.9871666,2.54120072 14.1899438,2.05363659 C14.3927209,1.56607245 14.2816886,1.00435913 13.9086587,0.6306132 C13.5356287,0.256867271 12.9741293,0.144758034 12.4861773,0.346599879 C11.9982252,0.548441724 11.68,1.02444948 11.68,1.5525 C11.68,2.27225642 12.2627449,2.85612116 12.9825,2.85750241 Z M17.72,10.725 C17.4672392,9.80711325 16.8769909,9.01862731 16.0675,8.5175 C15.4857451,8.15644082 14.8146916,7.96508234 14.13,7.965 C14.1925,7.78 14.2625,7.59 14.345,7.4 C14.713277,6.47776881 15.2940197,5.65547822 16.04,5 C16.2529623,4.84954581 16.3431528,4.5779607 16.2625,4.33 C16.1725,4.095 15.775,4.0625 15.485,4.3 C14.6162058,5.04929031 13.9585934,6.01286915 13.5775,7.095 C13.4691387,7.39088166 13.3789705,7.69311225 13.3075,8 C12.8116544,8.0739914 12.3361212,8.24838192 11.91,8.5125 C11.0965044,9.0132328 10.5032577,9.80393051 10.25,10.725 C9.95128768,11.8182432 10.1507563,12.9876054 10.795,13.92 C11.8531375,15.4931167 13.8965764,16.0657022 15.6180651,15.2714558 C17.3395539,14.4772093 18.2301028,12.5509644 17.72,10.725 L17.72,10.725 Z M16.5525,13.475 C15.957937,14.2982194 15.0042279,14.7858542 13.98875,14.7858542 C12.9732721,14.7858542 12.019563,14.2982194 11.425,13.475 C10.8851208,12.7256794 10.6938493,11.7802515 10.9,10.88 C11.0810502,10.0985891 11.5427815,9.41088521 12.1975,8.9475 C12.5061208,8.72325726 12.8512093,8.55409624 13.2175,8.4475 C13.150844,8.86060608 13.1290507,9.27970844 13.1525,9.6975 C13.17837,10.2916604 13.3390935,10.8721458 13.6225,11.395 C13.83,11.755 14.01,11.895 14.0575,11.87 C14.1825,11.8025 13.7175,11.0475 13.785,9.69 C13.8109479,9.22479503 13.8872264,8.76377108 14.0125,8.315 C14.6477533,8.34577147 15.2609891,8.55741154 15.78,8.925 C16.4363379,9.38728248 16.8991892,10.0753287 17.08,10.8575 C17.2955849,11.7675537 17.1029076,12.7263743 16.5525,13.4825 L16.5525,13.475 Z M5.945,8.5175 C4.66091518,7.76648342 3.07158482,7.76648342 1.7875,8.5175 C0.978009086,9.01862731 0.387760829,9.80711325 0.135,10.725 C-0.352116276,12.5418395 0.539491082,14.4455407 2.24704379,15.2344968 C3.9545965,16.0234528 5.98218282,15.468533 7.05,13.92 C7.69424365,12.9876054 7.89371232,11.8182432 7.595,10.725 C7.34399109,9.80696492 6.75440054,9.01816422 5.945,8.5175 Z M6.43,13.4825 C5.83543704,14.3057194 4.88172788,14.7933542 3.86625,14.7933542 C2.85077212,14.7933542 1.89706296,14.3057194 1.3025,13.4825 C0.76175274,12.7335709 0.569563659,11.7881099 0.775,10.8875 C0.95581084,10.1053287 1.41866211,9.41728248 2.075,8.955 C3.14258658,8.17741984 4.58991342,8.17741984 5.6575,8.955 C6.31375665,9.41688254 6.77592295,10.1052343 6.955,10.8875 C7.16115073,11.7877515 6.9698792,12.7331794 6.43,13.4825 L6.43,13.4825 Z M11.695,8.1275 C11.8754828,7.93322874 11.9983937,7.69260029 12.05,7.4325 C12.0872981,7.21042481 12.0604108,6.98231673 11.9725,6.775 C11.8975352,6.60835734 11.7895206,6.45866776 11.655,6.335 C11.3538294,6.08683984 11.0049813,5.9030565 10.63,5.795 C10.3325,5.6975 10.0475,5.6225 9.7575,5.545 C9.18,5.4025 8.5875,5.2775 8.0075,5.115 C7.75177196,5.04481599 7.50117943,4.95710861 7.2575,4.8525 C7.77017069,4.24943656 8.50519309,3.87967069 9.295,3.8275 C9.295,3.8825 9.295,3.94 9.295,4 C9.3443432,4.43244905 9.53915739,4.83530012 9.8475,5.1425 C10.1149718,5.39833522 10.4438939,5.58087838 10.8025,5.6725 C11.3179467,5.79561026 11.8544372,5.80159025 12.3725,5.69 C12.7687368,5.61037306 13.1551646,5.48799026 13.525,5.325 C14.825,4.725 15.3575,4.075 15.245,3.87 C15.12,3.6375 14.345,3.8975 13.1475,4.12 C12.575,4.2175 11.795,4.3 11.285,4.1 C11.199888,4.07264123 11.1244053,4.0214518 11.0675,3.9525 C11.0452906,3.9092263 11.0341259,3.86113237 11.035,3.8125 C11.055457,3.53638422 11.141137,3.26906256 11.285,3.0325 C11.3541446,2.93374141 11.4096454,2.82610342 11.45,2.7125 C11.7,2.03 10.8325,1.095 9.49,1.19 C8.35678624,1.26472964 7.27266446,1.68042585 6.38,2.3825 C5.9725628,2.71007276 5.61468577,3.09489582 5.3175,3.525 C5.11413991,3.80002689 4.96328037,4.11022123 4.8725,4.44 C4.74229901,4.9348182 4.81996956,5.4613523 5.0875,5.8975 C5.28937649,6.2131728 5.56921142,6.47148196 5.9,6.6475 C6.1161521,6.76914806 6.34395852,6.86881337 6.58,6.945 C6.95139162,7.06388156 7.33065269,7.15660838 7.715,7.2225 C8.4075,7.3475 9.0225,7.4175 9.56,7.505 C9.71,7.5275 9.8525,7.5525 9.985,7.58 L9.8325,7.805 C9.39756982,8.44756345 9.02265757,9.12876562 8.7125,9.84 C8.19,11.05 8.1525,11.9775 8.3025,12.4875 C8.4525,12.9975 8.6625,13.0975 8.765,13.06 C8.8675,13.0225 8.9025,12.825 8.99,12.4025 C9.17826181,11.6507628 9.50741332,10.9415601 9.96,10.3125 C10.3579243,9.72214116 10.7929679,9.15767003 11.2625,8.6225 C11.3975,8.46 11.5425,8.295 11.695,8.1275 Z M10.3375,7.0675 C10.3445874,7.0471968 10.3556341,7.02850226 10.37,7.0125 C10.39,7 10.37,7.0225 10.3375,7.0675 L10.3375,7.0675 Z" id="Shape" fill="url(#linearGradient-5)" fill-rule="nonzero"></path>
                    </g>
                </g>
            </g>
        </g>
    </g>
</svg>