<?xml version="1.0" encoding="UTF-8"?>
<svg width="42px" height="58px" viewBox="0 0 42 58" version="1.1" xmlns="http://www.w3.org/2000/svg" xmlns:xlink="http://www.w3.org/1999/xlink">
    <title>01.Basics/09.Virtual/Flags/Corsa di Cavalli</title>
    <defs>
        <path d="M4,4.97379915e-14 L39,4.97379915e-14 L39,4.97379915e-14 L32.0253842,42.9169288 L0,29 L0,4 C-2.705415e-16,1.790861 1.790861,5.01438038e-14 4,4.97379915e-14 Z" id="path-1"></path>
        <filter x="-10.3%" y="-4.7%" width="120.5%" height="118.6%" filterUnits="objectBoundingBox" id="filter-2">
            <feOffset dx="0" dy="2" in="SourceAlpha" result="shadowOffsetOuter1"></feOffset>
            <feGaussianBlur stdDeviation="1" in="shadowOffsetOuter1" result="shadowBlurOuter1"></feGaussianBlur>
            <feColorMatrix values="0 0 0 0 0   0 0 0 0 0   0 0 0 0 0  0 0 0 0.35 0" type="matrix" in="shadowBlurOuter1"></feColorMatrix>
        </filter>
        <filter id="filter-3">
            <feColorMatrix in="SourceGraphic" type="matrix" values="0 0 0 0 1.000000 0 0 0 0 1.000000 0 0 0 0 1.000000 0 0 0 1.000000 0"></feColorMatrix>
        </filter>
        <filter id="filter-4">
            <feColorMatrix in="SourceGraphic" type="matrix" values="0 0 0 0 0.200000 0 0 0 0 0.200000 0 0 0 0 0.200000 0 0 0 1.000000 0"></feColorMatrix>
        </filter>
    </defs>
    <g id="01.Basics/09.Virtual/Flags/Corsa-di-Cavalli" stroke="none" stroke-width="1" fill="none" fill-rule="evenodd">
        <g id="BG">
            <rect fill="#FFFFFF" opacity="0" x="0" y="0" width="42" height="58"></rect>
            <path d="M4.15816284,0.164545387 L36,1.42457959 L36,1.42457959 L17.9701653,53 L0,40.406002 L0,4.16141723 C-1.6956855e-15,1.95227823 1.790861,0.161417228 4,0.161417228 C4.05273641,0.161417228 4.10546767,0.162460152 4.15816284,0.164545387 Z" id="Rectangle-5" fill="#0B7D3E"></path>
            <g id="Rectangle-5-Copy-3">
                <use fill="black" fill-opacity="1" filter="url(#filter-2)" xlink:href="#path-1"></use>
                <use fill="#005936" fill-rule="evenodd" xlink:href="#path-1"></use>
            </g>
        </g>
        <g id="01.Basics/02.Icon/Virtual/Corsa_cavalli" transform="translate(10.000000, 10.000000)" filter="url(#filter-3)">
            <g>
                <rect id="Rectangle-Copy-8" fill="#FFFFFF" opacity="0" x="0" y="0" width="18" height="18"></rect>
                <g filter="url(#filter-4)">
                    <g transform="translate(0.000000, 3.857143)">
                        <path d="M8.30061674,0.0523348018 C8.38704846,0.0348898678 8.47348018,0.0166519824 8.56387665,0 C8.6907489,0.0269603524 8.81920705,0.0340969163 8.9214978,0.0975330396 C9.51462555,0.470220264 9.33621145,1.85312775 8.47348018,1.99110132 C7.34352423,2.17030837 7.3260793,0.386167401 8.30061674,0.0523348018 Z M14.3032599,2.36299559 C12.3105727,1.61762115 13.8695154,2.5477533 12.9132159,3.13770925 C12.4866079,3.40096916 11.5160352,4.17330396 11.1179736,4.38422907 C10.8142731,4.54281938 10.3710132,4.89092511 9.66211454,4.76325991 C9.2061674,4.64431718 8.34740088,4.33030837 7.77806167,4.1154185 C7.3815859,3.96713656 7.09136564,3.83471366 7.15797357,3.3153304 C7.23726872,2.69286344 7.88035242,1.64140969 7.23251101,1.34643172 C6.83603524,1.17356828 6.16519824,1.29647577 5.54352423,1.40352423 C5.03335969,1.4925774 4.53322737,1.6317539 4.05039648,1.81903084 C3.18449339,2.16792952 2.50572687,2.80704846 2.59453744,3.85215859 C2.66590308,4.6784141 3.45726872,5.01938326 4.06229075,5.37145374 C4.25497797,5.48484581 4.50396476,5.62202643 4.76246696,5.79330396 C4.95515419,5.92255507 5.32229075,6.19453744 5.33339207,6.34837004 C5.34132159,6.46969163 5.02731278,6.92563877 4.90361233,7.0477533 C3.96475771,7.9739207 2.78246696,8.96431718 2.66590308,10.1148899 C3.64757709,8.47903084 7.30387665,6.93991189 7.23171806,6.00422907 C7.18017621,5.33814978 5.74889868,4.3445815 4.97894273,3.89497797 C5.19066079,3.33039648 5.39365639,3.46440529 5.94079295,3.4985022 C5.86784141,4.20264317 6.71709251,4.44449339 7.30863436,4.61656388 C7.91444934,4.78784141 8.94528634,5.11295154 8.869163,5.13753304 C8.25462555,5.33577093 8.03101322,5.23665198 7.22933921,5.36511013 C7.34114537,5.54669604 7.54651982,5.89480176 7.42995595,6.23735683 C7.23409692,6.82889868 6.22229075,7.37444934 5.87339207,7.6369163 C7.60202643,7.92872247 8.15867841,7.23409692 9.15700441,8.14123348 C10.0046696,8.91198238 9.20140969,9.49876652 7.85339207,10.0538326 C11.9767401,9.45911894 12.46837,7.19920705 13.7347137,6.12872247 C14.6735683,6.13348018 15.4681057,6.2246696 16.5100441,6.05814978 C16.7376211,6.46731278 16.8018502,6.52599119 17.3933921,6.51409692 C17.7161233,6.3507489 17.917533,6.30634361 17.9571806,6.1707489 C17.9571806,5.93920705 17.8564758,5.530837 17.8556828,5.2985022 C17.3148899,5.13198238 16.3815859,3.3153304 14.3032599,2.36299559 Z M14.3159471,5.45550661 C15.0478414,5.79092511 15.6837885,5.53480176 16.3181498,5.87101322 C15.7979736,6.01295154 14.7124229,5.94 13.8901322,5.94317181 C14.0352423,5.68070485 14.1327753,5.60933921 14.3159471,5.45550661 L14.3159471,5.45550661 Z M4.44052863,7.21110132 C4.69110132,6.98828194 4.92422907,6.61559471 5.10819383,6.32854626 C4.74740088,5.82819383 4.19550661,5.72352423 3.65629956,5.40317181 C1.69295154,5.05744493 0.806431718,6.23814978 0,7.38475771 C1.39638767,6.47207048 2.45814978,6.78687225 4.44052863,7.21110132 Z" id="cavallo_da_corsa" fill="#222222"></path>
                    </g>
                </g>
            </g>
        </g>
    </g>
</svg>