<?xml version="1.0" encoding="UTF-8"?>
<svg width="42px" height="58px" viewBox="0 0 42 58" version="1.1" xmlns="http://www.w3.org/2000/svg" xmlns:xlink="http://www.w3.org/1999/xlink">
    <title>01.Basics/09.Virtual/Flags/Football all Star</title>
    <defs>
        <path d="M4,4.97379915e-14 L39,4.97379915e-14 L39,4.97379915e-14 L32.0253842,42.9169288 L0,29 L0,4 C-2.705415e-16,1.790861 1.790861,5.01438038e-14 4,4.97379915e-14 Z" id="path-1"></path>
        <filter x="-10.3%" y="-4.7%" width="120.5%" height="118.6%" filterUnits="objectBoundingBox" id="filter-2">
            <feOffset dx="0" dy="2" in="SourceAlpha" result="shadowOffsetOuter1"></feOffset>
            <feGaussianBlur stdDeviation="1" in="shadowOffsetOuter1" result="shadowBlurOuter1"></feGaussianBlur>
            <feColorMatrix values="0 0 0 0 0   0 0 0 0 0   0 0 0 0 0  0 0 0 0.35 0" type="matrix" in="shadowBlurOuter1"></feColorMatrix>
        </filter>
        <filter id="filter-3">
            <feColorMatrix in="SourceGraphic" type="matrix" values="0 0 0 0 1.000000 0 0 0 0 1.000000 0 0 0 0 1.000000 0 0 0 1.000000 0"></feColorMatrix>
        </filter>
        <filter id="filter-4">
            <feColorMatrix in="SourceGraphic" type="matrix" values="0 0 0 0 0.200000 0 0 0 0 0.200000 0 0 0 0 0.200000 0 0 0 1.000000 0"></feColorMatrix>
        </filter>
    </defs>
    <g id="01.Basics/09.Virtual/Flags/Football-all-Star" stroke="none" stroke-width="1" fill="none" fill-rule="evenodd">
        <g id="BG">
            <rect fill="#FFFFFF" opacity="0" x="0" y="0" width="42" height="58"></rect>
            <path d="M4.15816284,0.164545387 L36,1.42457959 L36,1.42457959 L17.9701653,53 L0,40.406002 L0,4.16141723 C-1.6956855e-15,1.95227823 1.790861,0.161417228 4,0.161417228 C4.05273641,0.161417228 4.10546767,0.162460152 4.15816284,0.164545387 Z" id="Rectangle-5" fill="#E72530"></path>
            <g id="Rectangle-5-Copy-3">
                <use fill="black" fill-opacity="1" filter="url(#filter-2)" xlink:href="#path-1"></use>
                <use fill="#B30B15" fill-rule="evenodd" xlink:href="#path-1"></use>
            </g>
        </g>
        <g id="01.Basics/02.Icon/Virtual/Football" transform="translate(10.000000, 10.000000)" filter="url(#filter-3)">
            <g>
                <rect id="Rectangle" fill="#FFFFFF" opacity="0" x="0" y="0" width="18" height="18"></rect>
                <g filter="url(#filter-4)">
                    <g transform="translate(2.571429, 1.285714)">
                        <path d="M2.69802824,11.4647795 C2.80734818,11.5447663 2.94399812,11.518104 3.02598808,11.4114549 C3.10797804,11.3048058 3.08064805,11.1714944 2.9713281,11.0915076 C2.47938834,10.744898 2.06943854,10.3449638 1.71414871,9.91836735 L1.93278861,9.89170507 C2.20608847,10.2116524 2.5613783,10.4782752 2.91666813,10.6382488 C2.94399812,10.6649111 2.9713281,10.6649111 2.99865809,10.6915734 C2.99865809,10.6915734 2.99865809,10.6915734 3.02598808,10.6915734 C3.05331806,10.6915734 3.08064805,10.7182357 3.10797804,10.7182357 L3.13530802,10.744898 L3.189968,10.7715602 L3.27195796,10.7982225 C3.29928794,10.7982225 3.32661793,10.8248848 3.35394792,10.8248848 L3.38127791,10.8248848 C3.49059785,10.8782093 3.5999178,10.9048716 3.70923775,10.9315339 L3.87321767,10.9848585 C3.92787764,11.0115207 3.95520763,11.0115207 4.0098676,11.0115207 C4.0098676,11.0115207 4.03719759,11.0115207 4.03719759,11.0115207 C4.11918755,10.9848585 4.33782744,10.7982225 4.61112731,10.558262 C4.80243722,10.3449638 4.99374712,10.1316656 5.15772704,9.89170507 L5.18505703,9.83838051 L5.18505703,9.83838051 L5.21238702,9.78505596 L5.21238702,9.78505596 L5.239717,9.75839368 C5.239717,9.75839368 5.239717,9.75839368 5.239717,9.75839368 L5.26704699,9.7317314 L5.26704699,9.7317314 L5.29437698,9.70506912 L5.29437698,9.70506912 L5.32170696,9.67840685 C5.32170696,9.67840685 5.37636694,9.59842001 5.37636694,9.59842001 L5.37636694,9.57175774 C5.07573708,9.2518104 4.88442718,8.93186307 4.6384573,8.58525346 C4.61112731,8.55859118 4.61112731,8.5319289 4.58379732,8.50526662 L4.55646734,8.47860434 C4.55646734,8.45194207 4.52913735,8.45194207 4.52913735,8.42527979 L4.47447738,8.34529296 C4.33782744,8.13199473 4.22850749,7.94535879 4.17384752,7.83870968 C4.14651753,7.78538512 4.11918755,7.73206057 4.09185756,7.67873601 C4.09185756,7.67873601 4.09185756,7.67873601 4.09185756,7.65207373 L4.09185756,7.65207373 C4.09185756,7.65207373 4.09185756,7.62541145 4.09185756,7.62541145 C4.20117751,7.35878868 4.66578728,6.29229756 5.15772704,5.49242923 L7.75407579,5.33245556 L7.80873576,5.38578012 L7.80873576,5.38578012 L7.80873576,5.4124424 L7.80873576,5.4124424 L7.83606575,5.43910467 L7.83606575,5.43910467 L7.86339573,5.46576695 L7.86339573,5.46576695 L7.89072572,5.49242923 L7.89072572,5.51909151 L7.91805571,5.54575379 L7.91805571,5.57241606 L7.94538569,5.59907834 L7.94538569,5.62574062 L7.97271568,5.6524029 L7.97271568,5.67906517 L8.00004567,5.70572745 L8.00004567,5.73238973 L8.02737565,5.75905201 L8.02737565,5.75905201 C8.02737565,5.78571429 8.05470564,5.78571429 8.05470564,5.81237656 L8.05470564,5.81237656 C8.1366956,5.91902567 8.24601555,6.05233706 8.35533549,6.18564845 L8.40999547,6.26563529 L8.40999547,6.26563529 L8.46465544,6.34562212 L8.46465544,6.34562212 L8.51931542,6.42560895 L8.51931542,6.42560895 C8.5466454,6.45227123 8.5466454,6.47893351 8.57397539,6.50559579 L8.57397539,6.53225806 C8.60130538,6.55892034 8.60130538,6.58558262 8.62863536,6.6122449 C8.62863536,6.6122449 8.62863536,6.6122449 8.62863536,6.6122449 C8.65596535,6.63890718 8.65596535,6.66556945 8.68329534,6.69223173 L8.68329534,6.69223173 C8.71062532,6.71889401 8.71062532,6.74555629 8.73795531,6.77221856 C8.84727526,6.95885451 8.9565952,7.17215273 9.06591515,7.38545095 C8.92926522,7.8120474 8.68329534,8.26530612 8.46465544,8.66524029 L8.46465544,8.66524029 C8.43732546,8.69190257 8.43732546,8.71856485 8.40999547,8.74522712 C8.38266548,8.7718894 8.40999547,8.79855168 8.40999547,8.82521396 C8.27334553,9.03851218 8.16402559,9.22514812 8.08203563,9.35845951 L8.00004567,9.46510862 C7.97271568,9.4917709 7.94538569,9.54509546 7.91805571,9.59842001 C7.91805571,9.59842001 7.91805571,9.59842001 7.91805571,9.62508229 C7.91805571,9.62508229 7.91805571,9.62508229 7.91805571,9.62508229 C7.94538569,9.67840685 7.97271568,9.7317314 8.02737565,9.75839368 C8.05470564,9.81171824 8.10936561,9.86504279 8.1366956,9.89170507 L8.19135557,9.94502962 C8.21868556,9.9716919 8.21868556,9.9716919 8.24601555,9.99835418 L8.30067552,10.0516787 L8.35533549,10.1050033 L8.35533549,10.1050033 L8.40999547,10.1583278 L8.40999547,10.1583278 L8.46465544,10.2116524 L8.46465544,10.2116524 C8.46465544,10.2383147 8.49198543,10.2383147 8.49198543,10.2383147 L8.49198543,10.2383147 L8.51931542,10.264977 L8.51931542,10.264977 L8.5466454,10.2916392 L8.57397539,10.3183015 L8.60130538,10.3449638 L8.65596535,10.3982883 C8.68329534,10.4249506 8.68329534,10.4249506 8.71062532,10.4249506 L8.73795531,10.4516129 L8.7652853,10.4782752 L8.79261528,10.5049375 L8.81994527,10.5315997 L8.81994527,10.5315997 L8.84727526,10.558262 L8.84727526,10.558262 L8.87460524,10.5849243 L8.87460524,10.5849243 L8.90193523,10.6115866 L8.90193523,10.6115866 L8.9565952,10.6649111 L8.98392519,10.6915734 L8.98392519,10.6915734 C8.98392519,10.6915734 9.01125518,10.7182357 9.01125518,10.7182357 C9.03858516,10.744898 9.06591515,10.7715602 9.12057512,10.7982225 C9.12057512,10.7982225 9.12057512,10.7982225 9.12057512,10.7982225 C9.12057512,10.7982225 9.12057512,10.7982225 9.12057512,10.7982225 C9.33921502,10.744898 9.53052493,10.6915734 9.74916482,10.5849243 C9.94047473,10.5049375 10.1044546,10.3982883 10.2684346,10.264977 C10.2957646,10.264977 10.2957646,10.2383147 10.3230945,10.2383147 L10.3230945,10.2383147 C10.3504245,10.2116524 10.3777545,10.2116524 10.4050845,10.1849901 L10.4324145,10.1849901 C10.4597445,10.1583278 10.4597445,10.1583278 10.4870745,10.1316656 C10.5144044,10.1050033 10.5144044,10.1050033 10.5144044,10.1050033 L10.5417344,10.078341 L10.5963944,10.0250165 L10.6510544,9.9716919 L10.6783844,9.94502962 C10.6783844,9.94502962 10.7057144,9.91836735 10.7057144,9.91836735 L10.7330443,9.89170507 C10.7330443,9.89170507 10.7603743,9.86504279 10.7603743,9.86504279 L10.7877043,9.83838051 C10.7877043,9.81171824 10.8150343,9.81171824 10.8150343,9.78505596 L10.8150343,9.78505596 L10.8696943,9.7317314 L10.8696943,9.7317314 L10.8970243,9.70506912 L10.8970243,9.67840685 L10.9243543,9.65174457 L10.9243543,9.62508229 L10.9516842,9.59842001 L10.9516842,9.59842001 C10.9516842,9.59842001 10.9790142,9.57175774 10.9790142,9.57175774 L10.9790142,9.57175774 C10.9790142,9.57175774 11.0063442,9.54509546 11.0063442,9.54509546 L11.0063442,9.54509546 L11.0063442,9.51843318 L11.0063442,9.51843318 C11.0063442,9.51843318 11.0063442,9.51843318 11.0063442,9.4917709 L11.0063442,9.4917709 L11.0063442,9.4917709 L11.0063442,9.4917709 L11.470954,9.4917709 C11.0610042,10.1316656 10.5417344,10.6915734 9.88581475,11.1448321 C9.77649481,11.224819 9.74916482,11.3581303 9.83115478,11.4647795 C9.88581475,11.518104 9.94047473,11.5714286 10.0224647,11.5714286 C10.0771247,11.5714286 10.1044546,11.5447663 10.1591146,11.518104 C12.4548335,9.91836735 13.411383,7.06550362 12.5368235,4.42593812 C11.7989138,1.75971034 9.31188503,0 6.4968964,0 C3.65457777,0 1.16754898,1.75971034 0.320319388,4.37261356 C-0.554240188,7.01217907 0.402309349,9.86504279 2.69802824,11.4647795 Z M4.25583748,6.8522054 C4.09185756,7.19881501 3.95520763,7.49210007 3.92787764,7.5720869 L3.87321767,7.5720869 C3.65457777,7.59874918 3.35394792,7.62541145 3.08064805,7.62541145 L2.99865809,7.62541145 L2.99865809,7.62541145 L2.91666813,7.62541145 L2.88933814,7.62541145 L2.80734818,7.62541145 L2.7800182,7.62541145 L2.72535822,7.62541145 L2.67069825,7.62541145 C2.45205836,7.62541145 2.26074845,7.62541145 2.09676853,7.62541145 L1.93278861,7.62541145 L1.90545862,7.62541145 C1.57749878,7.27880184 1.3315289,6.82554312 1.14021899,6.34562212 C1.08555902,6.18564845 1.03089904,6.02567479 0.976239071,5.86570112 C0.948909084,5.81237656 0.948909084,5.75905201 0.948909084,5.73238973 C0.948909084,5.70572745 0.948909084,5.70572745 0.948909084,5.70572745 C1.05822903,5.19914417 1.22220895,4.74588545 1.49550882,4.29262673 C1.49550882,4.26596445 1.52283881,4.21263989 1.55016879,4.21263989 C1.57749878,4.21263989 1.57749878,4.15931534 1.57749878,4.13265306 C1.71414871,3.91935484 1.82346866,3.75938117 1.90545862,3.65273206 C1.96011859,3.5994075 1.98744858,3.54608295 2.01477857,3.51942067 L2.04210855,3.49275839 L2.04210855,3.49275839 C2.45205836,3.41277156 2.86200816,3.359447 3.29928794,3.359447 C3.38127791,3.359447 3.46326787,3.359447 3.54525783,3.359447 C3.73656773,3.359447 3.90054765,3.359447 4.0098676,3.359447 L4.14651753,3.359447 C4.14651753,3.38610928 4.14651753,3.41277156 4.14651753,3.43943384 L4.14651753,3.43943384 C4.14651753,3.46609612 4.14651753,3.49275839 4.14651753,3.51942067 C4.14651753,3.51942067 4.14651753,3.51942067 4.14651753,3.51942067 C4.14651753,3.54608295 4.14651753,3.57274523 4.17384752,3.5994075 C4.17384752,3.5994075 4.17384752,3.5994075 4.17384752,3.5994075 C4.17384752,3.62606978 4.17384752,3.65273206 4.20117751,3.67939434 C4.20117751,3.67939434 4.20117751,3.67939434 4.20117751,3.70605662 C4.20117751,3.73271889 4.20117751,3.75938117 4.22850749,3.75938117 C4.22850749,3.75938117 4.22850749,3.78604345 4.22850749,3.78604345 C4.22850749,3.81270573 4.22850749,3.81270573 4.25583748,3.83936801 C4.28316747,3.86603028 4.25583748,3.86603028 4.28316747,3.89269256 L4.31049745,3.94601712 C4.31049745,3.97267939 4.33782744,3.99934167 4.33782744,4.02600395 C4.33782744,4.05266623 4.36515743,4.07932851 4.36515743,4.07932851 C4.36515743,4.07932851 4.36515743,4.10599078 4.36515743,4.10599078 L4.39248742,4.15931534 C4.39248742,4.15931534 4.39248742,4.18597762 4.39248742,4.18597762 C4.39248742,4.18597762 4.39248742,4.21263989 4.4198174,4.21263989 L4.4198174,4.23930217 C4.4198174,4.23930217 4.4198174,4.26596445 4.44714739,4.26596445 L4.44714739,4.29262673 L4.47447738,4.31928901 L4.47447738,4.34595128 C4.47447738,4.37261356 4.47447738,4.37261356 4.50180736,4.39927584 C4.50180736,4.42593812 4.50180736,4.42593812 4.50180736,4.42593812 C4.50180736,4.45260039 4.52913735,4.45260039 4.52913735,4.47926267 L4.52913735,4.47926267 L4.55646734,4.53258723 L4.55646734,4.55924951 L4.58379732,4.61257406 L4.58379732,4.63923634 L4.61112731,4.66589862 C4.61112731,4.66589862 4.61112731,4.6925609 4.61112731,4.6925609 C4.61112731,4.6925609 4.61112731,4.71922317 4.6384573,4.71922317 C4.66578728,4.71922317 4.6384573,4.74588545 4.6384573,4.74588545 C4.6384573,4.74588545 4.6384573,4.77254773 4.66578728,4.77254773 L4.66578728,4.79921001 L4.69311727,4.82587228 L4.69311727,4.85253456 L4.72044726,4.90585912 L4.72044726,4.90585912 L4.74777724,4.95918367 L4.74777724,4.95918367 L4.77510723,4.98584595 L4.77510723,5.01250823 C4.77510723,5.01250823 4.77510723,5.03917051 4.80243722,5.03917051 L4.80243722,5.06583278 C4.80243722,5.06583278 4.80243722,5.09249506 4.8297672,5.09249506 C4.85709719,5.09249506 4.8297672,5.09249506 4.8297672,5.11915734 L4.85709719,5.14581962 L4.85709719,5.1724819 L4.88442718,5.19914417 L4.88442718,5.22580645 L4.91175716,5.25246873 C4.91175716,5.25246873 4.91175716,5.25246873 4.91175716,5.25246873 L4.93908715,5.27913101 C4.93908715,5.27913101 4.93908715,5.27913101 4.93908715,5.30579329 C4.93908715,5.30579329 4.93908715,5.30579329 4.93908715,5.33245556 L4.93908715,5.35911784 L4.93908715,5.38578012 L4.93908715,5.4124424 L4.93908715,5.4124424 C4.93908715,5.4124424 4.93908715,5.4124424 4.93908715,5.43910467 L4.93908715,5.43910467 C4.93908715,5.43910467 4.93908715,5.43910467 4.93908715,5.46576695 L4.93908715,5.46576695 L4.96641714,5.49242923 C4.74777724,5.8923634 4.47447738,6.42560895 4.25583748,6.8522054 Z M7.15281608,2.23963134 L7.15281608,2.23963134 L7.07082612,2.21296906 L7.04349613,2.21296906 L6.98883616,2.18630678 L6.9068462,2.1596445 L6.82485624,2.13298223 L6.79752625,2.13298223 L6.74286628,2.07965767 L6.71553629,2.07965767 L6.66087632,2.05299539 L6.63354633,2.05299539 L6.57888636,2.05299539 L6.57888636,2.05299539 L6.4968964,1.99967084 L6.46956641,1.99967084 L6.41490644,1.97300856 L6.38757645,1.97300856 L6.33291647,1.94634628 L6.33291647,1.94634628 L6.2782565,1.919684 L6.2782565,1.919684 L6.25092651,1.919684 L6.25092651,1.919684 L6.22359653,1.919684 L6.22359653,1.919684 L6.19626654,1.919684 L6.19626654,1.919684 L6.16893655,1.919684 L6.16893655,1.919684 L6.16893655,1.919684 L6.16893655,1.6797235 C6.16893655,1.38643845 6.16893655,0.85319289 6.16893655,0.85319289 L6.19626654,0.85319289 L6.22359653,0.85319289 L6.25092651,0.85319289 L6.2782565,0.85319289 L6.30558649,0.85319289 L6.33291647,0.85319289 L6.36024646,0.85319289 L6.38757645,0.85319289 L6.41490644,0.85319289 L6.44223642,0.85319289 L6.46956641,0.85319289 L6.52422638,0.85319289 L6.55155637,0.85319289 L6.60621634,0.85319289 C6.87951621,0.799868334 7.20747605,0.773206057 7.45344593,0.746543779 C7.50810591,0.746543779 7.7267458,0.719881501 7.86339573,0.693219223 C8.68329534,0.879855168 9.44853497,1.22646478 10.1044546,1.70638578 C10.1317846,1.83969717 10.1864446,1.99967084 10.1864446,2.02633311 C10.1864446,2.02633311 10.1864446,2.02633311 10.1864446,2.02633311 C10.1864446,2.02633311 10.1864446,2.05299539 10.1864446,2.07965767 L10.1864446,2.07965767 C10.1864446,2.10631995 10.1864446,2.10631995 10.1864446,2.13298223 C10.1864446,2.13298223 10.1864446,2.13298223 10.1864446,2.13298223 L10.1864446,2.18630678 C10.1864446,2.18630678 10.1864446,2.18630678 10.1864446,2.21296906 C10.1864446,2.23963134 10.1864446,2.23963134 10.1864446,2.26629361 C10.1864446,2.26629361 10.1864446,2.26629361 10.1864446,2.29295589 C10.1864446,2.31961817 10.1864446,2.34628045 10.1864446,2.34628045 L10.1864446,2.34628045 C10.1864446,2.37294273 10.1864446,2.399605 10.1864446,2.42626728 C10.1864446,2.42626728 10.1864446,2.42626728 10.1864446,2.42626728 C10.1864446,2.45292956 10.1864446,2.47959184 10.1864446,2.50625411 C10.1864446,2.50625411 10.1864446,2.50625411 10.1864446,2.50625411 C10.1864446,2.53291639 10.1864446,2.55957867 10.1864446,2.58624095 L10.1864446,2.61290323 C10.1864446,2.6395655 10.1864446,2.66622778 10.1864446,2.69289006 C10.1864446,2.69289006 10.1864446,2.69289006 10.1864446,2.71955234 C10.1864446,2.74621461 10.1864446,2.77287689 10.1864446,2.79953917 C10.1864446,2.79953917 10.1864446,2.79953917 10.1864446,2.79953917 C10.1864446,2.82620145 10.1864446,2.85286373 10.1864446,2.879526 C10.1864446,2.90618828 10.1864446,2.95951284 10.1864446,2.98617512 C10.1864446,3.01283739 10.1864446,3.06616195 10.1864446,3.09282423 C9.96780471,3.03949967 9.72183483,3.01283739 9.47586495,3.01283739 L9.47586495,3.01283739 C9.42120498,3.01283739 9.39387499,3.01283739 9.33921502,3.01283739 L9.31188503,3.01283739 L9.20256508,3.01283739 L8.9565952,3.01283739 L8.90193523,3.01283739 L8.87460524,3.01283739 L8.81994527,3.01283739 L8.79261528,3.01283739 L8.73795531,3.01283739 L8.71062532,3.01283739 L8.65596535,3.01283739 L8.60130538,3.01283739 L8.60130538,3.01283739 L8.5466454,3.01283739 L8.51931542,3.01283739 L8.49198543,3.01283739 L8.46465544,3.01283739 L8.43732546,3.01283739 L8.43732546,3.01283739 L8.40999547,3.01283739 L8.40999547,3.01283739 L8.38266548,3.01283739 L8.38266548,3.01283739 L8.40999547,3.01283739 L8.38266548,3.01283739 L8.38266548,3.01283739 L8.35533549,3.01283739 C7.97271568,2.6395655 7.59009587,2.42626728 7.15281608,2.23963134 Z M11.0336742,7.19881501 L11.0336742,7.19881501 L11.0063442,7.19881501 L11.0063442,7.19881501 L10.9516842,7.19881501 L10.9516842,7.19881501 L10.8970243,7.19881501 L10.8970243,7.19881501 L10.8423643,7.19881501 L10.8150343,7.19881501 L10.7603743,7.19881501 L10.7330443,7.19881501 L10.7057144,7.19881501 L10.6783844,7.19881501 L10.6510544,7.19881501 L10.5690644,7.19881501 C10.2684346,7.22547729 9.91314474,7.22547729 9.63984487,7.25213957 L9.31188503,7.25213957 L9.22989507,7.25213957 L9.22989507,7.25213957 C9.01125518,6.79888084 8.7652853,6.3722844 8.46465544,5.97235023 L8.46465544,5.97235023 L8.40999547,5.94568795 C8.40999547,5.94568795 8.40999547,5.94568795 8.40999547,5.94568795 C8.38266548,5.91902567 8.38266548,5.8923634 8.35533549,5.8923634 L8.35533549,5.8923634 C8.27334553,5.78571429 8.19135557,5.70572745 8.1366956,5.62574062 L8.1366956,5.62574062 L8.10936561,5.59907834 L8.10936561,5.57241606 L8.08203563,5.54575379 L8.08203563,5.51909151 L8.05470564,5.49242923 L8.05470564,5.46576695 L8.02737565,5.43910467 C8.02737565,5.43910467 8.02737565,5.43910467 8.02737565,5.4124424 L8.00004567,5.38578012 L8.00004567,5.38578012 L7.94538569,5.33245556 L7.94538569,5.33245556 L7.91805571,5.30579329 L7.91805571,5.30579329 L7.91805571,5.27913101 L7.91805571,5.27913101 L7.91805571,5.27913101 L7.91805571,5.27913101 L7.91805571,5.27913101 C8.02737565,5.01250823 8.10936561,4.71922317 8.19135557,4.42593812 C8.19135557,4.39927584 8.21868556,4.37261356 8.21868556,4.34595128 L8.21868556,4.34595128 C8.21868556,4.31928901 8.24601555,4.29262673 8.24601555,4.26596445 C8.24601555,4.26596445 8.24601555,4.26596445 8.24601555,4.26596445 C8.24601555,4.23930217 8.24601555,4.21263989 8.27334553,4.18597762 L8.27334553,4.15931534 C8.27334553,4.13265306 8.27334553,4.10599078 8.30067552,4.10599078 L8.30067552,4.05266623 C8.30067552,4.05266623 8.30067552,4.02600395 8.30067552,4.02600395 C8.30067552,3.99934167 8.32800551,3.97267939 8.32800551,3.94601712 C8.32800551,3.91935484 8.32800551,3.89269256 8.35533549,3.86603028 L8.35533549,3.83936801 C8.35533549,3.81270573 8.35533549,3.81270573 8.35533549,3.78604345 L8.35533549,3.75938117 C8.35533549,3.73271889 8.35533549,3.73271889 8.35533549,3.70605662 L8.35533549,3.67939434 C8.35533549,3.62606978 8.38266548,3.57274523 8.38266548,3.54608295 C8.38266548,3.54608295 8.38266548,3.54608295 8.38266548,3.54608295 C8.38266548,3.51942067 8.38266548,3.51942067 8.38266548,3.49275839 C8.38266548,3.49275839 8.38266548,3.49275839 8.38266548,3.49275839 C8.38266548,3.46609612 8.38266548,3.46609612 8.38266548,3.43943384 L8.38266548,3.43943384 C8.38266548,3.38610928 8.40999547,3.359447 8.40999547,3.33278473 C8.40999547,3.33278473 8.40999547,3.33278473 8.40999547,3.33278473 C8.40999547,3.30612245 8.40999547,3.30612245 8.40999547,3.27946017 C8.40999547,3.27946017 8.40999547,3.27946017 8.40999547,3.27946017 C8.40999547,3.25279789 8.40999547,3.25279789 8.40999547,3.25279789 C8.40999547,3.22613562 8.40999547,3.19947334 8.40999547,3.19947334 L8.40999547,3.19947334 L8.40999547,3.19947334 L8.43732546,3.19947334 L8.46465544,3.19947334 L8.49198543,3.19947334 L8.51931542,3.19947334 L8.57397539,3.19947334 L8.57397539,3.19947334 L8.60130538,3.19947334 L8.62863536,3.19947334 L8.65596535,3.19947334 L8.68329534,3.19947334 L8.73795531,3.19947334 L8.73795531,3.19947334 L8.87460524,3.19947334 L8.87460524,3.19947334 L8.92926522,3.19947334 L8.9565952,3.19947334 L9.01125518,3.19947334 L9.03858516,3.19947334 L9.09324514,3.19947334 L9.1752351,3.19947334 L9.31188503,3.19947334 L9.39387499,3.19947334 L9.44853497,3.19947334 C9.74916482,3.19947334 10.0224647,3.25279789 10.2957646,3.30612245 L10.3230945,3.33278473 L10.3504245,3.359447 L10.3777545,3.38610928 L10.3777545,3.38610928 L10.4050845,3.38610928 L10.4050845,3.38610928 C10.4050845,3.38610928 10.4050845,3.38610928 10.4324145,3.41277156 L10.4324145,3.41277156 L10.4597445,3.43943384 L10.4597445,3.43943384 L10.4870745,3.46609612 L10.4870745,3.49275839 C10.4870745,3.49275839 10.5144044,3.51942067 10.5144044,3.51942067 L10.5417344,3.54608295 C10.5417344,3.54608295 10.5690644,3.57274523 10.5690644,3.57274523 L10.5963944,3.5994075 L10.6237244,3.62606978 L10.6510544,3.65273206 L10.6783844,3.67939434 L10.7057144,3.70605662 L10.7330443,3.73271889 L10.7603743,3.75938117 L10.7877043,3.78604345 C10.7877043,3.78604345 10.7877043,3.78604345 10.8150343,3.81270573 C10.8423643,3.83936801 10.8423643,3.83936801 10.8696943,3.86603028 L10.9243543,3.91935484 L10.9516842,3.97267939 L10.9790142,3.99934167 C11.0063442,4.02600395 11.0063442,4.05266623 11.0336742,4.05266623 L11.0336742,4.05266623 C11.0610042,4.07932851 11.0610042,4.10599078 11.0883342,4.13265306 C11.3069741,4.45260039 11.498284,4.79921001 11.6076039,5.14581962 C11.6076039,5.1724819 11.6349339,5.22580645 11.6349339,5.25246873 C11.6349339,5.25246873 11.6349339,5.25246873 11.6349339,5.25246873 C11.6349339,5.25246873 11.6349339,5.25246873 11.6349339,5.25246873 L11.6349339,5.25246873 C11.6349339,5.25246873 11.6349339,5.25246873 11.6349339,5.27913101 C11.6349339,5.27913101 11.6349339,5.27913101 11.6349339,5.30579329 C11.6349339,5.33245556 11.6349339,5.30579329 11.6349339,5.30579329 L11.6349339,5.33245556 C11.6076039,5.4124424 11.5529439,6.10566162 11.0336742,7.19881501 Z M11.6622639,9.33179724 L11.1429941,9.33179724 C11.1703241,9.14516129 11.2249841,8.95852535 11.2249841,8.7718894 C11.2249841,8.7718894 11.2249841,8.7718894 11.2249841,8.7718894 C11.2249841,8.71856485 11.2249841,8.69190257 11.2249841,8.63857801 C11.2249841,8.63857801 11.2249841,8.63857801 11.2249841,8.61191573 L11.2249841,8.50526662 C11.2249841,8.47860434 11.2249841,8.47860434 11.2249841,8.45194207 C11.2249841,8.42527979 11.2249841,8.39861751 11.2249841,8.37195523 C11.2249841,8.31863068 11.2249841,8.2919684 11.2249841,8.26530612 C11.2249841,8.23864384 11.2249841,8.18531929 11.2249841,8.15865701 C11.2249841,8.15865701 11.2249841,8.13199473 11.2249841,8.13199473 C11.2249841,8.10533246 11.2249841,8.07867018 11.2249841,8.0520079 L11.2249841,8.02534562 C11.2249841,7.99868334 11.2249841,7.97202107 11.2249841,7.97202107 C11.2249841,7.97202107 11.2249841,7.94535879 11.2249841,7.94535879 L11.2249841,7.89203423 C11.2249841,7.89203423 11.2249841,7.86537196 11.2249841,7.86537196 L11.2249841,7.8120474 C11.2249841,7.8120474 11.2249841,7.78538512 11.2249841,7.78538512 C11.2249841,7.75872284 11.2249841,7.73206057 11.2249841,7.70539829 C11.2249841,7.70539829 11.2249841,7.70539829 11.2249841,7.70539829 C11.2249841,7.67873601 11.2249841,7.65207373 11.2249841,7.62541145 L11.2249841,7.62541145 C11.2249841,7.59874918 11.2249841,7.59874918 11.2249841,7.5720869 L11.2249841,7.54542462 C11.2249841,7.51876234 11.2249841,7.51876234 11.2249841,7.49210007 C11.2249841,7.46543779 11.2249841,7.49210007 11.2249841,7.46543779 C11.2249841,7.46543779 11.2249841,7.43877551 11.2249841,7.43877551 C11.2249841,7.43877551 11.2249841,7.43877551 11.2249841,7.41211323 L11.2249841,7.38545095 C11.2249841,7.38545095 11.2249841,7.38545095 11.2249841,7.35878868 C11.2249841,7.35878868 11.2249841,7.3321264 11.2249841,7.3321264 C11.2249841,7.3321264 11.2249841,7.3321264 11.2249841,7.30546412 C11.2249841,7.30546412 11.2249841,7.30546412 11.2249841,7.30546412 C11.2249841,7.27880184 11.2249841,7.27880184 11.2249841,7.25213957 C11.7442539,6.1323239 11.7989138,5.4124424 11.7989138,5.1724819 C11.7989138,5.1724819 11.7989138,5.14581962 11.7989138,5.14581962 L12.4275035,5.14581962 C12.7008034,6.6122449 12.4275035,8.07867018 11.6622639,9.33179724 Z M4.77510723,0.693219223 C5.07573708,0.719881501 5.34903695,0.746543779 5.56767685,0.799868334 C5.70432678,0.826530612 5.84097671,0.826530612 5.92296667,0.85319289 L5.95029666,0.85319289 L5.95029666,0.85319289 L5.97762665,0.85319289 L5.97762665,1.89302172 C5.51301687,2.10631995 5.0484071,2.399605 4.66578728,2.74621461 C4.55646734,2.85286373 4.44714739,2.93285056 4.39248742,3.01283739 L4.36515743,3.03949967 L4.36515743,3.03949967 L4.33782744,3.06616195 L4.33782744,3.06616195 C4.33782744,3.06616195 4.31049745,3.09282423 4.31049745,3.09282423 C4.31049745,3.09282423 4.31049745,3.09282423 4.31049745,3.09282423 L4.28316747,3.1194865 L4.28316747,3.1194865 L4.25583748,3.14614878 L4.25583748,3.14614878 L4.22850749,3.17281106 C4.22850749,3.17281106 4.22850749,3.17281106 4.22850749,3.17281106 L4.20117751,3.19947334 L4.20117751,3.19947334 L4.20117751,3.19947334 L4.20117751,3.19947334 C4.11918755,3.19947334 3.90054765,3.17281106 3.5999178,3.17281106 L3.51792784,3.17281106 C3.05331806,3.17281106 2.58870829,3.22613562 2.12409851,3.30612245 L2.06943854,2.34628045 C2.7800182,1.54641211 3.73656773,0.986504279 4.77510723,0.693219223 Z M0.484299309,5.78571429 L0.839589137,5.75905201 C0.89424911,5.97235023 0.948909084,6.21231073 1.03089904,6.42560895 C1.19487896,6.90552995 1.46817883,7.38545095 1.79613867,7.78538512 C1.76880869,8.02534562 1.7414787,8.23864384 1.7414787,8.45194207 C1.7414787,8.47860434 1.7414787,8.5319289 1.7414787,8.55859118 C1.7414787,8.55859118 1.7414787,8.58525346 1.7414787,8.58525346 C1.7414787,8.61191573 1.7414787,8.63857801 1.7414787,8.66524029 C1.7414787,8.69190257 1.7414787,8.74522712 1.7414787,8.7718894 C1.7414787,8.79855168 1.7414787,8.82521396 1.7414787,8.85187623 C1.7414787,8.85187623 1.7414787,8.87853851 1.7414787,8.87853851 C1.7414787,8.90520079 1.7414787,8.93186307 1.7414787,8.95852535 C1.7414787,8.95852535 1.7414787,8.95852535 1.7414787,8.95852535 C1.7414787,8.98518762 1.7414787,9.0118499 1.7414787,9.03851218 C1.7414787,9.03851218 1.7414787,9.06517446 1.7414787,9.06517446 C1.7414787,9.09183673 1.7414787,9.11849901 1.7414787,9.11849901 C1.7414787,9.11849901 1.7414787,9.11849901 1.7414787,9.14516129 C1.7414787,9.17182357 1.7414787,9.19848585 1.7414787,9.22514812 C1.7414787,9.22514812 1.7414787,9.22514812 1.7414787,9.2518104 C1.7414787,9.27847268 1.7414787,9.27847268 1.7414787,9.30513496 L1.7414787,9.27847268 C1.7414787,9.30513496 1.7414787,9.33179724 1.7414787,9.33179724 C1.7414787,9.33179724 1.7414787,9.33179724 1.7414787,9.35845951 L1.7414787,9.41178407 C1.7414787,9.41178407 1.7414787,9.41178407 1.7414787,9.43844635 C1.7414787,9.46510862 1.7414787,9.46510862 1.7414787,9.4917709 L1.7414787,9.4917709 C1.7414787,9.51843318 1.7414787,9.51843318 1.7414787,9.54509546 C1.7414787,9.54509546 1.7414787,9.54509546 1.7414787,9.54509546 L1.7414787,9.59842001 C1.7414787,9.62508229 1.7414787,9.62508229 1.7414787,9.65174457 C1.7414787,9.65174457 1.7414787,9.65174457 1.7414787,9.65174457 L1.7414787,9.67840685 C1.7414787,9.67840685 1.7414787,9.70506912 1.7414787,9.70506912 C1.7414787,9.70506912 1.7414787,9.70506912 1.7414787,9.70506912 C1.7414787,9.7317314 1.7414787,9.75839368 1.76880869,9.75839368 L1.63215875,9.81171824 C0.757599176,8.63857801 0.347649375,7.22547729 0.484299309,5.78571429 Z" id="Shape" fill="#000000" fill-rule="nonzero"></path>
                        <path d="M10.2400149,11.9916814 C10.2951789,11.9400589 10.2951789,11.8884364 10.2675969,11.8368139 C10.2400149,11.7851914 10.2124329,11.7335689 10.1296868,11.7335689 L8.08861714,11.449645 L7.1784104,9.72029091 C7.15082838,9.6686684 7.09566433,9.64285714 7.04050029,9.64285714 C6.98533624,9.64285714 6.9301722,9.6686684 6.90259018,9.72029091 L5.99238343,11.449645 L4.00647782,11.7593801 C3.95131377,11.7593801 3.89614973,11.8110026 3.8685677,11.8626251 C3.84098568,11.9142476 3.8685677,11.9658702 3.89614973,12.0174927 L5.35799692,13.359678 L5.02701265,15.2438996 C5.02701265,15.2955221 5.05459467,15.3471446 5.08217669,15.3987672 C5.10975872,15.4503897 5.19250478,15.4245784 5.24766883,15.3987672 L7.06808231,14.4953732 L8.88849579,15.3987672 C8.94365984,15.4245784 8.99882388,15.4245784 9.05398793,15.3987672 C9.10915197,15.3729559 9.136734,15.3213334 9.10915197,15.2438996 L8.75058568,13.3338667 L10.2400149,11.9916814 Z" id="Path" fill="#000000" fill-rule="nonzero"></path>
                        <path d="M13.4882336,13.6788637 C13.4882336,13.6536123 13.4314205,13.628361 13.403014,13.6031097 L11.9826869,13.4263502 L11.3293364,12.2647884 L11.3293364,12.2647884 C11.3009299,12.2395371 11.2725234,12.2142857 11.2441168,12.2142857 C11.2157103,12.2142857 11.1588972,12.2395371 11.1588972,12.2647884 L10.5055467,13.4263502 L9.08521963,13.6031097 C9.05681308,13.6031097 9,13.628361 9,13.6788637 C9,13.704115 9,13.7546177 9.02840654,13.7798691 L10.0510421,14.6889175 L9.79538317,15.9514847 C9.79538317,15.976736 9.79538317,16.0272387 9.85219626,16.0524901 C9.8806028,16.0777414 9.93741588,16.0777414 9.96582243,16.0524901 L11.2441168,15.4464578 L12.5224112,16.0524901 C12.5508177,16.0777414 12.6076308,16.0777414 12.6360374,16.0524901 C12.6644439,16.0272387 12.6928505,16.0019874 12.6928505,15.9514847 L12.4371916,14.6889175 L13.4598271,13.7798691 C13.4882336,13.7546177 13.5166402,13.7293664 13.4882336,13.6788637 Z" id="Path" fill="#000000" fill-rule="nonzero"></path>
                        <path d="M4.41455696,13.6031097 L2.99050633,13.4263502 L2.33544304,12.2647884 L2.33544304,12.2647884 C2.30696203,12.2395371 2.27848101,12.2142857 2.25,12.2142857 C2.22151899,12.2142857 2.16455696,12.2395371 2.16455696,12.2647884 L1.50949367,13.4263502 L0.085443038,13.6031097 C0.0569620253,13.6031097 0,13.628361 0,13.6788637 C0,13.704115 0,13.7546177 0.0284810127,13.7798691 L1.05379747,14.6889175 L0.797468354,15.9514847 C0.797468354,15.976736 0.797468354,16.0272387 0.85443038,16.0524901 C0.882911392,16.0777414 0.939873418,16.0777414 0.96835443,16.0524901 L2.25,15.4464578 L3.53164557,16.0524901 C3.56012658,16.0777414 3.61708861,16.0777414 3.64556962,16.0524901 C3.67405063,16.0272387 3.70253165,16.0019874 3.70253165,15.9514847 L3.44620253,14.6889175 L4.47151899,13.7798691 C4.5,13.7546177 4.5,13.704115 4.5,13.6788637 C4.5,13.6536123 4.47151899,13.6031097 4.41455696,13.6031097 Z" id="Path" fill="#000000" fill-rule="nonzero"></path>
                    </g>
                </g>
            </g>
        </g>
    </g>
</svg>