<?xml version="1.0" encoding="UTF-8"?>
<svg width="42px" height="58px" viewBox="0 0 42 58" version="1.1" xmlns="http://www.w3.org/2000/svg" xmlns:xlink="http://www.w3.org/1999/xlink">
    <title>01.Basics/09.Virtual/Flags/Football All Star League</title>
    <defs>
        <path d="M4,4.97379915e-14 L39,4.97379915e-14 L39,4.97379915e-14 L32.0253842,42.9169288 L0,29 L0,4 C-2.705415e-16,1.790861 1.790861,5.01438038e-14 4,4.97379915e-14 Z" id="path-1"></path>
        <filter x="-10.3%" y="-4.7%" width="120.5%" height="118.6%" filterUnits="objectBoundingBox" id="filter-2">
            <feOffset dx="0" dy="2" in="SourceAlpha" result="shadowOffsetOuter1"></feOffset>
            <feGaussianBlur stdDeviation="1" in="shadowOffsetOuter1" result="shadowBlurOuter1"></feGaussianBlur>
            <feColorMatrix values="0 0 0 0 0   0 0 0 0 0   0 0 0 0 0  0 0 0 0.35 0" type="matrix" in="shadowBlurOuter1"></feColorMatrix>
        </filter>
        <filter id="filter-3">
            <feColorMatrix in="SourceGraphic" type="matrix" values="0 0 0 0 1.000000 0 0 0 0 1.000000 0 0 0 0 1.000000 0 0 0 1.000000 0"></feColorMatrix>
        </filter>
        <filter id="filter-4">
            <feColorMatrix in="SourceGraphic" type="matrix" values="0 0 0 0 0.200000 0 0 0 0 0.200000 0 0 0 0 0.200000 0 0 0 1.000000 0"></feColorMatrix>
        </filter>
    </defs>
    <g id="01.Basics/09.Virtual/Flags/Football-All-Star-League" stroke="none" stroke-width="1" fill="none" fill-rule="evenodd">
        <g id="BG">
            <rect fill="#FFFFFF" opacity="0" x="0" y="0" width="42" height="58"></rect>
            <path d="M4.15816284,0.164545387 L36,1.42457959 L36,1.42457959 L17.9701653,53 L0,40.406002 L0,4.16141723 C-1.6956855e-15,1.95227823 1.790861,0.161417228 4,0.161417228 C4.05273641,0.161417228 4.10546767,0.162460152 4.15816284,0.164545387 Z" id="Rectangle-5" fill="#0F90E7"></path>
            <g id="Rectangle-5-Copy-3">
                <use fill="black" fill-opacity="1" filter="url(#filter-2)" xlink:href="#path-1"></use>
                <use fill="#005995" fill-rule="evenodd" xlink:href="#path-1"></use>
            </g>
        </g>
        <g id="01.Basics/02.Icon/Virtual/Football-League" transform="translate(10.000000, 10.000000)" filter="url(#filter-3)">
            <g>
                <rect id="BG" fill="#FFFFFF" opacity="0" x="0" y="0" width="18" height="18"></rect>
                <g filter="url(#filter-4)" id="Group-2">
                    <g transform="translate(2.571429, 0.642857)">
                        <path d="M9.87795054,12.127783 C9.98179669,12.0483712 9.92987362,11.8895477 9.80006593,11.8630771 L7.80102746,11.5719006 L6.91833516,9.74543005 C6.86641208,9.6395477 6.71064285,9.6395477 6.63275823,9.74543005 L5.75006593,11.5719006 L3.75102746,11.8630771 C3.62121977,11.8895477 3.56929669,12.0483712 3.67314285,12.127783 L5.10102746,13.5571948 L4.76352746,15.5689595 C4.73756593,15.7013124 4.86737362,15.7807242 4.99718131,15.727783 L6.78852746,14.7748418 L8.57987362,15.727783 C8.68371977,15.7807242 8.81352746,15.7013124 8.81352746,15.5689595 L8.47602746,13.5571948 L9.87795054,12.127783 Z" id="Path" fill="#000000"></path>
                        <path d="M13.3567967,13.6895477 L12.0067967,13.5042536 L11.4096813,12.2601359 C11.3837198,12.1807242 11.2539121,12.1807242 11.2279505,12.2601359 L10.5789121,13.5042536 L9.22891208,13.7160183 C9.15102746,13.7160183 9.09910439,13.8483712 9.176989,13.9013124 L10.1635275,14.8807242 L9.92987362,16.2571948 C9.90391208,16.3366065 10.0077582,16.4160183 10.0856428,16.3630771 L11.3058352,15.727783 L12.5260275,16.3630771 C12.6039121,16.4160183 12.6817967,16.3366065 12.6817967,16.2571948 L12.4481428,14.8807242 L13.4346813,13.9013124 C13.4866044,13.8219006 13.4346813,13.7160183 13.3567967,13.6895477 Z" id="Path" fill="#000000"></path>
                        <path d="M4.19237362,13.6895477 L2.84237362,13.5042536 L2.24525823,12.2601359 C2.21929669,12.1807242 2.089489,12.1807242 2.06352746,12.2601359 L1.44045054,13.5042536 L0.0904505406,13.7160183 C0.0125659252,13.7160183 -0.0393571517,13.8483712 0.0385274637,13.9013124 L1.02506593,14.8807242 L0.765450541,16.2307242 C0.739489002,16.3101359 0.843335156,16.3895477 0.921219771,16.3366065 L2.14141208,15.7013124 L3.36160439,16.3366065 C3.439489,16.3895477 3.51737362,16.3101359 3.51737362,16.2307242 L3.28371977,14.8542536 L4.27025823,13.8748418 C4.32218131,13.8219006 4.29621977,13.7160183 4.19237362,13.6895477 Z" id="Path" fill="#000000"></path>
                        <path d="M3.69910439,11.3071948 L5.28275823,11.0689595 L6.55487362,8.44837123 C6.63275823,8.2895477 6.86641208,8.2895477 6.94429669,8.44837123 L8.21641208,11.0689595 L9.69621977,11.2807242 C10.4750659,9.66601829 11.0981428,7.52190064 11.0981428,7.52190064 C11.8510275,5.1395477 11.7731428,2.75719476 11.7731428,2.75719476 C11.8250659,-0.181040534 10.3971813,0.00425358415 10.3971813,0.00425358415 C9.38468131,-0.0751581806 9.41064285,0.983665349 9.41064285,0.983665349 C9.35871977,1.59248888 9.87795054,2.57190064 9.87795054,2.57190064 C9.48852746,2.73072417 9.59237362,2.99543005 9.59237362,2.99543005 L6.71064285,2.99543005 L3.80295054,2.99543005 C3.80295054,2.99543005 3.90679669,2.73072417 3.51737362,2.57190064 C3.51737362,2.57190064 4.06256593,1.59248888 3.98468131,0.983665349 C3.98468131,0.983665349 4.01064285,-0.0486875923 2.99814285,0.00425358415 C2.99814285,0.00425358415 1.57025823,-0.181040534 1.59621977,2.75719476 C1.59621977,2.75719476 1.51833516,5.1395477 2.27121977,7.52190064 C2.29718131,7.52190064 2.92025823,9.69248888 3.69910439,11.3071948 Z M9.02121977,3.63072417 C9.02121977,3.63072417 9.15102746,3.36601829 9.48852746,3.18072417 L9.67025823,3.15425358 C9.67025823,3.15425358 10.1375659,3.44543005 10.2414121,2.75719476 C10.2414121,2.75719476 10.2414121,2.49248888 10.1635275,2.33366535 C10.1635275,2.33366535 9.77410439,1.48660653 9.82602746,1.03660653 C9.82602746,1.03660653 9.80006593,0.348371231 10.3452582,0.321900643 C10.3452582,0.321900643 11.2798736,0.136606525 11.3317967,2.73072417 C11.3317967,2.73072417 11.3837198,4.82190064 10.9423736,6.38366535 C10.9423736,6.38366535 10.2673736,9.00425358 9.72218131,10.1689595 C9.72218131,10.1689595 10.7346813,7.52190064 10.4231428,5.27190064 C10.4231428,5.27190064 9.43660439,4.71601829 8.99525823,4.00131241 L8.99525823,3.63072417 L9.02121977,3.63072417 Z M2.089489,2.75719476 C2.14141208,0.163077114 3.07602746,0.348371231 3.07602746,0.348371231 C3.62121977,0.348371231 3.59525823,1.06307711 3.59525823,1.06307711 C3.64718131,1.51307711 3.25775823,2.36013594 3.25775823,2.36013594 C3.20583516,2.54543005 3.17987362,2.78366535 3.17987362,2.78366535 C3.28371977,3.47190064 3.75102746,3.18072417 3.75102746,3.18072417 L3.93275823,3.20719476 C4.27025823,3.39248888 4.40006593,3.65719476 4.40006593,3.65719476 L4.40006593,4.05425358 C3.95871977,4.76895947 2.97218131,5.32484182 2.97218131,5.32484182 C2.66064285,7.54837123 3.67314285,10.2219006 3.67314285,10.2219006 C3.12795054,9.03072417 2.45295054,6.43660653 2.45295054,6.43660653 C2.03756593,4.84837123 2.089489,2.75719476 2.089489,2.75719476 Z" id="Shape" fill="#000000"></path>
                    </g>
                </g>
            </g>
        </g>
    </g>
</svg>