<?xml version="1.0" encoding="UTF-8"?>
<svg width="42px" height="58px" viewBox="0 0 42 58" version="1.1" xmlns="http://www.w3.org/2000/svg" xmlns:xlink="http://www.w3.org/1999/xlink">
    <title>01.Basics/09.Virtual/Flags/MatchDay</title>
    <defs>
        <path d="M4,4.97379915e-14 L39,4.97379915e-14 L39,4.97379915e-14 L32.0253842,42.9169288 L0,29 L0,4 C-2.705415e-16,1.790861 1.790861,5.01438038e-14 4,4.97379915e-14 Z" id="path-1"></path>
        <filter x="-10.3%" y="-4.7%" width="120.5%" height="118.6%" filterUnits="objectBoundingBox" id="filter-2">
            <feOffset dx="0" dy="2" in="SourceAlpha" result="shadowOffsetOuter1"></feOffset>
            <feGaussianBlur stdDeviation="1" in="shadowOffsetOuter1" result="shadowBlurOuter1"></feGaussianBlur>
            <feColorMatrix values="0 0 0 0 0   0 0 0 0 0   0 0 0 0 0  0 0 0 0.35 0" type="matrix" in="shadowBlurOuter1"></feColorMatrix>
        </filter>
        <filter id="filter-3">
            <feColorMatrix in="SourceGraphic" type="matrix" values="0 0 0 0 1.000000 0 0 0 0 1.000000 0 0 0 0 1.000000 0 0 0 1.000000 0"></feColorMatrix>
        </filter>
        <path d="M14.0728571,0 L1.35571429,0 C0.996271429,0.000378160714 0.651660714,0.143333571 0.397497143,0.397497143 C0.143333571,0.651660714 0.000378160714,0.996271429 0,1.35571429 L0,2.045 C0,3.16 0.383571429,4.25428571 1.08071429,5.12571429 C1.66,5.85 2.485,6.41714286 3.40214286,6.72357143 L3.88071429,6.88285714 C4.43785714,7.79 5.31071429,8.48785714 6.35857143,8.81928571 L6.35857143,9.52214286 C6.35838571,9.642 6.31068571,9.75692857 6.22593571,9.84164286 C6.14117857,9.92642857 6.02628571,9.97407143 5.90642857,9.97428571 C5.54674286,9.9745 5.20183571,10.1174286 4.9475,10.3717857 C4.69315714,10.6261429 4.55018571,10.971 4.55,11.3307143 L4.55,11.7821429 L4.09785714,11.7821429 C3.97806429,11.7823571 3.86324286,11.8300714 3.77860714,11.9148571 C3.69396429,11.9995714 3.64642857,12.1145 3.64642857,12.2342857 L3.64642857,14.5242857 L3.19428571,14.5242857 C3.07437143,14.5242857 2.95936429,14.5719286 2.87457143,14.6567143 C2.78977857,14.7415 2.74214286,14.8565 2.74214286,14.9764286 C2.74214286,15.0963571 2.78977857,15.2113571 2.87457143,15.2961429 C2.95936429,15.3809286 3.07437143,15.4285714 3.19428571,15.4285714 L12.2342857,15.4285714 C12.2936429,15.4285714 12.3524286,15.4168571 12.4072857,15.3941429 C12.4621429,15.3714286 12.512,15.3381429 12.554,15.2961429 C12.596,15.2541429 12.6292857,15.2042857 12.652,15.1494286 C12.6747143,15.0945714 12.6864286,15.0357857 12.6864286,14.9764286 C12.6864286,14.9170714 12.6747143,14.8582857 12.652,14.8034286 C12.6292857,14.7485714 12.596,14.6987143 12.554,14.6567143 C12.512,14.6147143 12.4621429,14.5814286 12.4072857,14.5587143 C12.3524286,14.536 12.2936429,14.5242857 12.2342857,14.5242857 L11.7821429,14.5242857 L11.7821429,12.2342857 C11.7821429,12.1749286 11.7704286,12.1161429 11.7477143,12.0612857 C11.725,12.0064286 11.6917143,11.9565714 11.6497143,11.9145714 C11.6077143,11.8725714 11.5578571,11.8392857 11.503,11.8165714 C11.4481429,11.7938571 11.3893571,11.7821429 11.33,11.7821429 L10.8785714,11.7821429 L10.8785714,11.33 C10.8782143,10.9704286 10.7351429,10.6257143 10.4808571,10.3715 C10.2265,10.1173571 9.88171429,9.9745 9.52214286,9.97428571 C9.40228571,9.97407143 9.28735714,9.92642857 9.20264286,9.84164286 C9.11785714,9.75692857 9.07021429,9.642 9.07,9.52214286 L9.07,8.81928571 C10.1005714,8.49285714 10.9793571,7.8065 11.5457143,6.88571429 L12.0507143,6.725 L12.0564286,6.72357143 C12.9585714,6.42346429 13.7544286,5.86848571 14.3478571,5.12571429 C15.0462143,4.25062857 15.4272143,3.16459286 15.4285714,2.045 L15.4285714,1.35571429 C15.4282143,0.996271429 15.2852143,0.651660714 15.0310714,0.397497143 C14.7769286,0.143333571 14.4322857,0.000378160714 14.0728571,0 L14.0728571,0 Z M1.78714286,4.56071429 C1.21681429,3.84612143 0.905592857,2.95928571 0.904285714,2.045 L0.904285714,1.35571429 C0.904285714,1.10714286 1.10714286,0.904285714 1.35571429,0.904285714 L2.78928571,0.904285714 L3.24928571,5.04428571 C3.27642857,5.28642857 3.32357143,5.52285714 3.38785714,5.75214286 C2.76375714,5.49350714 2.21352857,5.08415 1.78642857,4.56071429 L1.78714286,4.56071429 Z M4.55,14.525 L4.55,12.6857143 L10.8785714,12.6857143 L10.8785714,14.5235714 L4.55,14.5235714 L4.55,14.525 Z M14.5242857,2.04428571 C14.5235714,2.95864286 14.2128571,3.84574286 13.6428571,4.56071429 C13.2182857,5.09206429 12.6657857,5.50693571 12.0371429,5.76642857 C12.1035714,5.53214286 12.1514286,5.29142857 12.18,5.04428571 L12.64,0.904285714 L14.0735714,0.904285714 C14.3221429,0.904285714 14.525,1.10714286 14.525,1.35571429 L14.525,2.045 L14.5242857,2.04428571 Z" id="path-4"></path>
    </defs>
    <g id="01.Basics/09.Virtual/Flags/MatchDay" stroke="none" stroke-width="1" fill="none" fill-rule="evenodd">
        <g id="BG">
            <rect fill="#FFFFFF" opacity="0" x="0" y="0" width="42" height="58"></rect>
            <path d="M4.15816284,0.164545387 L36,1.42457959 L36,1.42457959 L17.9701653,53 L0,40.406002 L0,4.16141723 C-1.6956855e-15,1.95227823 1.790861,0.161417228 4,0.161417228 C4.05273641,0.161417228 4.10546767,0.162460152 4.15816284,0.164545387 Z" id="Rectangle-5" fill="#E72530"></path>
            <g id="Rectangle-5-Copy-3">
                <use fill="black" fill-opacity="1" filter="url(#filter-2)" xlink:href="#path-1"></use>
                <use fill="#B30B15" fill-rule="evenodd" xlink:href="#path-1"></use>
            </g>
        </g>
        <g id="icona_sport-copy" transform="translate(10.000000, 10.000000)">
            <rect id="BG" fill="#FFFFFF" opacity="0" x="0" y="0" width="18" height="18"></rect>
            <g filter="url(#filter-3)" id="matchday">
                <g transform="translate(1.285714, 1.285714)">
                    <mask id="mask-5" fill="white">
                        <use xlink:href="#path-4"></use>
                    </mask>
                    <g id="Shape"></g>
                    <g id="Group" mask="url(#mask-5)" fill="#222222">
                        <g transform="translate(-5.785714, -5.785714)">
                            <path d="M19.2523552,5.55984556 L6.87891892,5.55984556 C6.52919073,5.5602135 6.19389382,5.69930525 5.94659954,5.94659954 C5.69930525,6.19389382 5.5602135,6.52919073 5.55984556,6.87891892 L5.55984556,7.54957529 C5.55984556,8.63444015 5.93305019,9.69915058 6.61135135,10.547027 C7.17498069,11.2517375 7.9776834,11.8035521 8.87003861,12.1016988 L9.33567568,12.2566795 C9.87776062,13.139305 10.727027,13.8183012 11.7465637,14.1407722 L11.7465637,14.8246332 C11.746383,14.941251 11.6999722,15.0530734 11.6175127,15.1354981 C11.5350463,15.2179923 11.4232587,15.2643475 11.3066409,15.264556 C10.9566764,15.2647645 10.6210911,15.4038301 10.3736293,15.6513127 C10.1261606,15.8987954 9.98705328,16.234332 9.98687259,16.5843243 L9.98687259,17.0235521 L9.54694981,17.0235521 C9.43039459,17.0237606 9.31867645,17.0701853 9.23632819,17.1526795 C9.15397297,17.2351042 9.10772201,17.3469266 9.10772201,17.4634749 L9.10772201,19.691583 L8.66779923,19.691583 C8.55112587,19.691583 8.43922703,19.7379382 8.35672587,19.8204324 C8.27422471,19.9029266 8.22787645,20.0148185 8.22787645,20.1315058 C8.22787645,20.2481931 8.27422471,20.3600849 8.35672587,20.4425792 C8.43922703,20.5250734 8.55112587,20.5714286 8.66779923,20.5714286 L17.4634749,20.5714286 C17.5212278,20.5714286 17.5784247,20.5600309 17.6317992,20.5379305 C17.6851737,20.5158301 17.7336834,20.483444 17.7745483,20.4425792 C17.8154131,20.4017143 17.8477992,20.3532046 17.8698996,20.2998301 C17.892,20.2464556 17.9033977,20.1892587 17.9033977,20.1315058 C17.9033977,20.0737529 17.892,20.016556 17.8698996,19.9631815 C17.8477992,19.9098069 17.8154131,19.8612973 17.7745483,19.8204324 C17.7336834,19.7795676 17.6851737,19.7471815 17.6317992,19.7250811 C17.5784247,19.7029807 17.5212278,19.691583 17.4634749,19.691583 L17.0235521,19.691583 L17.0235521,17.4634749 C17.0235521,17.405722 17.0121544,17.3485251 16.9900541,17.2951506 C16.9679537,17.2417761 16.9355676,17.1932664 16.8947027,17.1524015 C16.8538378,17.1115367 16.8053282,17.0791506 16.7519537,17.0570502 C16.6985792,17.0349498 16.6413822,17.0235521 16.5836293,17.0235521 L16.1444015,17.0235521 L16.1444015,16.5836293 C16.1440541,16.2337761 16.0048494,15.8983784 15.7574363,15.6510347 C15.5099537,15.4037606 15.1744865,15.2647645 14.8246332,15.264556 C14.7080154,15.2643475 14.5961931,15.2179923 14.5137683,15.1354981 C14.4312741,15.0530734 14.3849189,14.941251 14.3847104,14.8246332 L14.3847104,14.1407722 C15.3874286,13.823166 16.2424633,13.1553591 16.7935135,12.2594595 L17.2848649,12.1030888 L17.2904247,12.1016988 C18.1681853,11.8097027 18.9425328,11.2697236 19.5199228,10.547027 C20.1994054,9.69559228 20.5701081,8.63890888 20.5714286,7.54957529 L20.5714286,6.87891892 C20.5710811,6.52919073 20.4319459,6.19389382 20.1846718,5.94659954 C19.9373977,5.69930525 19.6020695,5.5602135 19.2523552,5.55984556 L19.2523552,5.55984556 Z M7.29868726,9.9972973 C6.74377297,9.30201776 6.44096293,8.43915058 6.43969112,7.54957529 L6.43969112,6.87891892 C6.43969112,6.63706564 6.63706564,6.43969112 6.87891892,6.43969112 L8.27374517,6.43969112 L8.72131274,10.4677992 C8.74772201,10.7033977 8.79359073,10.9334363 8.856139,11.1565251 C8.24890656,10.9048795 7.71354903,10.5065861 7.29799228,9.9972973 L7.29868726,9.9972973 Z M9.98687259,19.692278 L9.98687259,17.9027027 L16.1444015,17.9027027 L16.1444015,19.690888 L9.98687259,19.690888 L9.98687259,19.692278 Z M19.691583,7.54888031 C19.690888,8.4385251 19.3885714,9.30164942 18.8339768,9.9972973 C18.4208803,10.5142865 17.8833127,10.9179452 17.2716602,11.1704247 C17.3362934,10.942471 17.3828571,10.7082625 17.4106564,10.4677992 L17.8582239,6.43969112 L19.2530502,6.43969112 C19.4949035,6.43969112 19.692278,6.63706564 19.692278,6.87891892 L19.692278,7.54957529 L19.691583,7.54888031 Z" id="Shape" fill-rule="nonzero"></path>
                            <polygon id="Path" fill-rule="evenodd" points="0.347490347 0.347490347 25.3667954 0.347490347 25.3667954 25.3667954 0.347490347 25.3667954"></polygon>
                        </g>
                    </g>
                </g>
            </g>
        </g>
    </g>
</svg>