<?xml version="1.0" encoding="UTF-8"?>
<svg width="42px" height="58px" viewBox="0 0 42 58" version="1.1" xmlns="http://www.w3.org/2000/svg" xmlns:xlink="http://www.w3.org/1999/xlink">
    <title>01.Basics/09.Virtual/Flags/Rigori</title>
    <defs>
        <path d="M4,4.97379915e-14 L39,4.97379915e-14 L39,4.97379915e-14 L32.0253842,42.9169288 L0,29 L0,4 C-2.705415e-16,1.790861 1.790861,5.01438038e-14 4,4.97379915e-14 Z" id="path-1"></path>
        <filter x="-10.3%" y="-4.7%" width="120.5%" height="118.6%" filterUnits="objectBoundingBox" id="filter-2">
            <feOffset dx="0" dy="2" in="SourceAlpha" result="shadowOffsetOuter1"></feOffset>
            <feGaussianBlur stdDeviation="1" in="shadowOffsetOuter1" result="shadowBlurOuter1"></feGaussianBlur>
            <feColorMatrix values="0 0 0 0 0   0 0 0 0 0   0 0 0 0 0  0 0 0 0.35 0" type="matrix" in="shadowBlurOuter1"></feColorMatrix>
        </filter>
        <filter id="filter-3">
            <feColorMatrix in="SourceGraphic" type="matrix" values="0 0 0 0 1.000000 0 0 0 0 1.000000 0 0 0 0 1.000000 0 0 0 1.000000 0"></feColorMatrix>
        </filter>
        <path d="M14.0684492,2.09238469 C14.7011391,1.73579806 15.4004546,1.16712077 15.4482624,1.59864936 C15.4828467,1.90723394 15.2611001,2.42007212 14.6721493,2.91576672 C14.1838998,3.32721283 13.7521043,3.68379945 13.4362679,4.04038118 C13.1565417,4.35533338 12.4943534,5.13857002 12.3727997,5.79639397 C12.2863388,6.26269956 12.5452127,6.72900515 12.746107,7.11302152 C12.9012279,7.40887086 13.3208173,8.15584147 13.723623,8.43013887 C14.0959132,8.68386397 14.8196413,8.97383551 15.3043305,8.89644446 C15.8220783,8.81415524 16.4812151,8.65398515 16.6841437,8.89644446 C16.9145364,9.17074186 16.1638529,9.63214928 15.5632044,9.74676641 C14.7011391,9.91183467 13.8100839,9.82954545 13.0914418,9.47246901 C12.4241676,9.14135286 11.9954235,8.52565315 11.558542,8.04857159 C10.7971781,8.39438225 10.1639796,8.73970309 9.44076019,9.14331212 C9.41177038,9.47246901 8.72313526,11.1084571 8.20487885,11.6124786 C7.80665042,11.9994338 6.65214399,12.1610734 5.7610888,12.1610734 C5.20163635,12.1610734 4.43214001,12.2947934 4.01865378,12.4892506 C3.83505166,12.5759482 3.4088506,12.9869045 3.27661639,12.8159584 C3.15811419,12.6626458 3.35137958,12.3800215 3.64178626,12.0871111 C3.99627568,11.7295448 4.57963202,11.3930407 5.44474387,11.1736027 C6.3098608,10.9541648 6.94000771,10.9541648 7.08343097,10.7347269 C7.36417439,10.3056474 7.3707861,9.91183467 7.31331507,9.47246901 C6.79607585,9.41760953 5.84754964,10.4604295 5.24334098,10.8170161 C4.51707506,11.2460956 3.51667235,11.4660234 2.62816013,11.5576191 C1.65216989,11.6580315 1.65827301,11.6585214 1.11560413,11.8103646 C0.586667257,11.9587791 0.160466204,12.3648372 0.0384038495,12.1375622 C-0.108070976,11.8657139 0.17928415,11.5556598 0.648207027,11.2887097 C1.11662131,11.0217595 1.62063712,10.7812595 2.51270949,10.5975782 C3.39867874,10.4153663 4.06544435,9.77468597 4.61116479,9.22609116 C5.0704244,8.76468374 5.72040135,8.26947896 6.65214399,7.63418658 C7.45724693,7.08559178 10.2453545,5.93354268 10.6476517,5.43980735 C11.0504575,4.94607202 11.7792715,4.11483823 12.2863388,3.54665075 C12.9475099,2.80604776 13.6280075,2.34121162 14.0684492,2.09287451 L14.0684492,2.09238469 Z M14.3227458,4.36023154 C14.4909884,4.39045324 14.6513987,4.45239547 14.7947202,4.54250217 C14.9379909,4.63260887 15.0614264,4.74910689 15.1578557,4.88529066 C15.2542341,5.02145483 15.3217753,5.17466952 15.3565122,5.33606415 C15.3912491,5.49745879 15.3925206,5.66389853 15.3602758,5.82578298 C15.2219384,6.50417924 14.5343205,6.94697362 13.8243245,6.81521291 C13.6160047,6.77695821 13.4203998,6.69075046 13.2541916,6.56393689 C12.7720453,5.77778094 13.2297791,4.98966572 13.6875129,4.39305417 C13.8868814,4.33427615 14.1035421,4.31957675 14.3232544,4.36023154 L14.3227458,4.36023154 Z M17.046262,0.0214369356 C17.1976194,0.048770378 17.3418055,0.104618995 17.470683,0.185777229 C17.5995605,0.266935464 17.7104847,0.371804749 17.797149,0.494367197 C17.8838132,0.616929155 17.9444884,0.754768499 17.975716,0.899969789 C18.0069436,1.04517598 18.0080625,1.19488848 17.9790219,1.34051591 C17.9175838,1.63467049 17.7377961,1.89345539 17.4788714,2.06031149 C17.2199466,2.22716758 16.9029405,2.28853672 16.5971743,2.23100284 C16.4457153,2.2038376 16.3013257,2.14811115 16.1722956,2.06702198 C16.0432655,1.9859377 15.9321379,1.88109242 15.8453211,1.75851577 C15.7585042,1.63593422 15.6976765,1.49804099 15.666398,1.35275153 C15.6350686,1.20746698 15.6338989,1.05765161 15.6628887,0.911926217 C15.7241742,0.617394481 15.9042161,0.358278458 16.1634969,0.191359671 C16.4228286,0.0244403942 16.7402415,-0.0366643488 17.046262,0.0214369356 L17.046262,0.0214369356 Z" id="path-4"></path>
    </defs>
    <g id="01.Basics/09.Virtual/Flags/Rigori" stroke="none" stroke-width="1" fill="none" fill-rule="evenodd">
        <g id="BG">
            <rect fill="#FFFFFF" opacity="0" x="0" y="0" width="42" height="58"></rect>
            <path d="M4.15816284,0.164545387 L36,1.42457959 L36,1.42457959 L17.9701653,53 L0,40.406002 L0,4.16141723 C-1.6956855e-15,1.95227823 1.790861,0.161417228 4,0.161417228 C4.05273641,0.161417228 4.10546767,0.162460152 4.15816284,0.164545387 Z" id="Rectangle-5" fill="#0F90E7"></path>
            <g id="Rectangle-5-Copy-3">
                <use fill="black" fill-opacity="1" filter="url(#filter-2)" xlink:href="#path-1"></use>
                <use fill="#005995" fill-rule="evenodd" xlink:href="#path-1"></use>
            </g>
        </g>
        <g id="icona_sport-copy" transform="translate(10.000000, 10.000000)">
            <rect id="BG" fill="#FFFFFF" opacity="0" x="0" y="0" width="18" height="18"></rect>
            <g filter="url(#filter-3)" id="Rigori">
                <g transform="translate(0.000000, 2.571429)">
                    <mask id="mask-5" fill="white">
                        <use xlink:href="#path-4"></use>
                    </mask>
                    <g id="Shape"></g>
                    <g id="Group" mask="url(#mask-5)" fill="#222222">
                        <g transform="translate(-1.285714, -3.214286)">
                            <path d="M15.1270191,5.65552223 C15.7407533,5.29025394 16.4191171,4.70773129 16.4654925,5.14976613 C16.4990407,5.46586369 16.2839377,5.99118774 15.7126321,6.4989508 C15.2390108,6.92041422 14.820152,7.28568251 14.5137782,7.65094578 C14.2424327,7.97356599 13.6000839,8.77587178 13.4821719,9.4497115 C13.3983015,9.92737003 13.6494194,10.4050286 13.8442949,10.7983944 C13.9947683,11.1014467 14.4017865,11.8666035 14.7925241,12.1475791 C15.1536603,12.4074815 15.8557051,12.7045129 16.3258729,12.6252376 C16.8281088,12.5409449 17.4674975,12.3768753 17.6643463,12.6252376 C17.8878364,12.9062132 17.1596437,13.3788544 16.5769909,13.496262 C15.7407533,13.6653491 14.8763945,13.5810564 14.1792832,13.2152864 C13.5320008,12.8761087 13.1161022,12.2454188 12.6923098,11.756722 C11.9537566,12.1109519 11.3395291,12.4646801 10.6379776,12.8781157 C10.6098563,13.2152864 9.94185299,14.8911052 9.43912375,15.4073979 C9.05282641,15.8037742 7.93290947,15.9693491 7.06855066,15.9693491 C6.52585963,15.9693491 5.77941772,16.1063247 5.37831972,16.3055164 C5.20021839,16.3943247 4.7867865,16.8152864 4.65851407,16.6401784 C4.54356224,16.4831331 4.73103733,16.1936279 5.01274331,15.8935861 C5.35661208,15.5273143 5.92249081,15.1826174 6.76168355,14.9578369 C7.60088123,14.7330564 8.21214867,14.7330564 8.35127492,14.508276 C8.62360714,14.0687498 8.63002076,13.6653491 8.57427159,13.2152864 C8.07252907,13.1590913 7.1524211,14.2273003 6.56631478,14.5925686 C5.86180809,15.0320948 4.89137786,15.257377 4.02948583,15.3512028 C3.08273666,15.4540599 3.08865693,15.4545617 2.56224663,15.6101017 C2.04915693,15.7621296 1.63572503,16.1780739 1.51731972,15.9452655 C1.37523334,15.6667986 1.65397919,15.3491958 2.10885294,15.0757463 C2.56323334,14.8022969 3.05214862,14.5559415 3.91749414,14.3677882 C4.77691939,14.1811401 5.42370842,13.5248613 5.95307885,12.9629101 C6.39857885,12.490269 7.02908223,11.9830077 7.93290947,11.3322481 C8.7138912,10.7702969 11.4184659,9.5901993 11.8087101,9.08444321 C12.1994477,8.57868711 12.9064261,7.72721561 13.3983015,7.1451947 C14.0396636,6.38656056 14.6997733,5.91040725 15.1270191,5.65602397 L15.1270191,5.65552223 Z M15.3736968,7.97858341 C15.5368988,8.00954091 15.6925032,8.07299122 15.8315307,8.16529171 C15.970509,8.2575922 16.0902463,8.37692655 16.1837865,8.51642592 C16.2772774,8.65590523 16.342795,8.81285017 16.3764912,8.97817422 C16.4101874,9.14349826 16.4114208,9.31399024 16.380142,9.47981603 C16.2459493,10.1747289 15.5789327,10.6283038 14.8902085,10.4933352 C14.6881301,10.4541491 14.4983855,10.3658425 14.337157,10.2359415 C13.869456,9.4306453 14.3134759,8.62334216 14.7574958,8.01220516 C14.9508912,7.9519961 15.1610606,7.93693882 15.3741902,7.97858341 L15.3736968,7.97858341 Z M18.0156154,3.53415397 C18.162438,3.56215289 18.3023043,3.61936123 18.4273206,3.70249539 C18.5523369,3.78562955 18.6599377,3.89305204 18.7440055,4.01859847 C18.8280733,4.14414439 18.8869306,4.28533965 18.9172226,4.4340761 C18.9475146,4.58281756 18.9486,4.73617505 18.9204294,4.88534801 C18.8608321,5.18666425 18.6864309,5.45174969 18.4352636,5.62266815 C18.1840963,5.79358662 17.8765879,5.8564499 17.5799826,5.79751526 C17.4330613,5.76968864 17.2929977,5.71260544 17.1678334,5.62954202 C17.0426691,5.54648362 16.9348709,5.43908571 16.8506551,5.31352474 C16.7664394,5.18795875 16.7074341,5.04670829 16.6770927,4.89788153 C16.646702,4.74905979 16.6455673,4.59559693 16.6736885,4.44632362 C16.7331379,4.14462105 16.9077857,3.87919643 17.1592983,3.70821374 C17.4108603,3.53723055 17.7187635,3.47463812 18.0156154,3.53415397 L18.0156154,3.53415397 Z" id="Shape" fill-rule="nonzero"></path>
                            <polygon id="Path" fill-rule="evenodd" points="0.246435997 0.221654634 20.8030739 0.221654634 20.8030739 20.2913561 0.246435997 20.2913561"></polygon>
                        </g>
                    </g>
                </g>
            </g>
        </g>
    </g>
</svg>